<?xml version="1.0" encoding="utf-8"?>
<!-- Generator: Adobe Illustrator 26.5.0, SVG Export Plug-In . SVG Version: 6.00 Build 0)  -->
<svg version="1.1" id="레이어_1" xmlns="http://www.w3.org/2000/svg" xmlns:xlink="http://www.w3.org/1999/xlink" x="0px"
	 y="0px" viewBox="0 0 874.8 190" style="enable-background:new 0 0 874.8 190;" xml:space="preserve">
<style type="text/css">
	.st0{enable-background:new    ;}
	.st1{fill:#183182;}
	.st2{fill:#003174;}
	.st3{fill:#082AB7;}
</style>
<g class="st0">
	<path class="st2" d="M189.3,73h-26.6v-3c1,0,2.2-0.1,3.7-0.3c1.5-0.2,2.6-0.4,3.1-0.7c0.9-0.5,1.5-1.2,1.9-1.8
		c0.4-0.7,0.6-1.6,0.6-2.6V20.7h-0.6L150.9,72h-2.1l-19.6-52.4h-0.6v36c0,3.5,0.2,6.1,0.7,7.9c0.4,1.8,1.1,3.1,2,3.9
		c0.6,0.6,1.9,1.2,3.9,1.7s3.2,0.8,3.8,0.8v3h-24.3v-3c1.3-0.1,2.6-0.3,4-0.6c1.4-0.3,2.5-0.8,3.2-1.4c1-0.8,1.7-2,2-3.7
		c0.4-1.6,0.6-4.4,0.6-8.2V25.2c0-1.8-0.2-3.2-0.6-4.4s-1-2.1-1.8-2.8c-0.9-0.8-2-1.3-3.2-1.7c-1.3-0.4-2.5-0.6-3.8-0.6v-3h20.6
		L152.9,58l14.7-37.9c0.5-1.4,1-2.8,1.4-4.4c0.4-1.5,0.6-2.5,0.6-3h19.7v3c-0.8,0-1.8,0.2-3,0.4c-1.2,0.2-2.1,0.4-2.7,0.6
		c-1,0.3-1.6,0.9-2,1.7s-0.5,1.7-0.5,2.6v43.5c0,1,0.2,1.8,0.5,2.5s1,1.3,2,1.8c0.5,0.3,1.4,0.5,2.7,0.8c1.3,0.2,2.3,0.4,3.1,0.4V73
		z"/>
	<path class="st2" d="M236,72.2c-1.3,0.5-2.5,0.9-3.5,1.2c-1,0.3-2.1,0.4-3.4,0.4c-2.2,0-4-0.5-5.3-1.6c-1.3-1-2.2-2.5-2.5-4.5H221
		c-1.8,2-3.8,3.6-5.9,4.7c-2.1,1.1-4.7,1.6-7.6,1.6c-3.1,0-5.7-1-7.8-2.9c-2-1.9-3-4.4-3-7.6c0-1.6,0.2-3.1,0.7-4.3
		c0.5-1.3,1.1-2.4,2-3.4c0.7-0.8,1.6-1.6,2.8-2.3c1.2-0.7,2.3-1.2,3.3-1.6c1.3-0.5,3.9-1.4,7.8-2.7s6.5-2.3,7.9-3.1V42
		c0-0.4-0.1-1.1-0.2-2.1s-0.5-2-1-3c-0.6-1-1.4-2-2.4-2.7S215,33,213.1,33c-1.3,0-2.5,0.2-3.6,0.7c-1.1,0.4-1.9,0.9-2.4,1.4
		c0,0.6,0.1,1.4,0.4,2.5c0.3,1.1,0.4,2.1,0.4,3.1c0,1-0.4,1.9-1.3,2.7c-0.9,0.8-2.1,1.2-3.7,1.2c-1.4,0-2.5-0.5-3.1-1.5
		c-0.7-1-1-2.1-1-3.4c0-1.3,0.5-2.5,1.4-3.7c0.9-1.2,2.1-2.3,3.6-3.2c1.3-0.8,2.8-1.5,4.6-2c1.8-0.6,3.6-0.8,5.3-0.8
		c2.4,0,4.5,0.2,6.2,0.5c1.8,0.3,3.4,1,4.8,2.1c1.4,1,2.5,2.5,3.3,4.3c0.8,1.8,1.1,4.1,1.1,6.9c0,4.1,0,7.6-0.1,10.8
		s-0.1,6.5-0.1,10.3c0,1.1,0.2,2,0.6,2.6c0.4,0.7,1,1.2,1.8,1.7c0.4,0.3,1.1,0.4,2,0.4s1.9,0,2.8,0V72.2z M221.2,49.8
		c-2.4,0.7-4.5,1.4-6.3,2.1c-1.8,0.7-3.5,1.5-5.1,2.6c-1.4,1-2.5,2.1-3.4,3.4c-0.8,1.3-1.2,2.9-1.2,4.7c0,2.4,0.6,4.1,1.8,5.2
		c1.2,1.1,2.8,1.7,4.7,1.7c2,0,3.8-0.5,5.3-1.5s2.8-2.1,3.9-3.5L221.2,49.8z"/>
	<path class="st2" d="M267.8,52.5c1.2,1,2.1,2.2,2.7,3.5c0.6,1.3,0.9,3,0.9,4.9c0,3.9-1.5,7.1-4.4,9.5c-2.9,2.5-6.7,3.7-11.3,3.7
		c-2.4,0-4.7-0.4-6.7-1.3c-2.1-0.9-3.5-1.7-4.4-2.4l-0.8,2.8h-3.2l-0.4-14.6h2.9c0.2,1.1,0.7,2.4,1.4,3.9c0.7,1.5,1.6,2.8,2.7,4
		c1.1,1.3,2.4,2.3,4,3.2c1.5,0.9,3.3,1.3,5.2,1.3c2.7,0,4.8-0.6,6.3-1.9c1.5-1.2,2.2-3,2.2-5.3c0-1.2-0.2-2.2-0.7-3.1
		c-0.5-0.9-1.2-1.6-2.1-2.3c-0.9-0.7-2.1-1.2-3.4-1.8c-1.4-0.5-2.9-1-4.5-1.5c-1.3-0.4-2.8-0.9-4.4-1.6s-3-1.5-4.2-2.4
		c-1.2-1-2.3-2.2-3.1-3.7c-0.8-1.4-1.2-3.1-1.2-5.1c0-3.4,1.3-6.3,3.8-8.7s6-3.6,10.2-3.6c1.6,0,3.3,0.2,5,0.6
		c1.7,0.4,3.1,0.9,4.2,1.5l1-2.2h3.1l0.6,13.5h-2.9c-0.6-3-1.9-5.5-3.8-7.4c-2-1.9-4.4-2.8-7.2-2.8c-2.3,0-4.1,0.6-5.5,1.8
		c-1.3,1.2-2,2.6-2,4.2c0,1.3,0.2,2.3,0.7,3.2s1.1,1.6,2,2.2c0.8,0.6,1.9,1.1,3.2,1.6s2.9,1.1,4.8,1.7c1.9,0.6,3.6,1.3,5.3,2.1
		C265.4,50.6,266.8,51.5,267.8,52.5z"/>
	<path class="st2" d="M305.4,52.5c1.2,1,2.1,2.2,2.7,3.5c0.6,1.3,0.9,3,0.9,4.9c0,3.9-1.5,7.1-4.4,9.5c-2.9,2.5-6.7,3.7-11.3,3.7
		c-2.4,0-4.7-0.4-6.7-1.3c-2.1-0.9-3.5-1.7-4.4-2.4l-0.8,2.8h-3.2l-0.4-14.6h2.9c0.2,1.1,0.7,2.4,1.4,3.9c0.7,1.5,1.6,2.8,2.7,4
		c1.1,1.3,2.4,2.3,4,3.2c1.5,0.9,3.3,1.3,5.2,1.3c2.7,0,4.8-0.6,6.3-1.9c1.5-1.2,2.2-3,2.2-5.3c0-1.2-0.2-2.2-0.7-3.1
		c-0.5-0.9-1.2-1.6-2.1-2.3c-0.9-0.7-2.1-1.2-3.4-1.8c-1.4-0.5-2.9-1-4.5-1.5c-1.3-0.4-2.8-0.9-4.4-1.6s-3-1.5-4.2-2.4
		c-1.2-1-2.3-2.2-3.1-3.7c-0.8-1.4-1.2-3.1-1.2-5.1c0-3.4,1.3-6.3,3.8-8.7s6-3.6,10.2-3.6c1.6,0,3.3,0.2,5,0.6
		c1.7,0.4,3.1,0.9,4.2,1.5l1-2.2h3.1l0.6,13.5h-2.9c-0.6-3-1.9-5.5-3.8-7.4c-2-1.9-4.4-2.8-7.2-2.8c-2.3,0-4.1,0.6-5.5,1.8
		c-1.3,1.2-2,2.6-2,4.2c0,1.3,0.2,2.3,0.7,3.2s1.1,1.6,2,2.2c0.8,0.6,1.9,1.1,3.2,1.6s2.9,1.1,4.8,1.7c1.9,0.6,3.6,1.3,5.3,2.1
		C303,50.6,304.4,51.5,305.4,52.5z"/>
	<path class="st2" d="M383.6,27.6c0,3.1-0.6,5.9-1.8,8.3c-1.2,2.4-2.9,4.4-5.1,6c-2.2,1.6-4.5,2.7-7.1,3.5c-2.6,0.7-5.3,1.1-8.2,1.1
		h-6.8v18.3c0,1,0.2,1.9,0.5,2.6c0.3,0.8,1,1.3,2,1.7c0.5,0.2,1.4,0.4,2.7,0.6s2.5,0.3,3.5,0.3v3h-25.9v-3c0.7-0.1,1.7-0.2,3-0.3
		s2.2-0.3,2.7-0.6c0.8-0.4,1.5-0.9,1.8-1.6c0.4-0.7,0.6-1.6,0.6-2.7V21.3c0-1-0.1-1.9-0.4-2.7c-0.3-0.8-0.9-1.4-2-1.8
		c-1.1-0.4-2.1-0.6-3.2-0.8c-1.1-0.2-2-0.3-2.7-0.3v-3h27.5c5.6,0,10.2,1.4,13.7,4.1C381.9,19.5,383.6,23.1,383.6,27.6z M370.7,37.9
		c1-1.4,1.6-2.8,1.9-4.2c0.3-1.5,0.5-2.8,0.5-3.9c0-1.6-0.2-3.3-0.6-4.9c-0.4-1.7-1-3.1-2-4.4c-1-1.3-2.3-2.4-3.9-3.1
		s-3.6-1.1-6-1.1h-6v26.6h4.3c3.1,0,5.5-0.5,7.5-1.4C368.3,40.5,369.7,39.3,370.7,37.9z"/>
	<path class="st2" d="M421.5,36.5c0,1.4-0.4,2.7-1.1,3.8c-0.7,1.1-1.8,1.7-3.3,1.7c-1.6,0-2.8-0.4-3.6-1.2s-1.3-1.7-1.3-2.7
		c0-0.6,0-1.2,0.1-1.7s0.2-1,0.3-1.5c-1.3,0-2.9,0.5-4.7,1.6s-3.3,2.6-4.5,4.6v24.4c0,1,0.2,1.8,0.6,2.4c0.4,0.6,1,1.1,1.8,1.4
		c0.7,0.3,1.6,0.5,2.7,0.6c1.1,0.1,2.1,0.2,2.9,0.3V73h-22.1v-2.8c0.7-0.1,1.3-0.1,2-0.2s1.3-0.2,1.8-0.3c0.8-0.3,1.4-0.7,1.8-1.3
		c0.4-0.6,0.6-1.5,0.6-2.5V40c0-0.9-0.2-1.7-0.6-2.6c-0.4-0.8-1-1.5-1.7-2c-0.5-0.3-1.2-0.6-1.9-0.7c-0.7-0.2-1.5-0.3-2.4-0.3v-2.8
		l13.9-0.9l0.6,0.6v5.9h0.2c1.8-2.3,3.7-4,5.9-5.2c2.2-1.2,4.1-1.8,5.9-1.8c1.8,0,3.2,0.6,4.4,1.7C420.9,33,421.5,34.5,421.5,36.5z"
		/>
	<path class="st2" d="M465.9,51.6c0,2.9-0.5,5.8-1.4,8.7c-0.9,2.8-2.3,5.3-4,7.2c-2,2.3-4.2,4-6.8,5.1c-2.6,1.1-5.5,1.7-8.7,1.7
		c-2.7,0-5.2-0.5-7.6-1.5c-2.4-1-4.5-2.5-6.4-4.4c-1.8-1.9-3.3-4.2-4.4-6.9c-1.1-2.7-1.6-5.8-1.6-9.2c0-6.5,1.9-11.9,5.7-16.1
		c3.8-4.2,8.8-6.2,15-6.2c5.9,0,10.7,2,14.5,5.9C464,39.8,465.9,45.1,465.9,51.6z M457.1,51.7c0-2.1-0.2-4.4-0.6-6.7
		c-0.4-2.4-1.1-4.4-1.9-6c-0.9-1.8-2.1-3.2-3.6-4.2c-1.5-1.1-3.3-1.6-5.4-1.6c-2.2,0-4,0.5-5.6,1.6c-1.5,1.1-2.8,2.5-3.8,4.4
		c-0.9,1.7-1.5,3.7-1.9,5.9s-0.6,4.3-0.6,6.4c0,2.7,0.2,5.2,0.7,7.5c0.4,2.3,1.1,4.4,2.1,6.2c1,1.8,2.2,3.2,3.6,4.3
		c1.5,1,3.3,1.6,5.4,1.6c3.5,0,6.4-1.7,8.4-5.1C456.1,62.5,457.1,57.7,457.1,51.7z"/>
	<path class="st2" d="M517.8,72.2l-14.7,0.9l-0.6-0.6v-3.9l-0.3-0.1c-1.5,1.6-3.3,3-5.5,4c-2.2,1-4.4,1.6-6.7,1.6
		c-2.4,0-4.7-0.5-6.9-1.6c-2.2-1.1-4.2-2.6-5.8-4.5c-1.7-2-3-4.3-4-7.1c-1-2.7-1.5-5.8-1.5-9.1c0-3,0.5-5.9,1.6-8.6s2.5-5.1,4.3-7.1
		c1.7-1.9,3.8-3.4,6.3-4.5c2.5-1.1,5.1-1.7,7.7-1.7c2,0,3.9,0.2,5.7,0.7s3.5,1.1,4.9,1.9V18c0-1.2-0.2-2.3-0.6-3.3
		c-0.4-1-0.9-1.7-1.7-2.2c-0.8-0.5-1.9-0.9-3.2-1.2c-1.3-0.2-2.8-0.4-4.4-0.5V8.2l17.2-0.9l0.6,0.6v56.5c0,1,0.2,1.8,0.6,2.5
		c0.4,0.7,0.9,1.3,1.7,1.8c0.5,0.3,1.3,0.6,2.3,0.6s2,0.1,2.8,0.2V72.2z M502.5,64.9V40.4c-0.2-0.7-0.6-1.5-1.1-2.4
		s-1.1-1.6-1.9-2.3c-0.8-0.7-1.8-1.3-2.9-1.8c-1.1-0.5-2.4-0.7-3.9-0.7c-1.7,0-3.3,0.4-4.7,1.3c-1.4,0.9-2.7,2.1-3.8,3.8
		c-1,1.6-1.9,3.6-2.5,6.1c-0.6,2.5-0.9,5.2-0.9,8.1c0,2.4,0.2,4.5,0.7,6.5c0.5,1.9,1.2,3.7,2.3,5.4c1,1.6,2.3,2.9,3.8,3.8
		c1.5,1,3.4,1.4,5.5,1.4c2.3,0,4.1-0.5,5.6-1.5S501.4,66.1,502.5,64.9z"/>
	<path class="st2" d="M566.8,72.2l-13.7,0.9l-0.6-0.6v-5.3h-0.3c-0.7,0.7-1.4,1.5-2.3,2.3c-0.8,0.8-1.8,1.5-2.9,2.2
		c-1.3,0.8-2.5,1.3-3.7,1.7s-2.9,0.6-5,0.6c-3.7,0-6.5-1.2-8.5-3.6c-1.9-2.4-2.9-5.9-2.9-10.5v-20c0-1-0.2-1.9-0.6-2.6
		c-0.4-0.7-0.9-1.3-1.7-1.8c-0.5-0.3-1.2-0.6-1.9-0.7c-0.8-0.2-1.6-0.3-2.4-0.3v-2.8l14-1l0.6,0.6v29.1c0,3,0.7,5.3,2,6.8
		s3,2.3,4.9,2.3c1.6,0,2.9-0.2,4.2-0.7s2.2-1,3.1-1.7c0.8-0.6,1.4-1.2,2-1.9c0.6-0.7,1-1.3,1.3-1.8V39.6c0-0.9-0.2-1.8-0.6-2.5
		c-0.4-0.7-0.9-1.3-1.7-1.8c-0.5-0.3-1.3-0.5-2.3-0.6s-2.1-0.1-3.4-0.2v-2.8l15.2-1l0.6,0.6v33.2c0,1,0.2,1.8,0.6,2.5
		c0.4,0.7,0.9,1.3,1.7,1.7c0.5,0.3,1.1,0.5,1.8,0.6s1.5,0.2,2.3,0.2V72.2z"/>
	<path class="st2" d="M591.3,74.1c-6.1,0-10.8-2-14.2-6c-3.4-4-5.1-9.4-5.1-16.2c0-2.9,0.5-5.7,1.4-8.3c0.9-2.6,2.3-4.9,4-7
		c1.7-2,3.8-3.6,6.3-4.9c2.5-1.2,5.3-1.8,8.2-1.8c4.1,0,7.4,1,10,3c2.6,2,3.9,4.7,3.9,8.1c0,1.4-0.3,2.7-1,3.8
		c-0.7,1.1-1.8,1.6-3.4,1.6c-1.7,0-3-0.4-3.9-1.3s-1.4-1.8-1.4-2.8c0-1.3,0.2-2.6,0.5-3.9s0.5-2.3,0.6-2.9c-0.5-0.9-1.3-1.5-2.3-1.8
		c-1-0.3-2.1-0.4-3.2-0.4c-1.4,0-2.6,0.3-3.9,0.9c-1.2,0.6-2.4,1.6-3.6,3.2c-1,1.4-1.9,3.3-2.5,5.7s-1,5.3-1,8.6
		c0,5.3,1.2,9.6,3.5,12.9c2.3,3.3,5.4,5,9.2,5c2.7,0,5-0.7,6.9-2c1.9-1.3,3.6-3.3,5.2-6l2.7,1.8c-1.9,3.3-4.3,6-7.4,7.9
		C597.7,73.1,594.6,74.1,591.3,74.1z"/>
	<path class="st2" d="M637.3,71.2c-1.8,0.8-3.6,1.4-5.2,1.9c-1.6,0.5-3.7,0.8-6,0.8c-3.5,0-6-0.9-7.4-2.7s-2.1-4.3-2.1-7.5V35.4H609
		v-4.1h7.7v-13h7.7v13h12v4.1h-11.9v23.4c0,1.8,0.1,3.2,0.2,4.4c0.1,1.2,0.4,2.2,0.9,3.1c0.5,0.8,1.1,1.4,2,1.9
		c0.9,0.4,2.1,0.6,3.7,0.6c0.7,0,1.7-0.1,3.1-0.2c1.4-0.1,2.3-0.3,2.9-0.5V71.2z"/>
	<path class="st2" d="M661.8,73h-20.2v-2.8c0.7-0.1,1.3-0.1,2-0.2s1.3-0.2,1.8-0.3c0.8-0.3,1.4-0.7,1.8-1.3c0.4-0.6,0.6-1.5,0.6-2.5
		V40c0-0.9-0.2-1.7-0.6-2.5c-0.4-0.7-1-1.4-1.7-1.9c-0.5-0.3-1.3-0.6-2.3-0.9s-2-0.4-2.8-0.4v-2.8l14.8-0.9l0.6,0.6v34.2
		c0,1,0.2,1.8,0.6,2.5c0.4,0.7,1,1.1,1.8,1.4c0.6,0.3,1.2,0.5,1.8,0.6s1.3,0.3,2,0.3V73z M656.5,14.1c0,1.6-0.5,3-1.6,4.2
		c-1.1,1.2-2.4,1.8-3.9,1.8c-1.4,0-2.7-0.6-3.8-1.7c-1.1-1.1-1.6-2.5-1.6-3.9c0-1.6,0.5-2.9,1.6-4.1c1.1-1.2,2.3-1.7,3.8-1.7
		c1.6,0,2.9,0.5,4,1.6C656,11.4,656.5,12.6,656.5,14.1z"/>
	<path class="st2" d="M707.9,51.6c0,2.9-0.5,5.8-1.4,8.7c-0.9,2.8-2.3,5.3-4,7.2c-2,2.3-4.2,4-6.8,5.1c-2.6,1.1-5.5,1.7-8.7,1.7
		c-2.7,0-5.2-0.5-7.6-1.5c-2.4-1-4.5-2.5-6.4-4.4c-1.8-1.9-3.3-4.2-4.4-6.9c-1.1-2.7-1.6-5.8-1.6-9.2c0-6.5,1.9-11.9,5.7-16.1
		c3.8-4.2,8.8-6.2,15-6.2c5.9,0,10.7,2,14.5,5.9C705.9,39.8,707.9,45.1,707.9,51.6z M699.1,51.7c0-2.1-0.2-4.4-0.6-6.7
		c-0.4-2.4-1.1-4.4-1.9-6c-0.9-1.8-2.1-3.2-3.6-4.2c-1.5-1.1-3.3-1.6-5.4-1.6c-2.2,0-4,0.5-5.6,1.6c-1.5,1.1-2.8,2.5-3.8,4.4
		c-0.9,1.7-1.5,3.7-1.9,5.9s-0.6,4.3-0.6,6.4c0,2.7,0.2,5.2,0.7,7.5c0.4,2.3,1.1,4.4,2.1,6.2c1,1.8,2.2,3.2,3.6,4.3
		c1.5,1,3.3,1.6,5.4,1.6c3.5,0,6.4-1.7,8.4-5.1C698,62.5,699.1,57.7,699.1,51.7z"/>
	<path class="st2" d="M760.1,73h-20.5v-2.8c0.7-0.1,1.4-0.1,2.1-0.2s1.4-0.2,1.9-0.3c0.8-0.3,1.4-0.7,1.8-1.3
		c0.4-0.6,0.6-1.5,0.6-2.5V44.3c0-3-0.7-5.3-2.1-6.9c-1.4-1.6-3.1-2.4-5.1-2.4c-1.5,0-2.9,0.2-4.1,0.7c-1.2,0.5-2.4,1-3.3,1.7
		c-0.9,0.7-1.7,1.4-2.2,2.1s-1,1.4-1.2,1.8v24.1c0,1,0.2,1.8,0.6,2.4c0.4,0.6,1,1.1,1.8,1.4c0.6,0.3,1.2,0.5,1.9,0.6
		c0.7,0.1,1.4,0.2,2.1,0.3V73h-20.5v-2.8c0.7-0.1,1.3-0.1,2-0.2s1.3-0.2,1.8-0.3c0.8-0.3,1.4-0.7,1.8-1.3c0.4-0.6,0.6-1.5,0.6-2.5
		V40c0-1-0.2-1.8-0.6-2.7c-0.4-0.8-1-1.5-1.7-2c-0.5-0.3-1.2-0.6-1.9-0.7c-0.7-0.2-1.5-0.3-2.4-0.3v-2.8l13.9-0.9l0.6,0.6v5.9h0.2
		c0.7-0.7,1.5-1.5,2.5-2.4c1-0.9,2-1.7,2.9-2.3c1-0.7,2.3-1.2,3.7-1.7c1.4-0.5,3.1-0.7,4.9-0.7c4,0,7,1.3,8.9,3.8
		c1.9,2.5,2.9,5.8,2.9,10v21.8c0,1,0.2,1.8,0.5,2.4s0.9,1.1,1.7,1.4c0.7,0.3,1.3,0.5,1.8,0.6c0.5,0.1,1.2,0.2,2.1,0.3V73z"/>
</g>
<g class="st0">
	<path class="st2" d="M304.1,147.4c-7-2-12.1-4.5-15.3-7.4c-3.2-2.9-4.8-6.5-4.8-10.9c0-4.9,1.9-8.9,5.8-12.1
		c3.9-3.2,9-4.8,15.2-4.8c4.2,0,8,0.8,11.4,2.5c3.3,1.6,5.9,3.9,7.7,6.8c1.8,2.9,2.7,6,2.7,9.5h-8.2c0-3.8-1.2-6.7-3.6-8.8
		c-2.4-2.1-5.7-3.2-10.1-3.2c-4,0-7.2,0.9-9.4,2.7c-2.3,1.8-3.4,4.2-3.4,7.4c0,2.5,1.1,4.7,3.2,6.4c2.1,1.7,5.8,3.3,10.9,4.8
		c5.1,1.4,9.2,3,12.1,4.8c2.9,1.7,5.1,3.8,6.5,6.1c1.4,2.3,2.1,5.1,2.1,8.2c0,5-2,9-5.9,12c-3.9,3-9.1,4.5-15.7,4.5
		c-4.2,0-8.2-0.8-11.9-2.4c-3.7-1.6-6.5-3.9-8.5-6.7c-2-2.8-3-6-3-9.6h8.2c0,3.7,1.4,6.7,4.1,8.9c2.8,2.2,6.4,3.2,11.1,3.2
		c4.3,0,7.6-0.9,9.9-2.6s3.4-4.1,3.4-7.2s-1.1-5.4-3.2-7C313.5,150.7,309.7,149,304.1,147.4z"/>
	<path class="st2" d="M334.2,151.6c0-4.5,0.9-8.6,2.7-12.2c1.8-3.6,4.2-6.4,7.4-8.3c3.2-2,6.8-2.9,10.8-2.9c6.3,0,11.3,2.2,15.2,6.5
		c3.9,4.3,5.8,10.1,5.8,17.3v0.6c0,4.5-0.9,8.5-2.6,12s-4.2,6.3-7.3,8.3c-3.2,2-6.8,3-11,3c-6.2,0-11.3-2.2-15.1-6.5
		c-3.9-4.3-5.8-10.1-5.8-17.2V151.6z M342.1,152.5c0,5.1,1.2,9.2,3.5,12.3c2.4,3.1,5.5,4.6,9.5,4.6c4,0,7.2-1.6,9.5-4.7
		c2.4-3.1,3.5-7.5,3.5-13.1c0-5-1.2-9.1-3.6-12.3c-2.4-3.1-5.6-4.7-9.5-4.7c-3.9,0-7,1.5-9.4,4.6
		C343.3,142.4,342.1,146.8,342.1,152.5z"/>
	<path class="st2" d="M394.4,175h-7.9v-65.2h7.9V175z"/>
	<path class="st2" d="M435.4,170.4c-3.1,3.6-7.5,5.4-13.5,5.4c-4.9,0-8.6-1.4-11.2-4.3c-2.6-2.8-3.9-7.1-3.9-12.6V129h7.9v29.7
		c0,7,2.8,10.4,8.5,10.4c6,0,10-2.2,12-6.7V129h7.9v46h-7.5L435.4,170.4z"/>
	<path class="st2" d="M465.6,117.9V129h8.6v6.1h-8.6v28.5c0,1.8,0.4,3.2,1.1,4.1c0.8,0.9,2.1,1.4,3.9,1.4c0.9,0,2.2-0.2,3.7-0.5v6.3
		c-2.1,0.6-4.1,0.8-6,0.8c-3.5,0-6.2-1.1-7.9-3.2c-1.8-2.1-2.7-5.1-2.7-9v-28.5h-8.4V129h8.4v-11.1H465.6z"/>
	<path class="st2" d="M483.4,116.8c0-1.3,0.4-2.3,1.2-3.2c0.8-0.9,1.9-1.3,3.5-1.3s2.7,0.4,3.5,1.3c0.8,0.9,1.2,2,1.2,3.2
		c0,1.3-0.4,2.3-1.2,3.2s-2,1.3-3.5,1.3s-2.7-0.4-3.5-1.3C483.8,119.2,483.4,118.1,483.4,116.8z M491.9,175H484v-46h7.9V175z"/>
	<path class="st2" d="M502.4,151.6c0-4.5,0.9-8.6,2.7-12.2c1.8-3.6,4.2-6.4,7.4-8.3c3.2-2,6.8-2.9,10.8-2.9c6.3,0,11.3,2.2,15.2,6.5
		c3.9,4.3,5.8,10.1,5.8,17.3v0.6c0,4.5-0.9,8.5-2.6,12c-1.7,3.6-4.2,6.3-7.3,8.3c-3.2,2-6.8,3-11,3c-6.2,0-11.3-2.2-15.1-6.5
		c-3.9-4.3-5.8-10.1-5.8-17.2V151.6z M510.3,152.5c0,5.1,1.2,9.2,3.5,12.3c2.4,3.1,5.5,4.6,9.5,4.6c4,0,7.2-1.6,9.5-4.7
		c2.4-3.1,3.5-7.5,3.5-13.1c0-5-1.2-9.1-3.6-12.3c-2.4-3.1-5.6-4.7-9.5-4.7c-3.9,0-7,1.5-9.4,4.6
		C511.5,142.4,510.3,146.8,510.3,152.5z"/>
	<path class="st2" d="M561.5,129l0.3,5.8c3.5-4.4,8.1-6.6,13.8-6.6c9.7,0,14.6,5.5,14.7,16.4V175h-7.9v-30.4c0-3.3-0.8-5.8-2.3-7.3
		c-1.5-1.6-3.8-2.4-6.9-2.4c-2.5,0-4.8,0.7-6.7,2s-3.4,3.1-4.5,5.4V175h-7.9v-46H561.5z"/>
</g>
</svg>
