<?xml version="1.0" encoding="utf-8"?>
<!-- Generator: Adobe Illustrator 26.5.0, SVG Export Plug-In . SVG Version: 6.00 Build 0)  -->
<svg version="1.1" xmlns="http://www.w3.org/2000/svg" xmlns:xlink="http://www.w3.org/1999/xlink" x="0px" y="0px"
	 viewBox="0 0 1486.4 190" style="enable-background:new 0 0 1486.4 190;" xml:space="preserve">
<style type="text/css">
	.st0{display:none;}
	.st1{display:inline;enable-background:new    ;}
	.st2{fill:#003174;}
	.st3{enable-background:new    ;}
	.st4{fill:#082AB7;}
</style>
<g id="레이어_1" class="st0">
	<g class="st1">
		<path class="st2" d="M495.1,73h-26.6v-3c1,0,2.2-0.1,3.7-0.3c1.5-0.2,2.6-0.4,3.1-0.7c0.9-0.5,1.5-1.2,1.9-1.8
			c0.4-0.7,0.6-1.6,0.6-2.6V20.7h-0.6L456.7,72h-2.1L435,19.6h-0.6v36c0,3.5,0.2,6.1,0.7,7.9c0.4,1.8,1.1,3.1,2,3.9
			c0.6,0.6,1.9,1.2,3.9,1.7s3.2,0.8,3.8,0.8v3h-24.3v-3c1.3-0.1,2.6-0.3,4-0.6c1.4-0.3,2.5-0.8,3.2-1.4c1-0.8,1.7-2,2-3.7
			c0.4-1.6,0.6-4.4,0.6-8.2V25.2c0-1.8-0.2-3.2-0.6-4.4c-0.4-1.2-1-2.1-1.8-2.8c-0.9-0.8-2-1.3-3.2-1.7c-1.3-0.4-2.5-0.6-3.8-0.6v-3
			h20.6L458.7,58l14.7-37.9c0.5-1.4,1-2.8,1.4-4.4c0.4-1.5,0.6-2.5,0.6-3h19.7v3c-0.8,0-1.8,0.2-3,0.4c-1.2,0.2-2.1,0.4-2.7,0.6
			c-1,0.3-1.6,0.9-2,1.7s-0.5,1.7-0.5,2.6v43.5c0,1,0.2,1.8,0.5,2.5c0.3,0.7,1,1.3,2,1.8c0.5,0.3,1.4,0.5,2.7,0.8
			c1.3,0.2,2.3,0.4,3.1,0.4v3H495.1z"/>
		<path class="st2" d="M541.8,72.2c-1.3,0.5-2.5,0.9-3.5,1.2c-1,0.3-2.1,0.4-3.4,0.4c-2.2,0-4-0.5-5.3-1.6c-1.3-1-2.2-2.5-2.5-4.5
			h-0.3c-1.8,2-3.8,3.6-5.9,4.7c-2.1,1.1-4.7,1.6-7.6,1.6c-3.1,0-5.7-1-7.8-2.9c-2-1.9-3-4.4-3-7.6c0-1.6,0.2-3.1,0.7-4.3
			c0.5-1.3,1.1-2.4,2-3.4c0.7-0.8,1.6-1.6,2.8-2.3c1.2-0.7,2.3-1.2,3.3-1.6c1.3-0.5,3.9-1.4,7.8-2.7s6.5-2.3,7.9-3.1V42
			c0-0.4-0.1-1.1-0.2-2.1s-0.5-2-1-3c-0.6-1-1.4-2-2.4-2.7s-2.6-1.2-4.5-1.2c-1.3,0-2.5,0.2-3.6,0.7c-1.1,0.4-1.9,0.9-2.4,1.4
			c0,0.6,0.1,1.4,0.4,2.5s0.4,2.1,0.4,3.1s-0.4,1.9-1.3,2.7c-0.9,0.8-2.1,1.2-3.7,1.2c-1.4,0-2.5-0.5-3.1-1.5c-0.7-1-1-2.1-1-3.4
			c0-1.3,0.5-2.5,1.4-3.7s2.1-2.3,3.6-3.2c1.3-0.8,2.8-1.5,4.6-2c1.8-0.6,3.6-0.8,5.3-0.8c2.4,0,4.5,0.2,6.2,0.5
			c1.8,0.3,3.4,1,4.8,2.1c1.4,1,2.5,2.5,3.3,4.3s1.1,4.1,1.1,6.9c0,4.1,0,7.6-0.1,10.8c-0.1,3.2-0.1,6.5-0.1,10.3
			c0,1.1,0.2,2,0.6,2.6c0.4,0.7,1,1.2,1.8,1.7c0.4,0.3,1.1,0.4,2,0.4c0.9,0,1.9,0,2.8,0L541.8,72.2L541.8,72.2z M527,49.8
			c-2.4,0.7-4.5,1.4-6.3,2.1c-1.8,0.7-3.5,1.5-5.1,2.6c-1.4,1-2.5,2.1-3.4,3.4c-0.8,1.3-1.2,2.9-1.2,4.7c0,2.4,0.6,4.1,1.8,5.2
			s2.8,1.7,4.7,1.7c2,0,3.8-0.5,5.3-1.5s2.8-2.1,3.9-3.5L527,49.8z"/>
		<path class="st2" d="M573.6,52.5c1.2,1,2.1,2.2,2.7,3.5c0.6,1.3,0.9,3,0.9,4.9c0,3.9-1.5,7.1-4.4,9.5c-2.9,2.5-6.7,3.7-11.3,3.7
			c-2.4,0-4.7-0.4-6.7-1.3c-2.1-0.9-3.5-1.7-4.4-2.4l-0.8,2.8h-3.2L546,58.6h2.9c0.2,1.1,0.7,2.4,1.4,3.9s1.6,2.8,2.7,4
			c1.1,1.3,2.4,2.3,4,3.2c1.5,0.9,3.3,1.3,5.2,1.3c2.7,0,4.8-0.6,6.3-1.9c1.5-1.2,2.2-3,2.2-5.3c0-1.2-0.2-2.2-0.7-3.1
			c-0.5-0.9-1.2-1.6-2.1-2.3c-0.9-0.7-2.1-1.2-3.4-1.8c-1.4-0.5-2.9-1-4.5-1.5c-1.3-0.4-2.8-0.9-4.4-1.6s-3-1.5-4.2-2.4
			c-1.2-1-2.3-2.2-3.1-3.7c-0.8-1.4-1.2-3.1-1.2-5.1c0-3.4,1.3-6.3,3.8-8.7s6-3.6,10.2-3.6c1.6,0,3.3,0.2,5,0.6s3.1,0.9,4.2,1.5
			l1-2.2h3.1l0.6,13.5h-2.9c-0.6-3-1.9-5.5-3.8-7.4c-2-1.9-4.4-2.8-7.2-2.8c-2.3,0-4.1,0.6-5.5,1.8c-1.3,1.2-2,2.6-2,4.2
			c0,1.3,0.2,2.3,0.7,3.2s1.1,1.6,2,2.2c0.8,0.6,1.9,1.1,3.2,1.6s2.9,1.1,4.8,1.7c1.9,0.6,3.6,1.3,5.3,2.1
			C571.2,50.6,572.6,51.5,573.6,52.5z"/>
		<path class="st2" d="M611.2,52.5c1.2,1,2.1,2.2,2.7,3.5c0.6,1.3,0.9,3,0.9,4.9c0,3.9-1.5,7.1-4.4,9.5c-2.9,2.5-6.7,3.7-11.3,3.7
			c-2.4,0-4.7-0.4-6.7-1.3c-2.1-0.9-3.5-1.7-4.4-2.4l-0.8,2.8H584l-0.4-14.6h2.9c0.2,1.1,0.7,2.4,1.4,3.9c0.7,1.5,1.6,2.8,2.7,4
			c1.1,1.3,2.4,2.3,4,3.2c1.5,0.9,3.3,1.3,5.2,1.3c2.7,0,4.8-0.6,6.3-1.9c1.5-1.2,2.2-3,2.2-5.3c0-1.2-0.2-2.2-0.7-3.1
			c-0.5-0.9-1.2-1.6-2.1-2.3c-0.9-0.7-2.1-1.2-3.4-1.8c-1.4-0.5-2.9-1-4.5-1.5c-1.3-0.4-2.8-0.9-4.4-1.6c-1.6-0.7-3-1.5-4.2-2.4
			c-1.2-1-2.3-2.2-3.1-3.7c-0.8-1.4-1.2-3.1-1.2-5.1c0-3.4,1.3-6.3,3.8-8.7s6-3.6,10.2-3.6c1.6,0,3.3,0.2,5,0.6s3.1,0.9,4.2,1.5
			l1-2.2h3.1l0.6,13.5h-2.9c-0.6-3-1.9-5.5-3.8-7.4c-2-1.9-4.4-2.8-7.2-2.8c-2.3,0-4.1,0.6-5.5,1.8c-1.3,1.2-2,2.6-2,4.2
			c0,1.3,0.2,2.3,0.7,3.2s1.1,1.6,2,2.2c0.8,0.6,1.9,1.1,3.2,1.6c1.3,0.5,2.9,1.1,4.8,1.7c1.9,0.6,3.6,1.3,5.3,2.1
			C608.8,50.6,610.2,51.5,611.2,52.5z"/>
		<path class="st2" d="M689.4,27.6c0,3.1-0.6,5.9-1.8,8.3s-2.9,4.4-5.1,6s-4.5,2.7-7.1,3.5c-2.6,0.7-5.3,1.1-8.2,1.1h-6.8v18.3
			c0,1,0.2,1.9,0.5,2.6c0.3,0.8,1,1.3,2,1.7c0.5,0.2,1.4,0.4,2.7,0.6c1.3,0.2,2.5,0.3,3.5,0.3v3h-25.9v-3c0.7-0.1,1.7-0.2,3-0.3
			s2.2-0.3,2.7-0.6c0.8-0.4,1.5-0.9,1.8-1.6c0.4-0.7,0.6-1.6,0.6-2.7V21.3c0-1-0.1-1.9-0.4-2.7c-0.3-0.8-0.9-1.4-2-1.8
			c-1.1-0.4-2.1-0.6-3.2-0.8c-1.1-0.2-2-0.3-2.7-0.3v-3h27.5c5.6,0,10.2,1.4,13.7,4.1C687.7,19.5,689.4,23.1,689.4,27.6z
			 M676.5,37.9c1-1.4,1.6-2.8,1.9-4.2c0.3-1.5,0.5-2.8,0.5-3.9c0-1.6-0.2-3.3-0.6-4.9c-0.4-1.7-1-3.1-2-4.4s-2.3-2.4-3.9-3.1
			c-1.6-0.7-3.6-1.1-6-1.1h-6v26.6h4.3c3.1,0,5.5-0.5,7.5-1.4C674.1,40.5,675.5,39.3,676.5,37.9z"/>
		<path class="st2" d="M727.3,36.5c0,1.4-0.4,2.7-1.1,3.8s-1.8,1.7-3.3,1.7c-1.6,0-2.8-0.4-3.6-1.2c-0.8-0.8-1.3-1.7-1.3-2.7
			c0-0.6,0-1.2,0.1-1.7c0.1-0.5,0.2-1,0.3-1.5c-1.3,0-2.9,0.5-4.7,1.6c-1.8,1.1-3.3,2.6-4.5,4.6v24.4c0,1,0.2,1.8,0.6,2.4
			c0.4,0.6,1,1.1,1.8,1.4c0.7,0.3,1.6,0.5,2.7,0.6c1.1,0.1,2.1,0.2,2.9,0.3V73h-22.1v-2.8c0.7-0.1,1.3-0.1,2-0.2s1.3-0.2,1.8-0.3
			c0.8-0.3,1.4-0.7,1.8-1.3c0.4-0.6,0.6-1.5,0.6-2.5V40c0-0.9-0.2-1.7-0.6-2.6c-0.4-0.8-1-1.5-1.7-2c-0.5-0.3-1.2-0.6-1.9-0.7
			c-0.7-0.2-1.5-0.3-2.4-0.3v-2.8l13.9-0.9l0.6,0.6v5.9h0.2c1.8-2.3,3.7-4,5.9-5.2c2.2-1.2,4.1-1.8,5.9-1.8s3.2,0.6,4.4,1.7
			C726.7,33,727.3,34.5,727.3,36.5z"/>
		<path class="st2" d="M771.7,51.6c0,2.9-0.5,5.8-1.4,8.7c-0.9,2.8-2.3,5.3-4,7.2c-2,2.3-4.2,4-6.8,5.1c-2.6,1.1-5.5,1.7-8.7,1.7
			c-2.7,0-5.2-0.5-7.6-1.5c-2.4-1-4.5-2.5-6.4-4.4c-1.8-1.9-3.3-4.2-4.4-6.9c-1.1-2.7-1.6-5.8-1.6-9.2c0-6.5,1.9-11.9,5.7-16.1
			c3.8-4.2,8.8-6.2,15-6.2c5.9,0,10.7,2,14.5,5.9C769.8,39.8,771.7,45.1,771.7,51.6z M762.9,51.7c0-2.1-0.2-4.4-0.6-6.7
			c-0.4-2.4-1.1-4.4-1.9-6c-0.9-1.8-2.1-3.2-3.6-4.2c-1.5-1.1-3.3-1.6-5.4-1.6c-2.2,0-4,0.5-5.6,1.6c-1.5,1.1-2.8,2.5-3.8,4.4
			c-0.9,1.7-1.5,3.7-1.9,5.9c-0.4,2.2-0.6,4.3-0.6,6.4c0,2.7,0.2,5.2,0.7,7.5c0.4,2.3,1.1,4.4,2.1,6.2c1,1.8,2.2,3.2,3.6,4.3
			c1.5,1,3.3,1.6,5.4,1.6c3.5,0,6.4-1.7,8.4-5.1C761.9,62.5,762.9,57.7,762.9,51.7z"/>
		<path class="st2" d="M823.6,72.2l-14.7,0.9l-0.6-0.6v-3.9l-0.3-0.1c-1.5,1.6-3.3,3-5.5,4s-4.4,1.6-6.7,1.6c-2.4,0-4.7-0.5-6.9-1.6
			c-2.2-1.1-4.2-2.6-5.8-4.5c-1.7-2-3-4.3-4-7.1c-1-2.7-1.5-5.8-1.5-9.1c0-3,0.5-5.9,1.6-8.6c1.1-2.7,2.5-5.1,4.3-7.1
			c1.7-1.9,3.8-3.4,6.3-4.5c2.5-1.1,5.1-1.7,7.7-1.7c2,0,3.9,0.2,5.7,0.7c1.8,0.5,3.5,1.1,4.9,1.9V18c0-1.2-0.2-2.3-0.6-3.3
			c-0.4-1-0.9-1.7-1.7-2.2c-0.8-0.5-1.9-0.9-3.2-1.2c-1.3-0.2-2.8-0.4-4.4-0.5V8.2l17.2-0.9l0.6,0.6v56.5c0,1,0.2,1.8,0.6,2.5
			c0.4,0.7,0.9,1.3,1.7,1.8c0.5,0.3,1.3,0.6,2.3,0.6s2,0.1,2.8,0.2v2.7H823.6z M808.3,64.9V40.4c-0.2-0.7-0.6-1.5-1.1-2.4
			s-1.1-1.6-1.9-2.3s-1.8-1.3-2.9-1.8c-1.1-0.5-2.4-0.7-3.9-0.7c-1.7,0-3.3,0.4-4.7,1.3c-1.4,0.9-2.7,2.1-3.8,3.8
			c-1,1.6-1.9,3.6-2.5,6.1c-0.6,2.5-0.9,5.2-0.9,8.1c0,2.4,0.2,4.5,0.7,6.5c0.5,1.9,1.2,3.7,2.3,5.4c1,1.6,2.3,2.9,3.8,3.8
			c1.5,1,3.4,1.4,5.5,1.4c2.3,0,4.1-0.5,5.6-1.5S807.2,66.1,808.3,64.9z"/>
		<path class="st2" d="M872.6,72.2l-13.7,0.9l-0.6-0.6v-5.3H858c-0.7,0.7-1.4,1.5-2.3,2.3c-0.8,0.8-1.8,1.5-2.9,2.2
			c-1.3,0.8-2.5,1.3-3.7,1.7s-2.9,0.6-5,0.6c-3.7,0-6.5-1.2-8.5-3.6c-1.9-2.4-2.9-5.9-2.9-10.5v-20c0-1-0.2-1.9-0.6-2.6
			c-0.4-0.7-0.9-1.3-1.7-1.8c-0.5-0.3-1.2-0.6-1.9-0.7c-0.8-0.2-1.6-0.3-2.4-0.3v-2.8l14-1l0.6,0.6v29.1c0,3,0.7,5.3,2,6.8
			s3,2.3,4.9,2.3c1.6,0,2.9-0.2,4.2-0.7s2.2-1,3.1-1.7c0.8-0.6,1.4-1.2,2-1.9c0.6-0.7,1-1.3,1.3-1.8V39.6c0-0.9-0.2-1.8-0.6-2.5
			c-0.4-0.7-0.9-1.3-1.7-1.8c-0.5-0.3-1.3-0.5-2.3-0.6s-2.1-0.1-3.4-0.2v-2.8l15.2-1l0.6,0.6v33.2c0,1,0.2,1.8,0.6,2.5
			c0.4,0.7,0.9,1.3,1.7,1.7c0.5,0.3,1.1,0.5,1.8,0.6s1.5,0.2,2.3,0.2v2.7H872.6z"/>
		<path class="st2" d="M897.1,74.1c-6.1,0-10.8-2-14.2-6s-5.1-9.4-5.1-16.2c0-2.9,0.5-5.7,1.4-8.3s2.3-4.9,4-7
			c1.7-2,3.8-3.6,6.3-4.9c2.5-1.2,5.3-1.8,8.2-1.8c4.1,0,7.4,1,10,3s3.9,4.7,3.9,8.1c0,1.4-0.3,2.7-1,3.8s-1.8,1.6-3.4,1.6
			c-1.7,0-3-0.4-3.9-1.3s-1.4-1.8-1.4-2.8c0-1.3,0.2-2.6,0.5-3.9s0.5-2.3,0.6-2.9c-0.5-0.9-1.3-1.5-2.3-1.8s-2.1-0.4-3.2-0.4
			c-1.4,0-2.6,0.3-3.9,0.9c-1.2,0.6-2.4,1.6-3.6,3.2c-1,1.4-1.9,3.3-2.5,5.7s-1,5.3-1,8.6c0,5.3,1.2,9.6,3.5,12.9
			c2.3,3.3,5.4,5,9.2,5c2.7,0,5-0.7,6.9-2s3.6-3.3,5.2-6l2.7,1.8c-1.9,3.3-4.3,6-7.4,7.9C903.5,73.1,900.4,74.1,897.1,74.1z"/>
		<path class="st2" d="M943.1,71.2c-1.8,0.8-3.6,1.4-5.2,1.9c-1.6,0.5-3.7,0.8-6,0.8c-3.5,0-6-0.9-7.4-2.7s-2.1-4.3-2.1-7.5V35.4
			h-7.6v-4.1h7.7v-13h7.7v13h12v4.1h-11.9v23.4c0,1.8,0.1,3.2,0.2,4.4c0.1,1.2,0.4,2.2,0.9,3.1c0.5,0.8,1.1,1.4,2,1.9
			c0.9,0.4,2.1,0.6,3.7,0.6c0.7,0,1.7-0.1,3.1-0.2c1.4-0.1,2.3-0.3,2.9-0.5L943.1,71.2L943.1,71.2z"/>
		<path class="st2" d="M967.6,73h-20.2v-2.8c0.7-0.1,1.3-0.1,2-0.2s1.3-0.2,1.8-0.3c0.8-0.3,1.4-0.7,1.8-1.3
			c0.4-0.6,0.6-1.5,0.6-2.5V40c0-0.9-0.2-1.7-0.6-2.5c-0.4-0.7-1-1.4-1.7-1.9c-0.5-0.3-1.3-0.6-2.3-0.9s-2-0.4-2.8-0.4v-2.8
			l14.8-0.9l0.6,0.6v34.2c0,1,0.2,1.8,0.6,2.5c0.4,0.7,1,1.1,1.8,1.4c0.6,0.3,1.2,0.5,1.8,0.6s1.3,0.3,2,0.3V73H967.6z M962.3,14.1
			c0,1.6-0.5,3-1.6,4.2c-1.1,1.2-2.4,1.8-3.9,1.8c-1.4,0-2.7-0.6-3.8-1.7s-1.6-2.5-1.6-3.9c0-1.6,0.5-2.9,1.6-4.1s2.3-1.7,3.8-1.7
			c1.6,0,2.9,0.5,4,1.6C961.8,11.4,962.3,12.6,962.3,14.1z"/>
		<path class="st2" d="M1013.7,51.6c0,2.9-0.5,5.8-1.4,8.7c-0.9,2.8-2.3,5.3-4,7.2c-2,2.3-4.2,4-6.8,5.1s-5.5,1.7-8.7,1.7
			c-2.7,0-5.2-0.5-7.6-1.5c-2.4-1-4.5-2.5-6.4-4.4c-1.8-1.9-3.3-4.2-4.4-6.9c-1.1-2.7-1.6-5.8-1.6-9.2c0-6.5,1.9-11.9,5.7-16.1
			s8.8-6.2,15-6.2c5.9,0,10.7,2,14.5,5.9C1011.7,39.8,1013.7,45.1,1013.7,51.6z M1004.9,51.7c0-2.1-0.2-4.4-0.6-6.7
			c-0.4-2.4-1.1-4.4-1.9-6c-0.9-1.8-2.1-3.2-3.6-4.2c-1.5-1.1-3.3-1.6-5.4-1.6c-2.2,0-4,0.5-5.6,1.6c-1.5,1.1-2.8,2.5-3.8,4.4
			c-0.9,1.7-1.5,3.7-1.9,5.9s-0.6,4.3-0.6,6.4c0,2.7,0.2,5.2,0.7,7.5c0.4,2.3,1.1,4.4,2.1,6.2c1,1.8,2.2,3.2,3.6,4.3
			c1.5,1,3.3,1.6,5.4,1.6c3.5,0,6.4-1.7,8.4-5.1C1003.8,62.5,1004.9,57.7,1004.9,51.7z"/>
		<path class="st2" d="M1065.9,73h-20.5v-2.8c0.7-0.1,1.4-0.1,2.1-0.2s1.4-0.2,1.9-0.3c0.8-0.3,1.4-0.7,1.8-1.3
			c0.4-0.6,0.6-1.5,0.6-2.5V44.3c0-3-0.7-5.3-2.1-6.9c-1.4-1.6-3.1-2.4-5.1-2.4c-1.5,0-2.9,0.2-4.1,0.7c-1.2,0.5-2.4,1-3.3,1.7
			s-1.7,1.4-2.2,2.1s-1,1.4-1.2,1.8v24.1c0,1,0.2,1.8,0.6,2.4c0.4,0.6,1,1.1,1.8,1.4c0.6,0.3,1.2,0.5,1.9,0.6
			c0.7,0.1,1.4,0.2,2.1,0.3V73h-20.5v-2.8c0.7-0.1,1.3-0.1,2-0.2s1.3-0.2,1.8-0.3c0.8-0.3,1.4-0.7,1.8-1.3c0.4-0.6,0.6-1.5,0.6-2.5
			V40c0-1-0.2-1.8-0.6-2.7c-0.4-0.8-1-1.5-1.7-2c-0.5-0.3-1.2-0.6-1.9-0.7c-0.7-0.2-1.5-0.3-2.4-0.3v-2.8l13.9-0.9l0.6,0.6v5.9h0.2
			c0.7-0.7,1.5-1.5,2.5-2.4s2-1.7,2.9-2.3c1-0.7,2.3-1.2,3.7-1.7s3.1-0.7,4.9-0.7c4,0,7,1.3,8.9,3.8s2.9,5.8,2.9,10v21.8
			c0,1,0.2,1.8,0.5,2.4c0.3,0.6,0.9,1.1,1.7,1.4c0.7,0.3,1.3,0.5,1.8,0.6s1.2,0.2,2.1,0.3V73z"/>
	</g>
	<g class="st1">
		<path class="st2" d="M609.9,147.4c-7-2-12.1-4.5-15.3-7.4s-4.8-6.5-4.8-10.9c0-4.9,1.9-8.9,5.8-12.1c3.9-3.2,9-4.8,15.2-4.8
			c4.2,0,8,0.8,11.4,2.5c3.3,1.6,5.9,3.9,7.7,6.8c1.8,2.9,2.7,6,2.7,9.5h-8.2c0-3.8-1.2-6.7-3.6-8.8c-2.4-2.1-5.7-3.2-10.1-3.2
			c-4,0-7.2,0.9-9.4,2.7c-2.3,1.8-3.4,4.2-3.4,7.4c0,2.5,1.1,4.7,3.2,6.4c2.1,1.7,5.8,3.3,10.9,4.8c5.1,1.4,9.2,3,12.1,4.8
			c2.9,1.7,5.1,3.8,6.5,6.1c1.4,2.3,2.1,5.1,2.1,8.2c0,5-2,9-5.9,12c-3.9,3-9.1,4.5-15.7,4.5c-4.2,0-8.2-0.8-11.9-2.4
			c-3.7-1.6-6.5-3.9-8.5-6.7s-3-6-3-9.6h8.2c0,3.7,1.4,6.7,4.1,8.9c2.8,2.2,6.4,3.2,11.1,3.2c4.3,0,7.6-0.9,9.9-2.6s3.4-4.1,3.4-7.2
			s-1.1-5.4-3.2-7C619.3,150.7,615.5,149,609.9,147.4z"/>
		<path class="st2" d="M640,151.6c0-4.5,0.9-8.6,2.7-12.2c1.8-3.6,4.2-6.4,7.4-8.3c3.2-2,6.8-2.9,10.8-2.9c6.3,0,11.3,2.2,15.2,6.5
			s5.8,10.1,5.8,17.3v0.6c0,4.5-0.9,8.5-2.6,12s-4.2,6.3-7.3,8.3c-3.2,2-6.8,3-11,3c-6.2,0-11.3-2.2-15.1-6.5
			c-3.9-4.3-5.8-10.1-5.8-17.2L640,151.6L640,151.6z M647.9,152.5c0,5.1,1.2,9.2,3.5,12.3c2.4,3.1,5.5,4.6,9.5,4.6s7.2-1.6,9.5-4.7
			c2.4-3.1,3.5-7.5,3.5-13.1c0-5-1.2-9.1-3.6-12.3c-2.4-3.1-5.6-4.7-9.5-4.7c-3.9,0-7,1.5-9.4,4.6
			C649.1,142.4,647.9,146.8,647.9,152.5z"/>
		<path class="st2" d="M700.2,175h-7.9v-65.2h7.9V175z"/>
		<path class="st2" d="M741.2,170.4c-3.1,3.6-7.5,5.4-13.5,5.4c-4.9,0-8.6-1.4-11.2-4.3c-2.6-2.8-3.9-7.1-3.9-12.6V129h7.9v29.7
			c0,7,2.8,10.4,8.5,10.4c6,0,10-2.2,12-6.7V129h7.9v46h-7.5L741.2,170.4z"/>
		<path class="st2" d="M771.4,117.9V129h8.6v6.1h-8.6v28.5c0,1.8,0.4,3.2,1.1,4.1c0.8,0.9,2.1,1.4,3.9,1.4c0.9,0,2.2-0.2,3.7-0.5
			v6.3c-2.1,0.6-4.1,0.8-6,0.8c-3.5,0-6.2-1.1-7.9-3.2c-1.8-2.1-2.7-5.1-2.7-9V135h-8.4v-6h8.4v-11.1H771.4z"/>
		<path class="st2" d="M789.2,116.8c0-1.3,0.4-2.3,1.2-3.2c0.8-0.9,1.9-1.3,3.5-1.3c1.6,0,2.7,0.4,3.5,1.3s1.2,2,1.2,3.2
			c0,1.3-0.4,2.3-1.2,3.2c-0.8,0.9-2,1.3-3.5,1.3s-2.7-0.4-3.5-1.3C789.6,119.2,789.2,118.1,789.2,116.8z M797.7,175h-7.9v-46h7.9
			V175z"/>
		<path class="st2" d="M808.2,151.6c0-4.5,0.9-8.6,2.7-12.2c1.8-3.6,4.2-6.4,7.4-8.3c3.2-2,6.8-2.9,10.8-2.9
			c6.3,0,11.3,2.2,15.2,6.5s5.8,10.1,5.8,17.3v0.6c0,4.5-0.9,8.5-2.6,12c-1.7,3.6-4.2,6.3-7.3,8.3c-3.2,2-6.8,3-11,3
			c-6.2,0-11.3-2.2-15.1-6.5c-3.9-4.3-5.8-10.1-5.8-17.2v-0.6H808.2z M816.1,152.5c0,5.1,1.2,9.2,3.5,12.3c2.4,3.1,5.5,4.6,9.5,4.6
			s7.2-1.6,9.5-4.7c2.4-3.1,3.5-7.5,3.5-13.1c0-5-1.2-9.1-3.6-12.3c-2.4-3.1-5.6-4.7-9.5-4.7s-7,1.5-9.4,4.6
			C817.3,142.4,816.1,146.8,816.1,152.5z"/>
		<path class="st2" d="M867.3,129l0.3,5.8c3.5-4.4,8.1-6.6,13.8-6.6c9.7,0,14.6,5.5,14.7,16.4V175h-7.9v-30.4c0-3.3-0.8-5.8-2.3-7.3
			c-1.5-1.6-3.8-2.4-6.9-2.4c-2.5,0-4.8,0.7-6.7,2s-3.4,3.1-4.5,5.4V175h-7.9v-46H867.3z"/>
	</g>
</g>
<g id="레이어_2">
	<g class="st3">
		<path class="st4" d="M77.9,73H51.3v-3c1,0,2.2-0.1,3.7-0.3c1.5-0.2,2.6-0.4,3.1-0.7c0.9-0.5,1.5-1.2,1.9-1.8
			c0.4-0.7,0.6-1.6,0.6-2.6V20.7H60L39.5,72h-2.1L17.8,19.6h-0.6v36c0,3.5,0.2,6.1,0.7,7.9c0.4,1.8,1.1,3.1,2,3.9
			c0.6,0.6,1.9,1.2,3.9,1.7c2,0.5,3.2,0.8,3.8,0.8v3H3.3v-3c1.3-0.1,2.6-0.3,4-0.6c1.4-0.3,2.5-0.8,3.2-1.4c1-0.8,1.7-2,2-3.7
			c0.4-1.6,0.6-4.4,0.6-8.2V25.2c0-1.8-0.2-3.2-0.6-4.4c-0.4-1.1-1-2.1-1.8-2.8c-0.9-0.8-2-1.3-3.2-1.7c-1.3-0.4-2.5-0.6-3.8-0.6v-3
			h20.5L41.5,58l14.7-37.8c0.5-1.4,1-2.8,1.4-4.4c0.4-1.5,0.6-2.5,0.6-3h19.6v3c-0.8,0-1.8,0.2-3,0.4c-1.2,0.2-2.1,0.4-2.7,0.6
			c-1,0.3-1.6,0.9-2,1.7c-0.3,0.8-0.5,1.7-0.5,2.6v43.4c0,1,0.2,1.8,0.5,2.5s1,1.3,2,1.8c0.5,0.3,1.4,0.5,2.7,0.8
			c1.3,0.2,2.3,0.4,3.1,0.4V73z"/>
		<path class="st4" d="M122.1,63.1c-1.8,3.3-4.1,6-7,8c-2.9,2-6.3,3-10.1,3c-3.4,0-6.3-0.6-8.9-1.8c-2.5-1.2-4.6-2.8-6.3-4.8
			c-1.6-2-2.9-4.4-3.7-7.1c-0.8-2.7-1.2-5.6-1.2-8.6c0-2.7,0.4-5.4,1.3-8c0.9-2.6,2.1-5,3.8-7.1c1.6-2,3.6-3.6,6-4.9
			c2.4-1.2,5.1-1.8,8-1.8c3.1,0,5.7,0.5,7.9,1.4c2.2,1,3.9,2.3,5.3,3.9c1.3,1.6,2.3,3.5,2.9,5.6c0.6,2.2,1,4.5,1,7v2.8H93.4
			c0,2.8,0.3,5.2,0.8,7.5c0.5,2.2,1.4,4.2,2.5,5.9c1.1,1.6,2.5,2.9,4.3,3.9s3.9,1.4,6.4,1.4c2.5,0,4.7-0.6,6.5-1.8
			c1.8-1.2,3.6-3.3,5.3-6.4L122.1,63.1z M112.7,47.2c0-1.6-0.1-3.3-0.4-5.1c-0.3-1.8-0.7-3.3-1.3-4.5c-0.7-1.3-1.5-2.4-2.7-3.2
			c-1.1-0.8-2.6-1.2-4.4-1.2c-3,0-5.4,1.2-7.4,3.7c-2,2.5-3,5.9-3.2,10.3H112.7z"/>
		<path class="st4" d="M152.8,71.2c-1.8,0.8-3.6,1.4-5.2,1.9c-1.6,0.5-3.7,0.8-6,0.8c-3.5,0-6-0.9-7.4-2.7c-1.4-1.8-2.1-4.3-2.1-7.5
			V35.4h-7.6v-4.1h7.7v-13h7.7v13h12v4.1H140v23.4c0,1.8,0.1,3.2,0.2,4.4c0.1,1.2,0.4,2.2,0.9,3.1c0.5,0.8,1.1,1.4,2,1.9
			c0.9,0.4,2.1,0.6,3.7,0.6c0.7,0,1.7-0.1,3.1-0.2c1.4-0.1,2.3-0.3,2.9-0.5V71.2z"/>
		<path class="st4" d="M196.6,72.2c-1.3,0.5-2.5,0.9-3.5,1.2c-1,0.3-2.1,0.4-3.4,0.4c-2.2,0-4-0.5-5.3-1.5c-1.3-1-2.2-2.5-2.5-4.5
			h-0.3c-1.8,2-3.8,3.6-5.9,4.7c-2.1,1.1-4.6,1.6-7.6,1.6c-3.1,0-5.7-1-7.7-2.9c-2-1.9-3-4.4-3-7.6c0-1.6,0.2-3.1,0.7-4.3
			c0.5-1.3,1.1-2.4,2-3.4c0.7-0.8,1.6-1.6,2.8-2.3c1.2-0.7,2.3-1.2,3.3-1.6c1.3-0.5,3.9-1.4,7.7-2.7c3.9-1.3,6.5-2.3,7.9-3.1V42
			c0-0.4-0.1-1.1-0.2-2.1c-0.2-1-0.5-2-1-3c-0.6-1-1.4-2-2.4-2.7c-1-0.8-2.5-1.2-4.4-1.2c-1.3,0-2.5,0.2-3.6,0.7
			c-1.1,0.4-1.9,0.9-2.4,1.4c0,0.6,0.1,1.4,0.4,2.5c0.3,1.1,0.4,2.1,0.4,3.1c0,1-0.4,1.9-1.3,2.7c-0.9,0.8-2.1,1.2-3.7,1.2
			c-1.4,0-2.5-0.5-3.1-1.5c-0.7-1-1-2.1-1-3.4c0-1.3,0.5-2.5,1.4-3.7c0.9-1.2,2.1-2.3,3.6-3.2c1.3-0.8,2.8-1.5,4.6-2
			c1.8-0.6,3.6-0.8,5.3-0.8c2.4,0,4.5,0.2,6.2,0.5c1.8,0.3,3.4,1,4.8,2.1c1.4,1,2.5,2.5,3.3,4.3c0.7,1.8,1.1,4.1,1.1,6.9
			c0,4,0,7.6-0.1,10.8c-0.1,3.1-0.1,6.5-0.1,10.3c0,1.1,0.2,2,0.6,2.6c0.4,0.7,1,1.2,1.8,1.7c0.4,0.3,1.1,0.4,2,0.4
			c0.9,0,1.9,0,2.8,0V72.2z M181.8,49.8c-2.4,0.7-4.5,1.4-6.3,2.1c-1.8,0.7-3.5,1.5-5.1,2.6c-1.4,1-2.5,2.1-3.4,3.4
			c-0.8,1.3-1.2,2.9-1.2,4.7c0,2.4,0.6,4.1,1.8,5.2s2.8,1.7,4.7,1.7c2,0,3.8-0.5,5.3-1.5s2.8-2.1,3.9-3.5L181.8,49.8z"/>
		<path class="st4" d="M252.5,55.3L251.4,73h-50v-3c0.8-0.1,2-0.2,3.4-0.4c1.4-0.2,2.3-0.4,2.8-0.6c0.9-0.4,1.5-1,1.9-1.7
			c0.4-0.7,0.5-1.5,0.5-2.6V21.5c0-0.9-0.2-1.8-0.5-2.5c-0.3-0.7-1-1.3-2-1.8c-0.8-0.4-1.8-0.7-3.1-1c-1.3-0.3-2.3-0.5-3.1-0.5v-3
			H248v14.5h-3.2c-0.6-2.1-1.8-4.4-3.7-6.9c-1.9-2.4-3.7-3.7-5.4-4c-0.9-0.1-1.9-0.2-3.1-0.3c-1.2-0.1-2.6-0.1-4.2-0.1H219v23.9h6.8
			c2.2,0,3.8-0.2,4.8-0.6c1-0.4,1.9-1.1,2.7-2.1c0.6-0.8,1.2-1.9,1.6-3.3c0.4-1.4,0.7-2.7,0.9-3.9h3.2v23.6h-3.2
			c-0.1-1.4-0.4-2.8-0.9-4.3c-0.5-1.5-1-2.6-1.5-3.3c-0.9-1.1-1.9-1.8-3-2.2c-1.1-0.3-2.6-0.5-4.4-0.5H219v18.1
			c0,1.8,0.1,3.2,0.4,4.3c0.3,1,0.7,1.8,1.5,2.4c0.7,0.5,1.7,0.9,3,1c1.3,0.2,3.1,0.2,5.4,0.2c0.9,0,2.2,0,3.7,0s2.8-0.1,3.9-0.2
			c1.1-0.1,2.2-0.3,3.3-0.6c1.1-0.3,2-0.7,2.4-1.2c1.3-1.4,2.7-3.4,4.1-6.2c1.4-2.8,2.3-4.8,2.7-6.1H252.5z"/>
		<path class="st4" d="M276.9,74.1c-6.1,0-10.8-2-14.2-6c-3.4-4-5.1-9.4-5.1-16.2c0-2.9,0.5-5.7,1.4-8.3c0.9-2.6,2.3-4.9,4-7
			c1.7-2,3.8-3.6,6.3-4.9c2.5-1.2,5.3-1.8,8.2-1.8c4.1,0,7.4,1,10,3c2.6,2,3.9,4.6,3.9,8c0,1.4-0.3,2.7-1,3.8
			c-0.7,1.1-1.8,1.6-3.4,1.6c-1.7,0-3-0.4-3.9-1.3c-0.9-0.8-1.4-1.8-1.4-2.8c0-1.3,0.2-2.6,0.5-3.9c0.3-1.3,0.5-2.3,0.6-2.9
			c-0.5-0.9-1.3-1.5-2.3-1.8c-1-0.3-2.1-0.4-3.2-0.4c-1.4,0-2.6,0.3-3.9,0.9c-1.2,0.6-2.4,1.6-3.6,3.2c-1,1.4-1.9,3.3-2.5,5.7
			c-0.6,2.4-1,5.3-1,8.6c0,5.3,1.2,9.6,3.5,12.9c2.3,3.3,5.4,5,9.2,5c2.7,0,5-0.7,6.9-2c1.9-1.3,3.6-3.3,5.1-6l2.7,1.8
			c-1.9,3.3-4.3,6-7.4,7.9S280.2,74.1,276.9,74.1z"/>
		<path class="st4" d="M337.9,51.6c0,2.9-0.5,5.8-1.4,8.7c-0.9,2.8-2.3,5.3-4,7.2c-2,2.3-4.2,3.9-6.8,5.1s-5.5,1.7-8.7,1.7
			c-2.7,0-5.2-0.5-7.6-1.5c-2.4-1-4.5-2.5-6.4-4.4c-1.8-1.9-3.3-4.2-4.4-6.9c-1.1-2.7-1.6-5.8-1.6-9.2c0-6.5,1.9-11.9,5.7-16
			c3.8-4.2,8.8-6.2,15-6.2c5.9,0,10.7,2,14.5,5.9C336,39.8,337.9,45.1,337.9,51.6z M329.1,51.7c0-2.1-0.2-4.4-0.6-6.7
			c-0.4-2.4-1.1-4.4-1.9-6c-0.9-1.8-2.1-3.2-3.6-4.2c-1.5-1.1-3.3-1.6-5.4-1.6c-2.2,0-4,0.5-5.6,1.6c-1.5,1.1-2.8,2.5-3.8,4.4
			c-0.9,1.7-1.5,3.7-1.9,5.9c-0.4,2.2-0.6,4.3-0.6,6.4c0,2.7,0.2,5.2,0.7,7.5c0.4,2.3,1.1,4.4,2.1,6.2c1,1.8,2.2,3.2,3.6,4.3
			c1.5,1,3.3,1.5,5.4,1.5c3.5,0,6.4-1.7,8.4-5.1C328.1,62.5,329.1,57.8,329.1,51.7z"/>
		<path class="st4" d="M392.5,74.4c-3.6,0-7-0.7-10.3-2.1c-3.3-1.4-6.2-3.5-8.8-6.1c-2.5-2.7-4.5-5.9-6-9.7c-1.5-3.8-2.2-8.2-2.2-13
			c0-4.8,0.7-9.2,2.2-13.1c1.5-3.9,3.5-7.3,6.1-10.1c2.6-2.8,5.6-5,9.1-6.5s7.3-2.3,11.2-2.3c3,0,5.7,0.4,8.1,1.1
			c2.4,0.7,4.7,1.8,6.9,3.1l1.7-2.9h3.4l0.4,21.5h-3.5c-0.5-2.1-1.1-4.4-2-6.8c-0.9-2.4-2-4.5-3.2-6.2c-1.4-1.9-3-3.4-4.8-4.5
			c-1.9-1.1-4-1.6-6.4-1.6c-2.7,0-5.3,0.6-7.7,1.8c-2.4,1.2-4.4,3-6.1,5.4c-1.6,2.3-2.9,5.2-3.9,8.8c-0.9,3.5-1.4,7.5-1.4,11.9
			c0,3.9,0.5,7.4,1.5,10.6c1,3.2,2.4,6,4.2,8.5c1.8,2.4,4,4.3,6.4,5.7c2.5,1.4,5.2,2,8.3,2c2.3,0,4.4-0.4,6.3-1.1
			c1.9-0.7,3.6-1.7,5-2.9c1.4-1.2,2.7-2.7,3.7-4.2c1.1-1.6,2-3.3,2.6-5.2l3.2,1.5c-2.4,6-5.7,10.2-9.7,12.8
			C402.8,73.2,398.1,74.4,392.5,74.4z"/>
		<path class="st4" d="M457.9,63.1c-1.8,3.3-4.1,6-7,8c-2.9,2-6.3,3-10.1,3c-3.4,0-6.3-0.6-8.9-1.8c-2.5-1.2-4.6-2.8-6.3-4.8
			c-1.6-2-2.9-4.4-3.7-7.1c-0.8-2.7-1.2-5.6-1.2-8.6c0-2.7,0.4-5.4,1.3-8c0.9-2.6,2.1-5,3.8-7.1c1.6-2,3.6-3.6,6-4.9
			c2.4-1.2,5.1-1.8,8-1.8c3.1,0,5.7,0.5,7.9,1.4c2.2,1,3.9,2.3,5.3,3.9c1.3,1.6,2.3,3.5,2.9,5.6c0.6,2.2,1,4.5,1,7v2.8h-27.7
			c0,2.8,0.3,5.2,0.8,7.5c0.5,2.2,1.4,4.2,2.5,5.9c1.1,1.6,2.5,2.9,4.3,3.9s3.9,1.4,6.4,1.4c2.5,0,4.7-0.6,6.5-1.8
			c1.8-1.2,3.6-3.3,5.3-6.4L457.9,63.1z M448.5,47.2c0-1.6-0.1-3.3-0.4-5.1c-0.3-1.8-0.7-3.3-1.3-4.5c-0.7-1.3-1.5-2.4-2.7-3.2
			c-1.1-0.8-2.6-1.2-4.4-1.2c-3,0-5.4,1.2-7.4,3.7c-2,2.5-3,5.9-3.2,10.3H448.5z"/>
		<path class="st4" d="M482.4,73H462v-2.8c0.7-0.1,1.3-0.1,2.1-0.2c0.7-0.1,1.3-0.2,1.8-0.3c0.8-0.3,1.4-0.7,1.8-1.3
			c0.4-0.6,0.6-1.5,0.6-2.5V17.3c0-1-0.2-2-0.7-2.9c-0.4-0.9-1-1.6-1.7-2.1c-0.5-0.3-1.4-0.7-2.8-0.9c-1.4-0.3-2.4-0.5-3.3-0.5V8.2
			l15.8-0.9l0.6,0.6v57.4c0,1,0.2,1.8,0.6,2.4c0.4,0.6,1,1.1,1.8,1.5c0.6,0.3,1.2,0.5,1.8,0.6c0.6,0.1,1.3,0.2,2.1,0.3V73z"/>
		<path class="st4" d="M507.3,73h-20.4v-2.8c0.7-0.1,1.3-0.1,2.1-0.2c0.7-0.1,1.3-0.2,1.8-0.3c0.8-0.3,1.4-0.7,1.8-1.3
			c0.4-0.6,0.6-1.5,0.6-2.5V17.3c0-1-0.2-2-0.7-2.9c-0.4-0.9-1-1.6-1.7-2.1c-0.5-0.3-1.4-0.7-2.8-0.9c-1.4-0.3-2.4-0.5-3.3-0.5V8.2
			l15.8-0.9l0.6,0.6v57.4c0,1,0.2,1.8,0.6,2.4c0.4,0.6,1,1.1,1.8,1.5c0.6,0.3,1.2,0.5,1.8,0.6c0.6,0.1,1.3,0.2,2.1,0.3V73z"/>
	</g>
	<g class="st3">
		<path class="st4" d="M534.8,62c-7.7,0.3-16.1,0.6-22.4,0.6l-1-5.8c4.2,0,11,0.1,16.6-0.1v-24h6.7v23.8c9.1-0.4,18.7-1.1,25.5-2.2
			l0.5,5.5C553.4,60.8,542.2,61.6,534.8,62z M552.2,46l-6.3-0.9c1.7-7.4,2.7-19.9,2.3-28.4h-33v-5.6h39.7
			C555.1,22.7,553.9,38.6,552.2,46z M571.6,40.5v38.6H565v-76h6.6v31.7H584v5.7H571.6z"/>
	</g>
	<g class="st3">
		<path class="st4" d="M682.9,73h-26.6v-3c1,0,2.2-0.1,3.7-0.3c1.5-0.2,2.6-0.4,3.1-0.7c0.9-0.5,1.5-1.2,1.9-1.8
			c0.4-0.7,0.6-1.6,0.6-2.6V20.7H665L644.4,72h-2.1l-19.6-52.4h-0.6v36c0,3.5,0.2,6.1,0.7,7.9c0.4,1.8,1.1,3.1,2,3.9
			c0.6,0.6,1.9,1.2,3.9,1.7c2,0.5,3.2,0.8,3.8,0.8v3h-24.3v-3c1.3-0.1,2.6-0.3,4-0.6c1.4-0.3,2.5-0.8,3.2-1.4c1-0.8,1.7-2,2-3.7
			c0.4-1.6,0.6-4.4,0.6-8.2V25.2c0-1.8-0.2-3.2-0.6-4.4c-0.4-1.1-1-2.1-1.8-2.8c-0.9-0.8-2-1.3-3.2-1.7c-1.3-0.4-2.5-0.6-3.8-0.6v-3
			h20.5L646.4,58l14.7-37.8c0.5-1.4,1-2.8,1.4-4.4c0.4-1.5,0.6-2.5,0.6-3h19.6v3c-0.8,0-1.8,0.2-3,0.4c-1.2,0.2-2.1,0.4-2.7,0.6
			c-1,0.3-1.6,0.9-2,1.7c-0.3,0.8-0.5,1.7-0.5,2.6v43.4c0,1,0.2,1.8,0.5,2.5c0.3,0.7,1,1.3,2,1.8c0.5,0.3,1.4,0.5,2.7,0.8
			c1.3,0.2,2.3,0.4,3.1,0.4V73z"/>
		<path class="st4" d="M727.1,63.1c-1.8,3.3-4.1,6-7,8c-2.9,2-6.3,3-10.1,3c-3.4,0-6.3-0.6-8.9-1.8c-2.5-1.2-4.6-2.8-6.3-4.8
			c-1.6-2-2.9-4.4-3.7-7.1s-1.2-5.6-1.2-8.6c0-2.7,0.4-5.4,1.3-8c0.9-2.6,2.1-5,3.8-7.1c1.6-2,3.6-3.6,6-4.9c2.4-1.2,5.1-1.8,8-1.8
			c3.1,0,5.7,0.5,7.9,1.4c2.2,1,3.9,2.3,5.3,3.9c1.3,1.6,2.3,3.5,2.9,5.6c0.6,2.2,1,4.5,1,7v2.8h-27.7c0,2.8,0.3,5.2,0.8,7.5
			c0.5,2.2,1.4,4.2,2.5,5.9c1.1,1.6,2.5,2.9,4.3,3.9c1.8,1,3.9,1.4,6.4,1.4c2.5,0,4.7-0.6,6.5-1.8c1.8-1.2,3.6-3.3,5.3-6.4
			L727.1,63.1z M717.7,47.2c0-1.6-0.1-3.3-0.4-5.1c-0.3-1.8-0.7-3.3-1.3-4.5c-0.7-1.3-1.5-2.4-2.7-3.2c-1.1-0.8-2.6-1.2-4.4-1.2
			c-3,0-5.4,1.2-7.4,3.7c-2,2.5-3,5.9-3.2,10.3H717.7z"/>
		<path class="st4" d="M757.8,71.2c-1.8,0.8-3.6,1.4-5.2,1.9c-1.6,0.5-3.7,0.8-6,0.8c-3.5,0-6-0.9-7.4-2.7c-1.4-1.8-2.1-4.3-2.1-7.5
			V35.4h-7.6v-4.1h7.7v-13h7.7v13h12v4.1h-11.9v23.4c0,1.8,0.1,3.2,0.2,4.4c0.1,1.2,0.4,2.2,0.9,3.1c0.5,0.8,1.1,1.4,2,1.9
			c0.9,0.4,2.1,0.6,3.7,0.6c0.7,0,1.7-0.1,3.1-0.2c1.4-0.1,2.3-0.3,2.9-0.5V71.2z"/>
		<path class="st4" d="M801.6,72.2c-1.3,0.5-2.5,0.9-3.5,1.2c-1,0.3-2.1,0.4-3.4,0.4c-2.2,0-4-0.5-5.3-1.5c-1.3-1-2.2-2.5-2.5-4.5
			h-0.3c-1.8,2-3.8,3.6-5.9,4.7c-2.1,1.1-4.6,1.6-7.6,1.6c-3.1,0-5.7-1-7.7-2.9c-2-1.9-3-4.4-3-7.6c0-1.6,0.2-3.1,0.7-4.3
			c0.5-1.3,1.1-2.4,2-3.4c0.7-0.8,1.6-1.6,2.8-2.3c1.2-0.7,2.2-1.2,3.3-1.6c1.3-0.5,3.9-1.4,7.7-2.7c3.9-1.3,6.5-2.3,7.9-3.1V42
			c0-0.4-0.1-1.1-0.2-2.1c-0.2-1-0.5-2-1-3c-0.6-1-1.4-2-2.4-2.7c-1-0.8-2.5-1.2-4.4-1.2c-1.3,0-2.5,0.2-3.6,0.7
			c-1.1,0.4-1.9,0.9-2.4,1.4c0,0.6,0.1,1.4,0.4,2.5s0.4,2.1,0.4,3.1c0,1-0.4,1.9-1.3,2.7c-0.9,0.8-2.1,1.2-3.7,1.2
			c-1.4,0-2.5-0.5-3.1-1.5c-0.7-1-1-2.1-1-3.4c0-1.3,0.5-2.5,1.4-3.7c0.9-1.2,2.1-2.3,3.6-3.2c1.3-0.8,2.8-1.5,4.6-2
			c1.8-0.6,3.6-0.8,5.3-0.8c2.4,0,4.5,0.2,6.2,0.5c1.8,0.3,3.4,1,4.8,2.1c1.4,1,2.5,2.5,3.3,4.3c0.8,1.8,1.1,4.1,1.1,6.9
			c0,4,0,7.6-0.1,10.8c-0.1,3.1-0.1,6.5-0.1,10.3c0,1.1,0.2,2,0.6,2.6c0.4,0.7,1,1.2,1.8,1.7c0.4,0.3,1.1,0.4,2,0.4
			c0.9,0,1.9,0,2.8,0V72.2z M786.7,49.8c-2.4,0.7-4.5,1.4-6.3,2.1c-1.8,0.7-3.5,1.5-5.1,2.6c-1.4,1-2.5,2.1-3.4,3.4
			s-1.2,2.9-1.2,4.7c0,2.4,0.6,4.1,1.8,5.2c1.2,1.1,2.8,1.7,4.7,1.7c2,0,3.8-0.5,5.3-1.5c1.5-1,2.8-2.1,3.9-3.5L786.7,49.8z"/>
		<path class="st4" d="M873.9,27.6c0,3.1-0.6,5.9-1.8,8.3s-2.9,4.4-5.1,6c-2.2,1.6-4.5,2.7-7.1,3.5c-2.6,0.7-5.3,1.1-8.2,1.1h-6.8
			v18.3c0,1,0.2,1.9,0.5,2.6c0.3,0.8,1,1.3,2,1.7c0.5,0.2,1.4,0.4,2.7,0.6c1.3,0.2,2.5,0.3,3.5,0.3v3h-25.9v-3
			c0.7-0.1,1.7-0.2,3-0.3c1.3-0.1,2.2-0.3,2.7-0.6c0.8-0.4,1.5-0.9,1.8-1.6c0.4-0.7,0.6-1.6,0.6-2.7V21.3c0-1-0.1-1.9-0.4-2.7
			c-0.3-0.8-0.9-1.4-2-1.8c-1.1-0.4-2.1-0.6-3.2-0.8c-1.1-0.2-2-0.3-2.7-0.3v-3H855c5.6,0,10.2,1.4,13.6,4.1
			C872.2,19.5,873.9,23.1,873.9,27.6z M861,37.9c1-1.4,1.6-2.8,1.9-4.2c0.3-1.5,0.5-2.8,0.5-3.9c0-1.6-0.2-3.3-0.6-4.9
			c-0.4-1.7-1-3.1-2-4.4c-1-1.3-2.3-2.4-3.9-3.1c-1.6-0.7-3.6-1.1-6-1.1h-6v26.6h4.3c3.1,0,5.5-0.5,7.5-1.4
			C858.6,40.5,860,39.3,861,37.9z"/>
		<path class="st4" d="M899.3,73h-20.4v-2.8c0.7-0.1,1.3-0.1,2.1-0.2c0.7-0.1,1.3-0.2,1.8-0.3c0.8-0.3,1.4-0.7,1.8-1.3
			c0.4-0.6,0.6-1.5,0.6-2.5V17.3c0-1-0.2-2-0.7-2.9c-0.4-0.9-1-1.6-1.7-2.1c-0.5-0.3-1.4-0.7-2.8-0.9c-1.4-0.3-2.4-0.5-3.3-0.5V8.2
			l15.8-0.9l0.6,0.6v57.4c0,1,0.2,1.8,0.6,2.4c0.4,0.6,1,1.1,1.8,1.5c0.6,0.3,1.2,0.5,1.8,0.6c0.6,0.1,1.3,0.2,2.1,0.3V73z"/>
		<path class="st4" d="M944.3,72.2c-1.3,0.5-2.5,0.9-3.5,1.2c-1,0.3-2.1,0.4-3.4,0.4c-2.2,0-4-0.5-5.3-1.5c-1.3-1-2.2-2.5-2.5-4.5
			h-0.3c-1.8,2-3.8,3.6-5.9,4.7c-2.1,1.1-4.6,1.6-7.6,1.6c-3.1,0-5.7-1-7.7-2.9c-2-1.9-3-4.4-3-7.6c0-1.6,0.2-3.1,0.7-4.3
			s1.1-2.4,2-3.4c0.7-0.8,1.6-1.6,2.8-2.3c1.2-0.7,2.3-1.2,3.3-1.6c1.3-0.5,3.9-1.4,7.7-2.7c3.9-1.3,6.5-2.3,7.9-3.1V42
			c0-0.4-0.1-1.1-0.2-2.1c-0.2-1-0.5-2-1-3c-0.6-1-1.4-2-2.4-2.7c-1-0.8-2.5-1.2-4.4-1.2c-1.3,0-2.5,0.2-3.6,0.7
			c-1.1,0.4-1.9,0.9-2.4,1.4c0,0.6,0.1,1.4,0.4,2.5s0.4,2.1,0.4,3.1c0,1-0.4,1.9-1.3,2.7c-0.9,0.8-2.1,1.2-3.7,1.2
			c-1.4,0-2.5-0.5-3.1-1.5c-0.7-1-1-2.1-1-3.4c0-1.3,0.5-2.5,1.4-3.7s2.1-2.3,3.6-3.2c1.3-0.8,2.8-1.5,4.6-2s3.6-0.8,5.3-0.8
			c2.4,0,4.5,0.2,6.2,0.5c1.8,0.3,3.4,1,4.8,2.1c1.4,1,2.5,2.5,3.3,4.3c0.8,1.8,1.1,4.1,1.1,6.9c0,4,0,7.6-0.1,10.8
			c-0.1,3.1-0.1,6.5-0.1,10.3c0,1.1,0.2,2,0.6,2.6c0.4,0.7,1,1.2,1.8,1.7c0.4,0.3,1.1,0.4,2,0.4c0.9,0,1.9,0,2.8,0V72.2z
			 M929.4,49.8c-2.4,0.7-4.5,1.4-6.3,2.1c-1.8,0.7-3.5,1.5-5.1,2.6c-1.4,1-2.5,2.1-3.4,3.4c-0.8,1.3-1.2,2.9-1.2,4.7
			c0,2.4,0.6,4.1,1.8,5.2s2.8,1.7,4.7,1.7c2,0,3.8-0.5,5.3-1.5s2.8-2.1,3.9-3.5L929.4,49.8z"/>
		<path class="st4" d="M974.3,71.2c-1.8,0.8-3.6,1.4-5.2,1.9c-1.6,0.5-3.7,0.8-6,0.8c-3.5,0-6-0.9-7.4-2.7c-1.4-1.8-2.1-4.3-2.1-7.5
			V35.4h-7.6v-4.1h7.7v-13h7.7v13h12v4.1h-11.9v23.4c0,1.8,0.1,3.2,0.2,4.4c0.1,1.2,0.4,2.2,0.9,3.1c0.5,0.8,1.1,1.4,2,1.9
			c0.9,0.4,2.1,0.6,3.7,0.6c0.7,0,1.7-0.1,3.1-0.2c1.4-0.1,2.3-0.3,2.9-0.5V71.2z"/>
		<path class="st4" d="M1009.6,12.4c0,1.3-0.3,2.4-1,3.2c-0.7,0.9-1.7,1.3-3.1,1.3c-0.9,0-1.6-0.2-2.3-0.6c-0.7-0.4-1.3-0.9-1.8-1.5
			c-0.6-0.6-1.1-1.3-1.6-2.1c-0.5-0.8-0.9-1.4-1.2-1.9c-1.9,0.1-3.4,1.4-4.4,4s-1.5,6.6-1.5,12.2v4.3h10.8v4.1h-10.8v30.1
			c0,1,0.2,1.8,0.6,2.4c0.4,0.6,1,1.1,1.8,1.4c0.7,0.3,1.6,0.5,2.7,0.6c1.1,0.2,2.1,0.3,2.9,0.3V73h-22.1v-2.8
			c0.7-0.1,1.3-0.1,2-0.2c0.7-0.1,1.3-0.2,1.8-0.3c0.8-0.3,1.4-0.7,1.8-1.3c0.4-0.6,0.6-1.5,0.6-2.5V35.4h-8.3v-4.1h8.3v-2.7
			c0-6.4,1.6-11.5,4.9-15.4c3.3-3.9,7.4-5.9,12.4-5.9c2.5,0,4.4,0.5,5.7,1.5C1009,9.8,1009.6,11,1009.6,12.4z"/>
		<path class="st4" d="M1047.5,51.6c0,2.9-0.5,5.8-1.4,8.7c-0.9,2.8-2.3,5.3-4,7.2c-2,2.3-4.2,3.9-6.8,5.1c-2.6,1.1-5.5,1.7-8.7,1.7
			c-2.7,0-5.2-0.5-7.6-1.5c-2.4-1-4.5-2.5-6.4-4.4c-1.8-1.9-3.3-4.2-4.4-6.9c-1.1-2.7-1.6-5.8-1.6-9.2c0-6.5,1.9-11.9,5.7-16
			c3.8-4.2,8.8-6.2,15-6.2c5.9,0,10.7,2,14.5,5.9S1047.5,45.1,1047.5,51.6z M1038.8,51.7c0-2.1-0.2-4.4-0.6-6.7
			c-0.4-2.4-1.1-4.4-1.9-6c-0.9-1.8-2.1-3.2-3.6-4.2c-1.5-1.1-3.3-1.6-5.4-1.6c-2.2,0-4,0.5-5.6,1.6c-1.5,1.1-2.8,2.5-3.8,4.4
			c-0.9,1.7-1.5,3.7-1.9,5.9c-0.4,2.2-0.6,4.3-0.6,6.4c0,2.7,0.2,5.2,0.7,7.5c0.4,2.3,1.1,4.4,2.1,6.2c1,1.8,2.2,3.2,3.6,4.3
			c1.5,1,3.3,1.5,5.4,1.5c3.5,0,6.4-1.7,8.4-5.1C1037.7,62.5,1038.8,57.8,1038.8,51.7z"/>
		<path class="st4" d="M1085.6,36.5c0,1.4-0.4,2.7-1.1,3.8c-0.7,1.1-1.8,1.7-3.3,1.7c-1.6,0-2.8-0.4-3.6-1.2
			c-0.8-0.8-1.3-1.7-1.3-2.7c0-0.6,0-1.2,0.1-1.7c0.1-0.5,0.2-1,0.3-1.5c-1.3,0-2.9,0.5-4.7,1.6c-1.8,1.1-3.3,2.6-4.5,4.6v24.4
			c0,1,0.2,1.8,0.6,2.4c0.4,0.6,1,1.1,1.8,1.4c0.7,0.3,1.6,0.5,2.7,0.6c1.1,0.1,2.1,0.2,2.9,0.3V73h-22.1v-2.8
			c0.7-0.1,1.3-0.1,2-0.2c0.7-0.1,1.3-0.2,1.8-0.3c0.8-0.3,1.4-0.7,1.8-1.3c0.4-0.6,0.6-1.5,0.6-2.5V40c0-0.9-0.2-1.7-0.6-2.6
			c-0.4-0.8-1-1.5-1.7-2c-0.5-0.3-1.2-0.6-1.9-0.7c-0.7-0.2-1.5-0.3-2.4-0.3v-2.8l13.9-0.9l0.6,0.6v5.9h0.2c1.8-2.3,3.7-4,5.9-5.2
			c2.2-1.2,4.1-1.8,5.9-1.8s3.2,0.6,4.4,1.7C1085.1,33,1085.6,34.6,1085.6,36.5z"/>
		<path class="st4" d="M1160.8,73h-20.4v-2.8c0.7-0.1,1.3-0.1,2-0.2c0.7-0.1,1.3-0.2,1.8-0.3c0.8-0.3,1.4-0.7,1.8-1.3
			c0.4-0.6,0.6-1.5,0.6-2.5V44.3c0-2.9-0.7-5.2-2-6.8c-1.3-1.6-3-2.4-5-2.4c-1.4,0-2.7,0.2-3.9,0.6c-1.2,0.4-2.3,1-3.4,1.8
			c-0.8,0.6-1.5,1.3-2.1,2c-0.6,0.7-1,1.3-1.3,1.8v24.2c0,1,0.2,1.8,0.5,2.4c0.3,0.6,0.9,1.1,1.7,1.5c0.7,0.3,1.2,0.4,1.8,0.6
			c0.5,0.1,1.2,0.2,2.1,0.3V73h-20v-2.8c0.7-0.1,1.3-0.1,1.9-0.2c0.6-0.1,1.2-0.2,1.7-0.3c0.8-0.3,1.4-0.7,1.8-1.3
			c0.4-0.6,0.6-1.5,0.6-2.5V44.3c0-2.9-0.7-5.2-2-6.8c-1.3-1.6-3-2.4-5-2.4c-1.4,0-2.7,0.2-3.9,0.7c-1.2,0.4-2.3,1-3.4,1.8
			c-0.8,0.6-1.5,1.3-2.1,2.1c-0.6,0.8-1,1.4-1.3,1.8v24c0,1,0.2,1.8,0.6,2.4c0.4,0.7,1,1.1,1.8,1.5c0.6,0.3,1.2,0.5,1.8,0.6
			c0.6,0.1,1.3,0.2,2.1,0.3V73h-20.3v-2.8c0.7-0.1,1.3-0.1,2-0.2c0.7-0.1,1.3-0.2,1.8-0.3c0.8-0.3,1.4-0.7,1.8-1.3
			c0.4-0.6,0.6-1.5,0.6-2.5v-26c0-0.9-0.2-1.7-0.6-2.4c-0.4-0.7-1-1.3-1.7-1.8c-0.5-0.3-1.2-0.6-2-0.8c-0.8-0.2-1.6-0.3-2.5-0.4
			v-2.8l14-0.9l0.6,0.6v6h0.3c0.7-0.7,1.6-1.5,2.6-2.5c1-1,2-1.7,2.8-2.3c1-0.7,2.2-1.2,3.7-1.7c1.5-0.5,3.1-0.7,4.8-0.7
			c2.7,0,5.1,0.7,7,2.2c2,1.5,3.4,3.2,4.2,5.3c1-1,1.9-1.9,2.7-2.6c0.8-0.7,1.8-1.5,3.1-2.4c1.1-0.7,2.3-1.3,3.8-1.8
			c1.5-0.5,3.1-0.7,4.9-0.7c3.5,0,6.3,1.2,8.4,3.5c2.1,2.3,3.1,5.9,3.1,10.7v21.3c0,1,0.2,1.8,0.5,2.4c0.3,0.6,0.9,1.1,1.7,1.5
			c0.7,0.3,1.3,0.4,1.9,0.6c0.6,0.1,1.4,0.2,2.1,0.3V73z"/>
	</g>
	<g class="st3">
		<path class="st4" d="M1166,41.5V36h68.6v5.6H1166z M1174,78.4V60.3h45.4v-6.7h-45.6v-5.3h52.2v17h-45.4V73h47.9v5.4H1174z
			 M1200.4,30.5c-16.3,0-26.4-4.8-26.4-13.1s10.1-13.2,26.4-13.2c16.5,0,26.6,4.9,26.6,13.2S1216.9,30.5,1200.4,30.5z M1180.7,17.4
			c0,4.7,7.7,7.7,19.7,7.7c12.1,0,19.9-3,19.9-7.7c0-4.8-7.8-7.8-19.9-7.8C1188.5,9.5,1180.7,12.6,1180.7,17.4z"/>
	</g>
	<g class="st3">
		<path class="st4" d="M1284.8,8.8c12.6,0,19.6,10.8,19.6,26.9c0,16.1-7,26.9-19.6,26.9c-12.4,0-19.6-10.8-19.6-27
			C1265.3,19.6,1272.4,8.8,1284.8,8.8z M1284.8,14.6c-8,0-13.3,8.6-13.3,21.1c0,12.4,5.3,21.1,13.3,21.1c8.1,0,13.4-8.7,13.4-21.1
			C1298.2,23.2,1292.9,14.6,1284.8,14.6z M1318.7,79.1v-76h6.6v76H1318.7z"/>
		<path class="st4" d="M1388.8,30.7v10.8h17.7V47H1338v-5.5h17.5V30.7c-6.3-2.4-9.7-6.5-9.7-11.6c0-8.7,9.8-14.3,26.4-14.3
			c16.7,0,26.6,5.7,26.6,14.3C1398.8,24.2,1395.3,28.3,1388.8,30.7z M1372.4,78.6c-16.7,0-26.9-4.7-26.9-13.4
			c0-8.7,10.2-13.5,26.8-13.5c16.8,0,27,4.8,27,13.5C1399.3,74,1389.1,78.6,1372.4,78.6z M1352.1,65.3c0,5,8.1,7.7,20.2,7.7
			c12.3,0,20.3-2.7,20.3-7.7c0-5-8.1-7.7-20.3-7.7C1360.2,57.5,1352.1,60.2,1352.1,65.3z M1372.2,10c-12.2,0-20,3.4-20,9
			c0,5.5,7.8,8.9,20,8.9s20.2-3.4,20.2-8.9C1392.4,13.4,1384.4,10,1372.2,10z M1362,32.5v9h20.2v-9c-3,0.4-6.3,0.7-10,0.7
			S1365.1,33,1362,32.5z"/>
		<path class="st4" d="M1412.8,22.8v-5.5h44.5v5.5H1412.8z M1435.1,53.5c-10.1,0-17.8-5.3-17.8-13.3c0-8.2,7.7-13.3,17.8-13.3
			c10.3,0,17.9,5.1,17.9,13.3C1453,48.2,1445.3,53.5,1435.1,53.5z M1435.1,32.1c-6.1,0-11.6,3-11.6,8.1c0,5,5.5,8,11.6,8
			c6.2,0,11.7-3,11.7-8C1446.7,35.2,1441.3,32.1,1435.1,32.1z M1423.7,11.6V5.8h21.9v5.8H1423.7z M1423.9,76.6V57.2h6.6v13.9h44v5.6
			H1423.9z M1471.6,34.4v24.8h-6.6V3.1h6.6v25.7h11.6v5.6H1471.6z"/>
	</g>
	<g class="st3">
		<path class="st4" d="M372.5,169.7c-7.2-4.7-16.5-14.3-19.5-23.4c-2.5,9.2-10.4,18.6-19.5,24.9l-4.4-5
			c11.2-6.6,20.4-19.8,20.4-33.6v-8.9h-17.8v-5.6h42.2v5.6h-17.5v8.7c0,14.2,9.7,26.3,20.2,32L372.5,169.7z M369.8,143.3v-5.7h15.9
			v-27.4h6.6v76h-6.6v-43H369.8z"/>
		<path class="st4" d="M407.6,116.9h40.9v5.6h-17c0,3.5,0,5,0.1,6.2c0.6,9.7,10,18.4,18.7,21.3l-3.7,5.3c-7.2-3-15.3-10.2-18.4-17
			c-2.1,7-10.9,15.3-19,18.9l-3.8-5.1c9.6-3.7,19.1-13.4,19.5-23.4c0.1-1,0.1-2.7,0.1-6.1h-17.1V116.9z M417.9,183.7v-23.4h6.6v17.8
			h44.6v5.6H417.9z M460.9,165.9v-29h-15.1v-5.6h15.1v-21.1h6.6v55.6H460.9z"/>
		<path class="st4" d="M521.3,152.5c-7.3,1.2-20.2,1.7-29,1.7h-9V131h27.2v-10.9h-27.2v-5.5h33.8v21.7h-27.2v12.4h2.6
			c10.3,0,20.9-0.3,28.2-1.6L521.3,152.5z M542.7,161.3v25.6h-6.6v-20.2h-44.7v-5.5H542.7z M536.1,157.1v-14.3h-13.9v-5.4h13.9
			v-10.3h-13.9v-5.5h13.9v-11.5h6.6v46.9H536.1z"/>
	</g>
	<g class="st3">
		<path class="st4" d="M633.8,180.1h-25v-3c2.2-0.1,4-0.4,5.5-0.8c1.5-0.4,2.2-0.9,2.2-1.6c0-0.3,0-0.6-0.1-0.9
			c-0.1-0.4-0.1-0.7-0.3-1l-5-13.5H590c-0.8,2-1.4,3.7-1.9,5.2c-0.5,1.5-0.9,2.8-1.3,4.1c-0.4,1.2-0.6,2.2-0.8,3
			c-0.1,0.8-0.2,1.4-0.2,1.9c0,1.1,0.9,2,2.7,2.6c1.8,0.6,3.8,1,6,1.1v3h-22.7v-3c0.7-0.1,1.7-0.2,2.8-0.5c1.1-0.3,2-0.6,2.7-1.1
			c1.1-0.8,2-1.6,2.6-2.4c0.6-0.8,1.2-2,1.8-3.5c3-7.6,6.4-16,10-25.5c3.7-9.4,6.9-17.8,9.8-25.2h3.4l20.1,52c0.4,1.1,0.9,2,1.4,2.7
			c0.5,0.7,1.3,1.3,2.3,2c0.7,0.4,1.5,0.7,2.5,1c1,0.3,1.9,0.4,2.6,0.4V180.1z M609.6,155.5l-9.1-23.4l-9,23.4H609.6z"/>
		<path class="st4" d="M673.5,152.5c1.3,1.4,2.2,3,2.8,4.6c0.6,1.7,0.9,3.6,0.9,5.9c0,5.3-2,9.7-5.9,13.2c-3.9,3.5-8.8,5.2-14.6,5.2
			c-2.7,0-5.4-0.4-8.1-1.3c-2.7-0.8-5-1.8-7-3l-1.8,3.1h-3.4l-0.6-20.6h3.4c0.7,2.5,1.5,4.8,2.5,6.9c0.9,2.1,2.2,4,3.8,5.8
			c1.5,1.7,3.2,3,5.2,4c2,1,4.3,1.5,6.9,1.5c2,0,3.7-0.3,5.1-0.8c1.5-0.5,2.6-1.2,3.5-2.2c0.9-0.9,1.6-2,2-3.3
			c0.4-1.3,0.7-2.7,0.7-4.4c0-2.4-0.7-4.7-2-6.7c-1.4-2.1-3.4-3.7-6.1-4.7c-1.8-0.7-3.9-1.5-6.3-2.4c-2.4-0.9-4.4-1.7-6.2-2.5
			c-3.4-1.5-6-3.5-7.9-6c-1.9-2.5-2.8-5.7-2.8-9.7c0-2.3,0.5-4.4,1.4-6.4c0.9-2,2.3-3.7,4-5.3c1.6-1.5,3.6-2.6,5.8-3.5
			c2.2-0.8,4.6-1.3,7-1.3c2.8,0,5.3,0.4,7.5,1.3c2.2,0.8,4.2,1.8,6,3l1.7-2.9h3.4l0.3,20h-3.4c-0.6-2.3-1.3-4.5-2.1-6.6
			c-0.8-2.1-1.8-4-3-5.7c-1.2-1.6-2.7-3-4.5-3.9c-1.8-1-3.9-1.5-6.5-1.5c-2.7,0-5,0.9-6.9,2.6c-1.9,1.7-2.8,3.8-2.8,6.3
			c0,2.6,0.6,4.8,1.8,6.5c1.2,1.7,3,3.1,5.3,4.2c2.1,1,4.1,1.8,6.1,2.6c2,0.7,3.9,1.5,5.8,2.3c1.7,0.7,3.3,1.6,4.9,2.5
			C671,150.2,672.3,151.2,673.5,152.5z"/>
		<path class="st4" d="M722.3,152.5c1.3,1.4,2.2,3,2.8,4.6c0.6,1.7,0.9,3.6,0.9,5.9c0,5.3-2,9.7-5.9,13.2c-3.9,3.5-8.8,5.2-14.6,5.2
			c-2.7,0-5.4-0.4-8.1-1.3c-2.7-0.8-5-1.8-7-3l-1.8,3.1h-3.4l-0.6-20.6h3.4c0.7,2.5,1.5,4.8,2.5,6.9c0.9,2.1,2.2,4,3.8,5.8
			c1.5,1.7,3.2,3,5.2,4c2,1,4.3,1.5,6.9,1.5c2,0,3.7-0.3,5.1-0.8c1.5-0.5,2.6-1.2,3.5-2.2c0.9-0.9,1.6-2,2-3.3
			c0.4-1.3,0.7-2.7,0.7-4.4c0-2.4-0.7-4.7-2-6.7c-1.4-2.1-3.4-3.7-6.1-4.7c-1.8-0.7-3.9-1.5-6.3-2.4c-2.4-0.9-4.4-1.7-6.2-2.5
			c-3.4-1.5-6-3.5-7.9-6c-1.9-2.5-2.8-5.7-2.8-9.7c0-2.3,0.5-4.4,1.4-6.4c0.9-2,2.3-3.7,4-5.3c1.6-1.5,3.6-2.6,5.8-3.5
			c2.2-0.8,4.6-1.3,7-1.3c2.8,0,5.3,0.4,7.5,1.3c2.2,0.8,4.2,1.8,6,3l1.7-2.9h3.4l0.3,20H720c-0.6-2.3-1.3-4.5-2.1-6.6
			c-0.8-2.1-1.8-4-3-5.7c-1.2-1.6-2.7-3-4.5-3.9c-1.8-1-3.9-1.5-6.5-1.5c-2.7,0-5,0.9-6.9,2.6c-1.9,1.7-2.8,3.8-2.8,6.3
			c0,2.6,0.6,4.8,1.8,6.5c1.2,1.7,3,3.1,5.3,4.2c2.1,1,4.1,1.8,6.1,2.6c2,0.7,3.9,1.5,5.8,2.3c1.7,0.7,3.3,1.6,4.9,2.5
			C719.7,150.2,721.1,151.2,722.3,152.5z"/>
		<path class="st4" d="M779.7,134.7c0,3.1-0.6,5.9-1.8,8.3c-1.2,2.4-2.9,4.4-5.1,6c-2.2,1.6-4.5,2.7-7.1,3.5
			c-2.6,0.7-5.3,1.1-8.2,1.1h-6.8v18.3c0,1,0.2,1.9,0.5,2.6c0.3,0.8,1,1.3,2,1.7c0.5,0.2,1.4,0.4,2.7,0.6c1.3,0.2,2.5,0.3,3.5,0.3v3
			h-25.9v-3c0.7-0.1,1.7-0.2,3-0.3c1.3-0.1,2.2-0.3,2.7-0.6c0.8-0.4,1.5-0.9,1.8-1.6c0.4-0.7,0.6-1.6,0.6-2.7v-43.5
			c0-1-0.1-1.9-0.4-2.7c-0.3-0.8-0.9-1.4-2-1.8c-1.1-0.4-2.1-0.6-3.2-0.8c-1.1-0.2-2-0.3-2.7-0.3v-3h27.5c5.6,0,10.2,1.4,13.6,4.1
			C777.9,126.6,779.7,130.2,779.7,134.7z M766.8,145c1-1.4,1.6-2.8,1.9-4.2c0.3-1.5,0.5-2.8,0.5-3.9c0-1.6-0.2-3.3-0.6-4.9
			c-0.4-1.7-1-3.1-2-4.4c-1-1.3-2.3-2.4-3.9-3.1c-1.6-0.7-3.6-1.1-6-1.1h-6V150h4.3c3.1,0,5.5-0.5,7.5-1.4
			C764.4,147.6,765.8,146.4,766.8,145z"/>
	</g>
	<g class="st3">
		<path class="st4" d="M810.9,170.4l-4.4-4.9c16.1-9.1,25.4-25.3,26.1-40.8H809v-5.6h30.4C839.2,141.8,828.9,159.5,810.9,170.4z
			 M864.3,186.2v-40.6h-9.9v36.8h-6.5V112h6.5v28.1h9.9v-29.9h6.5v76H864.3z"/>
		<path class="st4" d="M884.6,146.9v-33.7h6.6v11.1h22.2v-11.1h6.7v33.7H884.6z M913.4,129.8h-22.2v11.7h22.2V129.8z M891.8,185.7
			v-19h41.9v-7.5h-42v-5.4h48.6v18h-41.9v8.3h44.7v5.5H891.8z M940.3,132.8v16.7h-6.6v-39.3h6.6v17h11.6v5.6H940.3z"/>
	</g>
	<g class="st3">
		<path class="st4" d="M1017.2,153.9h-24.9v26.2h-10.7v-61.8h39.3v8.7h-28.5v18.4h24.9V153.9z"/>
		<path class="st4" d="M1039.3,180.1H1029v-65.2h10.3V180.1z"/>
		<path class="st4" d="M1048.6,156.7c0-4.5,0.9-8.6,2.7-12.2c1.8-3.6,4.3-6.4,7.5-8.3c3.2-1.9,6.9-2.9,11.1-2.9c6.2,0,11.2,2,15.1,6
			c3.9,4,6,9.3,6.3,15.9l0,2.4c0,4.5-0.9,8.6-2.6,12.1s-4.2,6.3-7.5,8.3c-3.2,2-7,2.9-11.2,2.9c-6.5,0-11.7-2.2-15.6-6.5
			c-3.9-4.3-5.8-10.1-5.8-17.3V156.7z M1059,157.6c0,4.7,1,8.4,2.9,11.1c2,2.7,4.7,4,8.2,4s6.2-1.4,8.1-4.1s2.9-6.7,2.9-11.9
			c0-4.6-1-8.3-3-11c-2-2.7-4.7-4.1-8.1-4.1c-3.4,0-6,1.3-8,4C1060,148.3,1059,152.3,1059,157.6z"/>
		<path class="st4" d="M1140.4,165.9l7.3-31.7h10.1l-12.5,45.9h-8.5l-9.8-31.5l-9.7,31.5h-8.5l-12.6-45.9h10.1l7.4,31.4l9.4-31.4
			h7.8L1140.4,165.9z"/>
	</g>
</g>
</svg>
