<?xml version="1.0" encoding="utf-8"?>
<!-- Generator: Adobe Illustrator 26.5.0, SVG Export Plug-In . SVG Version: 6.00 Build 0)  -->
<svg version="1.1" id="레이어_1" xmlns="http://www.w3.org/2000/svg" xmlns:xlink="http://www.w3.org/1999/xlink" x="0px"
	 y="0px" viewBox="0 0 856.2 81.4" style="enable-background:new 0 0 856.2 81.4;" xml:space="preserve">
<style type="text/css">
	.st0{enable-background:new    ;}
	.st1{fill:#082AB7;}
</style>
<g class="st0">
	<path class="st1" d="M40.9,38c1.3,1.4,2.2,2.9,2.8,4.6c0.6,1.7,0.9,3.6,0.9,5.8c0,5.3-2,9.6-5.9,13.1c-3.9,3.4-8.8,5.1-14.5,5.1
		c-2.7,0-5.3-0.4-8-1.2c-2.7-0.8-5-1.8-6.9-3l-1.8,3.1H4.1L3.5,45h3.4c0.7,2.5,1.5,4.8,2.5,6.9c0.9,2,2.2,3.9,3.7,5.7
		c1.5,1.7,3.2,3,5.1,4c2,1,4.2,1.5,6.8,1.5c1.9,0,3.6-0.3,5.1-0.8c1.4-0.5,2.6-1.2,3.5-2.2c0.9-0.9,1.6-2,2-3.3
		c0.4-1.3,0.7-2.7,0.7-4.3c0-2.4-0.7-4.6-2-6.7c-1.3-2.1-3.4-3.6-6-4.7c-1.8-0.7-3.9-1.5-6.3-2.4c-2.4-0.9-4.4-1.7-6.1-2.5
		c-3.4-1.5-6-3.5-7.9-6c-1.9-2.5-2.8-5.7-2.8-9.6c0-2.3,0.5-4.4,1.4-6.4c0.9-2,2.2-3.7,4-5.3c1.6-1.5,3.6-2.6,5.8-3.4
		c2.2-0.8,4.5-1.2,7-1.2c2.8,0,5.2,0.4,7.4,1.3c2.2,0.8,4.2,1.8,6,3l1.7-2.9h3.4l0.3,19.9h-3.4c-0.6-2.3-1.3-4.5-2.1-6.5
		c-0.8-2.1-1.8-4-3-5.7c-1.2-1.6-2.7-2.9-4.4-3.9c-1.7-1-3.9-1.5-6.4-1.5c-2.7,0-4.9,0.9-6.8,2.6c-1.9,1.7-2.8,3.8-2.8,6.3
		c0,2.6,0.6,4.7,1.8,6.4c1.2,1.7,3,3.1,5.3,4.2c2.1,1,4.1,1.8,6.1,2.6s3.9,1.5,5.8,2.3c1.7,0.7,3.3,1.6,4.9,2.5
		C38.4,35.7,39.7,36.7,40.9,38z"/>
	<path class="st1" d="M100.1,47.6l-1.3,17.8H52.1v-3c0.7-0.1,1.7-0.2,2.9-0.3c1.3-0.1,2.2-0.3,2.7-0.5c0.8-0.4,1.5-0.9,1.8-1.6
		c0.4-0.7,0.6-1.6,0.6-2.7V14.5c0-1-0.2-1.8-0.5-2.5c-0.3-0.7-1-1.3-1.9-1.8c-0.6-0.3-1.6-0.7-2.7-1c-1.2-0.3-2.1-0.5-2.9-0.6v-3
		h25.3v3c-0.8,0-1.8,0.2-3.1,0.4c-1.3,0.3-2.2,0.5-2.7,0.7c-1,0.3-1.6,0.9-2,1.7c-0.4,0.8-0.5,1.7-0.5,2.6v40.2
		c0,1.9,0.1,3.3,0.3,4.3c0.2,1,0.6,1.8,1.3,2.4c0.6,0.5,1.6,0.8,2.9,1c1.3,0.2,3.1,0.2,5.4,0.2c1,0,2.1,0,3.2-0.1
		c1.1-0.1,2.2-0.2,3.2-0.3c1-0.2,1.9-0.4,2.7-0.7c0.8-0.3,1.4-0.7,1.8-1.1c1.2-1.3,2.5-3.3,4-5.9c1.5-2.6,2.6-4.8,3.2-6.4H100.1z"/>
	<path class="st1" d="M152.9,21.8H150c-0.3-1-0.7-2.2-1.4-3.6c-0.7-1.4-1.4-2.7-2.2-3.9c-0.8-1.3-1.8-2.4-2.8-3.4
		c-1-1-2-1.5-2.9-1.7c-0.9-0.1-2-0.2-3.3-0.3c-1.3-0.1-2.6-0.1-3.7-0.1h-2.5v47.9c0,0.9,0.2,1.8,0.6,2.6c0.4,0.8,1.1,1.4,2.1,1.8
		c0.5,0.2,1.6,0.5,3.2,0.8c1.6,0.3,2.9,0.5,3.8,0.5v3h-28.3v-3c0.8-0.1,2-0.2,3.6-0.3c1.6-0.2,2.7-0.4,3.4-0.6
		c0.9-0.4,1.6-0.9,2-1.6c0.4-0.7,0.7-1.6,0.7-2.8V8.9h-2.4c-0.9,0-2,0-3.2,0.1c-1.3,0-2.5,0.1-3.7,0.3c-0.9,0.1-1.9,0.7-2.9,1.7
		c-1,1-1.9,2.1-2.8,3.4s-1.6,2.6-2.2,4c-0.6,1.4-1.1,2.6-1.3,3.5h-3V5.6h52.2V21.8z"/>
</g>
<g class="st0">
	<path class="st1" d="M182.5,40.5c0-5.7,0.8-11.3,2.3-16.6c1.5-5.3,3.8-10.1,6.9-14.4c3.1-4.3,6.2-7.4,9.5-9.2l1.4,4.7
		c-3.7,2.8-6.8,7.2-9.1,13c-2.4,5.9-3.7,12.4-3.9,19.7l0,3.2c0,9.8,1.8,18.3,5.4,25.6c2.2,4.3,4.7,7.7,7.7,10.1l-1.4,4.3
		c-3.4-1.9-6.6-5-9.7-9.5C185.5,62.9,182.5,52.6,182.5,40.5z"/>
	<path class="st1" d="M227,38.3c-6.3-1.8-10.9-4-13.7-6.7c-2.9-2.6-4.3-5.9-4.3-9.7c0-4.4,1.7-8,5.2-10.9c3.5-2.9,8-4.3,13.6-4.3
		c3.8,0,7.2,0.7,10.2,2.2c3,1.5,5.3,3.5,6.9,6.1s2.5,5.4,2.5,8.5h-7.4c0-3.4-1.1-6-3.2-7.9c-2.1-1.9-5.2-2.9-9-2.9
		c-3.6,0-6.4,0.8-8.5,2.4c-2,1.6-3,3.8-3,6.6c0,2.3,1,4.2,2.9,5.8c1.9,1.6,5.2,3,9.8,4.3c4.6,1.3,8.2,2.7,10.8,4.3
		c2.6,1.6,4.5,3.4,5.8,5.5c1.3,2.1,1.9,4.5,1.9,7.4c0,4.5-1.8,8.1-5.3,10.8c-3.5,2.7-8.2,4.1-14.1,4.1c-3.8,0-7.4-0.7-10.7-2.2
		c-3.3-1.5-5.9-3.5-7.7-6c-1.8-2.5-2.7-5.4-2.7-8.7h7.4c0,3.4,1.2,6,3.7,8c2.5,1.9,5.8,2.9,9.9,2.9c3.9,0,6.8-0.8,8.9-2.4
		c2.1-1.6,3.1-3.7,3.1-6.4c0-2.7-1-4.8-2.9-6.3C235.4,41.2,232,39.8,227,38.3z"/>
	<path class="st1" d="M269.3,52.7l9.6-30.9h7.6l-16.6,47.7c-2.6,6.9-6.7,10.3-12.2,10.3l-1.3-0.1l-2.6-0.5v-5.7l1.9,0.2
		c2.4,0,4.3-0.5,5.6-1.4c1.3-1,2.4-2.7,3.3-5.3l1.6-4.2l-14.7-40.8h7.7L269.3,52.7z"/>
	<path class="st1" d="M316.9,52.1c0-1.9-0.7-3.4-2.2-4.4c-1.4-1.1-3.9-2-7.5-2.7c-3.6-0.8-6.4-1.7-8.5-2.7c-2.1-1.1-3.7-2.3-4.7-3.8
		c-1-1.5-1.5-3.2-1.5-5.3c0-3.4,1.4-6.2,4.3-8.6c2.9-2.3,6.5-3.5,11-3.5c4.7,0,8.5,1.2,11.4,3.6c2.9,2.4,4.4,5.5,4.4,9.3h-7.1
		c0-1.9-0.8-3.6-2.5-5c-1.6-1.4-3.7-2.1-6.2-2.1c-2.6,0-4.6,0.6-6,1.7c-1.4,1.1-2.2,2.6-2.2,4.4c0,1.7,0.7,3,2,3.9
		c1.3,0.9,3.8,1.7,7.3,2.5c3.5,0.8,6.4,1.7,8.6,2.8c2.2,1.1,3.8,2.4,4.9,3.9c1.1,1.5,1.6,3.4,1.6,5.6c0,3.7-1.5,6.6-4.4,8.9
		c-3,2.2-6.8,3.3-11.5,3.3c-3.3,0-6.2-0.6-8.8-1.8c-2.5-1.2-4.5-2.8-6-4.9c-1.4-2.1-2.2-4.4-2.2-6.8h7.1c0.1,2.4,1.1,4.2,2.8,5.6
		c1.8,1.4,4.1,2.1,7,2.1c2.7,0,4.8-0.5,6.4-1.6C316,55.4,316.9,53.9,316.9,52.1z"/>
	<path class="st1" d="M342.7,11.8v10h7.7v5.5h-7.7v25.6c0,1.7,0.3,2.9,1,3.7c0.7,0.8,1.9,1.2,3.5,1.2c0.8,0,1.9-0.2,3.4-0.5v5.7
		c-1.9,0.5-3.7,0.8-5.4,0.8c-3.2,0-5.5-1-7.1-2.9s-2.4-4.6-2.4-8.1V27.2h-7.5v-5.5h7.5v-10H342.7z"/>
	<path class="st1" d="M375.8,63.8c-5.6,0-10.1-1.8-13.7-5.5c-3.5-3.7-5.3-8.6-5.3-14.7v-1.3c0-4.1,0.8-7.8,2.3-11
		c1.6-3.2,3.8-5.7,6.6-7.6c2.8-1.8,5.9-2.7,9.1-2.7c5.4,0,9.5,1.8,12.5,5.3c3,3.5,4.5,8.6,4.5,15.2v2.9h-28c0.1,4.1,1.3,7.4,3.6,9.9
		c2.3,2.5,5.2,3.8,8.7,3.8c2.5,0,4.6-0.5,6.3-1.5c1.7-1,3.2-2.4,4.5-4l4.3,3.4C387.9,61.2,382.7,63.8,375.8,63.8z M374.9,26.8
		c-2.8,0-5.2,1-7.2,3.1c-1.9,2.1-3.1,5-3.6,8.7h20.7v-0.5c-0.2-3.6-1.2-6.4-2.9-8.3C380.2,27.8,377.8,26.8,374.9,26.8z"/>
	<path class="st1" d="M406.7,21.8l0.2,4.6c3-3.6,7.1-5.3,12.2-5.3c5.8,0,9.7,2.2,11.8,6.6c1.4-2,3.2-3.6,5.4-4.8
		c2.2-1.2,4.8-1.8,7.8-1.8c9.1,0,13.7,4.8,13.8,14.4v27.7h-7.1V35.8c0-3-0.7-5.2-2-6.6c-1.3-1.5-3.6-2.2-6.8-2.2
		c-2.6,0-4.8,0.8-6.5,2.3c-1.7,1.6-2.7,3.7-3,6.3v27.4h-7.1V36c0-6-2.9-9-8.8-9c-4.6,0-7.8,2-9.5,5.9v30.1H400V21.8H406.7z"/>
	<path class="st1" d="M496.3,57.1h26.3v6H489V7.5h7.4V57.1z"/>
	<path class="st1" d="M547.1,63.8c-5.6,0-10.1-1.8-13.7-5.5c-3.5-3.7-5.3-8.6-5.3-14.7v-1.3c0-4.1,0.8-7.8,2.3-11
		c1.6-3.2,3.8-5.7,6.6-7.6c2.8-1.8,5.9-2.7,9.1-2.7c5.4,0,9.5,1.8,12.5,5.3c3,3.5,4.5,8.6,4.5,15.2v2.9h-28c0.1,4.1,1.3,7.4,3.6,9.9
		c2.3,2.5,5.2,3.8,8.7,3.8c2.5,0,4.6-0.5,6.3-1.5c1.7-1,3.2-2.4,4.5-4l4.3,3.4C559.2,61.2,554,63.8,547.1,63.8z M546.2,26.8
		c-2.8,0-5.2,1-7.2,3.1c-1.9,2.1-3.1,5-3.6,8.7h20.7v-0.5c-0.2-3.6-1.2-6.4-2.9-8.3C551.5,27.8,549.1,26.8,546.2,26.8z"/>
	<path class="st1" d="M584.4,53.5l10.2-31.7h7.2l-14.8,41.3h-5.4l-15-41.3h7.2L584.4,53.5z"/>
	<path class="st1" d="M625.3,63.8c-5.6,0-10.1-1.8-13.7-5.5c-3.5-3.7-5.3-8.6-5.3-14.7v-1.3c0-4.1,0.8-7.8,2.3-11
		c1.6-3.2,3.8-5.7,6.6-7.6c2.8-1.8,5.9-2.7,9.1-2.7c5.4,0,9.5,1.8,12.5,5.3c3,3.5,4.5,8.6,4.5,15.2v2.9h-28c0.1,4.1,1.3,7.4,3.6,9.9
		c2.3,2.5,5.2,3.8,8.7,3.8c2.5,0,4.6-0.5,6.3-1.5c1.7-1,3.2-2.4,4.5-4l4.3,3.4C637.4,61.2,632.2,63.8,625.3,63.8z M624.4,26.8
		c-2.8,0-5.2,1-7.2,3.1c-1.9,2.1-3.1,5-3.6,8.7h20.7v-0.5c-0.2-3.6-1.2-6.4-2.9-8.3C629.7,27.8,627.4,26.8,624.4,26.8z"/>
	<path class="st1" d="M657.3,63.1h-7.1V4.5h7.1V63.1z"/>
	<path class="st1" d="M725.9,13.5H708v49.6h-7.3V13.5h-17.8v-6h43V13.5z"/>
	<path class="st1" d="M746.3,63.8c-5.6,0-10.1-1.8-13.7-5.5c-3.5-3.7-5.3-8.6-5.3-14.7v-1.3c0-4.1,0.8-7.8,2.3-11
		c1.6-3.2,3.8-5.7,6.6-7.6c2.8-1.8,5.9-2.7,9.1-2.7c5.4,0,9.5,1.8,12.5,5.3c3,3.5,4.5,8.6,4.5,15.2v2.9h-28c0.1,4.1,1.3,7.4,3.6,9.9
		c2.3,2.5,5.2,3.8,8.7,3.8c2.5,0,4.6-0.5,6.3-1.5c1.7-1,3.2-2.4,4.5-4l4.3,3.4C758.5,61.2,753.3,63.8,746.3,63.8z M745.5,26.8
		c-2.8,0-5.2,1-7.2,3.1c-1.9,2.1-3.1,5-3.6,8.7h20.7v-0.5c-0.2-3.6-1.2-6.4-2.9-8.3C750.8,27.8,748.4,26.8,745.5,26.8z"/>
	<path class="st1" d="M794.7,52.1c0-1.9-0.7-3.4-2.2-4.4c-1.4-1.1-3.9-2-7.5-2.7c-3.6-0.8-6.4-1.7-8.5-2.7s-3.7-2.3-4.7-3.8
		c-1-1.5-1.5-3.2-1.5-5.3c0-3.4,1.4-6.2,4.3-8.6c2.9-2.3,6.5-3.5,11-3.5c4.7,0,8.5,1.2,11.4,3.6c2.9,2.4,4.4,5.5,4.4,9.3h-7.1
		c0-1.9-0.8-3.6-2.5-5c-1.6-1.4-3.7-2.1-6.2-2.1c-2.6,0-4.6,0.6-6,1.7c-1.4,1.1-2.2,2.6-2.2,4.4c0,1.7,0.7,3,2,3.9
		c1.3,0.9,3.8,1.7,7.3,2.5c3.5,0.8,6.4,1.7,8.6,2.8c2.2,1.1,3.8,2.4,4.9,3.9c1.1,1.5,1.6,3.4,1.6,5.6c0,3.7-1.5,6.6-4.4,8.9
		c-3,2.2-6.8,3.3-11.5,3.3c-3.3,0-6.2-0.6-8.8-1.8c-2.5-1.2-4.5-2.8-6-4.9c-1.4-2.1-2.2-4.4-2.2-6.8h7.1c0.1,2.4,1.1,4.2,2.8,5.6
		c1.8,1.4,4.1,2.1,7,2.1c2.7,0,4.8-0.5,6.4-1.6C793.8,55.4,794.7,53.9,794.7,52.1z"/>
	<path class="st1" d="M820.5,11.8v10h7.7v5.5h-7.7v25.6c0,1.7,0.3,2.9,1,3.7c0.7,0.8,1.9,1.2,3.5,1.2c0.8,0,1.9-0.2,3.4-0.5v5.7
		c-1.9,0.5-3.7,0.8-5.4,0.8c-3.2,0-5.5-1-7.1-2.9s-2.4-4.6-2.4-8.1V27.2h-7.5v-5.5h7.5v-10H820.5z"/>
	<path class="st1" d="M852.7,40.9c0,5.7-0.7,11.1-2.2,16.3c-1.5,5.2-3.8,10-6.8,14.4c-3.1,4.4-6.3,7.5-9.6,9.4l-1.5-4.3
		c3.9-3,7.1-7.7,9.4-14c2.4-6.3,3.6-13.3,3.6-21v-1.2c0-5.3-0.6-10.3-1.7-14.9c-1.1-4.6-2.7-8.7-4.7-12.3c-2-3.6-4.2-6.5-6.7-8.5
		l1.5-4.3c3.4,1.9,6.6,5,9.6,9.3c3,4.3,5.3,9.1,6.8,14.4C852,29.3,852.7,34.9,852.7,40.9z"/>
</g>
</svg>
