<?xml version="1.0" encoding="utf-8"?>
<!-- Generator: Adobe Illustrator 26.5.0, SVG Export Plug-In . SVG Version: 6.00 Build 0)  -->
<svg version="1.1" id="레이어_1" xmlns="http://www.w3.org/2000/svg" xmlns:xlink="http://www.w3.org/1999/xlink" x="0px"
	 y="0px" viewBox="0 0 874.8 81.4" style="enable-background:new 0 0 874.8 81.4;" xml:space="preserve">
<style type="text/css">
	.st0{enable-background:new    ;}
	.st1{fill:#183182;}
	.st2{fill:#003174;}
	.st3{fill:#082AB7;}
</style>
<g class="st0">
	<path class="st1" d="M99.6,27.5c0,3.1-0.6,5.9-1.8,8.3c-1.2,2.4-2.9,4.4-5.1,6c-2.2,1.6-4.5,2.7-7.1,3.5c-2.6,0.7-5.3,1.1-8.2,1.1
		h-6.8v18.3c0,1,0.2,1.9,0.5,2.6c0.3,0.8,1,1.3,2,1.7c0.5,0.2,1.4,0.4,2.7,0.6s2.5,0.3,3.5,0.3v3H53.5v-3c0.7-0.1,1.7-0.2,3-0.3
		s2.2-0.3,2.7-0.6c0.8-0.4,1.5-0.9,1.8-1.6c0.4-0.7,0.6-1.6,0.6-2.7V21.3c0-1-0.1-1.9-0.4-2.7c-0.3-0.8-0.9-1.4-2-1.8
		c-1.1-0.4-2.1-0.6-3.2-0.8c-1.1-0.2-2-0.3-2.7-0.3v-3h27.5c5.6,0,10.2,1.4,13.7,4.1C97.9,19.4,99.6,23,99.6,27.5z M86.7,37.8
		c1-1.4,1.6-2.8,1.9-4.2c0.3-1.5,0.5-2.8,0.5-3.9c0-1.6-0.2-3.3-0.6-4.9c-0.4-1.7-1-3.1-2-4.4c-1-1.3-2.3-2.4-3.9-3.1
		s-3.6-1.1-6-1.1h-6v26.6h4.3c3.1,0,5.5-0.5,7.5-1.4C84.3,40.4,85.7,39.2,86.7,37.8z"/>
	<path class="st1" d="M137.5,36.5c0,1.4-0.4,2.7-1.1,3.8c-0.7,1.1-1.8,1.7-3.3,1.7c-1.6,0-2.8-0.4-3.6-1.2s-1.3-1.7-1.3-2.7
		c0-0.6,0-1.2,0.1-1.7s0.2-1,0.3-1.5c-1.3,0-2.9,0.5-4.7,1.6s-3.3,2.6-4.5,4.6v24.4c0,1,0.2,1.8,0.6,2.4c0.4,0.6,1,1.1,1.8,1.4
		c0.7,0.3,1.6,0.5,2.7,0.6c1.1,0.1,2.1,0.2,2.9,0.3V73h-22.1v-2.8c0.7-0.1,1.3-0.1,2-0.2s1.3-0.2,1.8-0.3c0.8-0.3,1.4-0.7,1.8-1.3
		c0.4-0.6,0.6-1.5,0.6-2.5V40c0-0.9-0.2-1.7-0.6-2.6c-0.4-0.8-1-1.5-1.7-2c-0.5-0.3-1.2-0.6-1.9-0.7c-0.7-0.2-1.5-0.3-2.4-0.3v-2.8
		l13.9-0.9l0.6,0.6v5.9h0.2c1.8-2.3,3.7-4,5.9-5.2c2.2-1.2,4.1-1.8,5.9-1.8s3.2,0.6,4.4,1.7C137,32.9,137.5,34.5,137.5,36.5z"/>
	<path class="st1" d="M181.9,51.6c0,2.9-0.5,5.8-1.4,8.7c-0.9,2.8-2.3,5.3-4,7.2c-2,2.3-4.2,4-6.8,5.1c-2.6,1.1-5.5,1.7-8.7,1.7
		c-2.7,0-5.2-0.5-7.6-1.5c-2.4-1-4.6-2.5-6.4-4.4c-1.8-1.9-3.3-4.2-4.4-6.9c-1.1-2.7-1.6-5.8-1.6-9.2c0-6.5,1.9-11.9,5.7-16.1
		c3.8-4.2,8.8-6.2,15-6.2c5.9,0,10.7,2,14.5,5.9C180,39.8,181.9,45,181.9,51.6z M173.2,51.7c0-2.1-0.2-4.4-0.6-6.7
		c-0.4-2.4-1.1-4.4-1.9-6c-0.9-1.8-2.1-3.2-3.6-4.2c-1.5-1.1-3.3-1.6-5.4-1.6c-2.2,0-4,0.5-5.6,1.6c-1.5,1.1-2.8,2.5-3.8,4.4
		c-0.9,1.7-1.5,3.7-1.9,5.9c-0.4,2.2-0.6,4.3-0.6,6.4c0,2.7,0.2,5.2,0.7,7.5c0.4,2.3,1.1,4.4,2.1,6.2c1,1.8,2.2,3.2,3.6,4.3
		c1.5,1,3.3,1.6,5.4,1.6c3.5,0,6.4-1.7,8.4-5.1C172.1,62.4,173.2,57.7,173.2,51.7z"/>
	<path class="st1" d="M233.9,72.2l-14.7,0.9l-0.6-0.6v-3.9l-0.3-0.1c-1.5,1.6-3.3,3-5.5,4c-2.2,1-4.4,1.6-6.7,1.6
		c-2.4,0-4.7-0.5-6.9-1.6c-2.2-1.1-4.2-2.6-5.8-4.5c-1.7-2-3-4.3-4-7.1c-1-2.7-1.5-5.8-1.5-9.1c0-3,0.5-5.9,1.6-8.6
		c1-2.7,2.5-5.1,4.3-7.1c1.7-1.9,3.8-3.4,6.3-4.5c2.5-1.1,5.1-1.7,7.7-1.7c2,0,3.9,0.2,5.7,0.7c1.9,0.5,3.5,1.1,4.9,1.9V18
		c0-1.2-0.2-2.3-0.6-3.3c-0.4-1-0.9-1.7-1.7-2.2c-0.8-0.5-1.9-0.9-3.2-1.2c-1.3-0.2-2.8-0.4-4.4-0.5V8.1l17.2-0.9l0.6,0.6v56.5
		c0,1,0.2,1.8,0.6,2.5c0.4,0.7,0.9,1.3,1.7,1.8c0.5,0.3,1.3,0.6,2.3,0.6s2,0.1,2.8,0.2V72.2z M218.5,64.8V40.3
		c-0.2-0.7-0.6-1.5-1.1-2.4s-1.1-1.6-1.9-2.3c-0.8-0.7-1.8-1.3-2.9-1.8c-1.1-0.5-2.4-0.7-3.9-0.7c-1.7,0-3.3,0.4-4.7,1.3
		c-1.4,0.9-2.7,2.1-3.8,3.8c-1,1.6-1.9,3.6-2.5,6.1c-0.6,2.5-0.9,5.2-0.9,8.1c0,2.4,0.2,4.5,0.7,6.5c0.5,1.9,1.2,3.7,2.3,5.4
		c1,1.6,2.3,2.9,3.8,3.8c1.5,1,3.4,1.4,5.5,1.4c2.3,0,4.1-0.5,5.6-1.5C216.2,67.1,217.5,66,218.5,64.8z"/>
	<path class="st1" d="M282.8,72.2l-13.7,0.9l-0.6-0.6v-5.3h-0.3c-0.7,0.7-1.4,1.5-2.3,2.3c-0.8,0.8-1.8,1.5-2.9,2.2
		c-1.3,0.8-2.5,1.3-3.7,1.7s-2.9,0.6-5,0.6c-3.7,0-6.5-1.2-8.5-3.6c-1.9-2.4-2.9-5.9-2.9-10.5v-20c0-1-0.2-1.9-0.6-2.6
		c-0.4-0.7-0.9-1.3-1.7-1.8c-0.5-0.3-1.2-0.6-1.9-0.7s-1.6-0.3-2.4-0.3v-2.8l14-1l0.6,0.6v29.1c0,3,0.7,5.3,2,6.8s3,2.3,4.9,2.3
		c1.6,0,2.9-0.2,4.2-0.7c1.2-0.5,2.2-1,3.1-1.7c0.8-0.6,1.4-1.2,2-1.9c0.6-0.7,1-1.3,1.3-1.8V39.5c0-0.9-0.2-1.8-0.6-2.5
		c-0.4-0.7-0.9-1.3-1.7-1.8c-0.5-0.3-1.3-0.5-2.3-0.6s-2.1-0.1-3.4-0.2v-2.8l15.2-1l0.6,0.6v33.2c0,1,0.2,1.8,0.6,2.5
		c0.4,0.7,0.9,1.3,1.7,1.7c0.5,0.3,1.1,0.5,1.8,0.6c0.7,0.1,1.5,0.2,2.3,0.2V72.2z"/>
	<path class="st1" d="M307.3,74.1c-6.1,0-10.8-2-14.2-6c-3.4-4-5.1-9.4-5.1-16.2c0-2.9,0.5-5.7,1.4-8.3c0.9-2.6,2.3-4.9,4-7
		c1.7-2,3.8-3.6,6.3-4.9c2.5-1.2,5.3-1.8,8.2-1.8c4.1,0,7.4,1,10,3c2.6,2,3.9,4.7,3.9,8.1c0,1.4-0.3,2.7-1,3.8
		c-0.7,1.1-1.8,1.6-3.4,1.6c-1.7,0-3-0.4-3.9-1.3s-1.4-1.8-1.4-2.8c0-1.3,0.2-2.6,0.5-3.9s0.5-2.3,0.6-2.9c-0.5-0.9-1.3-1.5-2.3-1.8
		c-1-0.3-2.1-0.4-3.2-0.4c-1.4,0-2.6,0.3-3.9,0.9s-2.4,1.6-3.6,3.2c-1,1.4-1.9,3.3-2.5,5.7c-0.6,2.4-1,5.3-1,8.6
		c0,5.3,1.2,9.6,3.5,12.9c2.3,3.3,5.4,5,9.2,5c2.7,0,5-0.7,6.9-2s3.6-3.3,5.2-6l2.7,1.8c-1.9,3.3-4.3,6-7.4,7.9
		C313.8,73.1,310.6,74.1,307.3,74.1z"/>
	<path class="st1" d="M353.4,71.1c-1.8,0.8-3.6,1.4-5.2,1.9c-1.6,0.5-3.7,0.8-6,0.8c-3.5,0-6-0.9-7.4-2.7c-1.4-1.8-2.1-4.3-2.1-7.5
		V35.3H325v-4.1h7.7v-13h7.7v13h12v4.1h-11.9v23.4c0,1.8,0.1,3.2,0.2,4.4c0.1,1.2,0.4,2.2,0.9,3.1c0.5,0.8,1.1,1.4,2,1.9
		c0.9,0.4,2.1,0.6,3.7,0.6c0.7,0,1.7-0.1,3.1-0.2c1.4-0.1,2.3-0.3,2.9-0.5V71.1z"/>
	<path class="st1" d="M377.8,73h-20.2v-2.8c0.7-0.1,1.3-0.1,2-0.2s1.3-0.2,1.8-0.3c0.8-0.3,1.4-0.7,1.8-1.3c0.4-0.6,0.6-1.5,0.6-2.5
		V40c0-0.9-0.2-1.7-0.6-2.5c-0.4-0.7-1-1.4-1.7-1.9c-0.5-0.3-1.3-0.6-2.3-0.9s-2-0.4-2.8-0.4v-2.8l14.8-0.9l0.6,0.6v34.2
		c0,1,0.2,1.8,0.6,2.5c0.4,0.7,1,1.1,1.8,1.4c0.6,0.3,1.2,0.5,1.8,0.6s1.3,0.3,2,0.3V73z M372.5,14c0,1.6-0.5,3-1.6,4.2
		c-1.1,1.2-2.4,1.8-3.9,1.8c-1.4,0-2.7-0.6-3.8-1.7c-1.1-1.1-1.6-2.5-1.6-3.9c0-1.6,0.5-2.9,1.6-4.1c1.1-1.2,2.3-1.7,3.8-1.7
		c1.6,0,2.9,0.5,4,1.6C372,11.3,372.5,12.6,372.5,14z"/>
	<path class="st1" d="M423.9,51.6c0,2.9-0.5,5.8-1.4,8.7c-0.9,2.8-2.3,5.3-4,7.2c-2,2.3-4.2,4-6.8,5.1c-2.6,1.1-5.5,1.7-8.7,1.7
		c-2.7,0-5.2-0.5-7.6-1.5c-2.4-1-4.5-2.5-6.4-4.4c-1.8-1.9-3.3-4.2-4.4-6.9c-1.1-2.7-1.6-5.8-1.6-9.2c0-6.5,1.9-11.9,5.7-16.1
		c3.8-4.2,8.8-6.2,15-6.2c5.9,0,10.7,2,14.5,5.9C422,39.8,423.9,45,423.9,51.6z M415.1,51.7c0-2.1-0.2-4.4-0.6-6.7
		c-0.4-2.4-1.1-4.4-1.9-6c-0.9-1.8-2.1-3.2-3.6-4.2c-1.5-1.1-3.3-1.6-5.4-1.6c-2.2,0-4,0.5-5.6,1.6c-1.5,1.1-2.8,2.5-3.8,4.4
		c-0.9,1.7-1.5,3.7-1.9,5.9s-0.6,4.3-0.6,6.4c0,2.7,0.2,5.2,0.7,7.5c0.4,2.3,1.1,4.4,2.1,6.2c1,1.8,2.2,3.2,3.6,4.3
		c1.5,1,3.3,1.6,5.4,1.6c3.5,0,6.4-1.7,8.4-5.1C414,62.4,415.1,57.7,415.1,51.7z"/>
	<path class="st1" d="M476.2,73h-20.5v-2.8c0.7-0.1,1.4-0.1,2.1-0.2s1.4-0.2,1.9-0.3c0.8-0.3,1.4-0.7,1.8-1.3
		c0.4-0.6,0.6-1.5,0.6-2.5V44.3c0-3-0.7-5.3-2.1-6.9c-1.4-1.6-3.1-2.4-5.1-2.4c-1.5,0-2.9,0.2-4.1,0.7c-1.2,0.5-2.4,1-3.3,1.7
		c-0.9,0.7-1.7,1.4-2.2,2.1s-1,1.4-1.2,1.8v24.1c0,1,0.2,1.8,0.6,2.4c0.4,0.6,1,1.1,1.8,1.4c0.6,0.3,1.2,0.5,1.9,0.6
		c0.7,0.1,1.4,0.2,2.1,0.3V73h-20.5v-2.8c0.7-0.1,1.3-0.1,2-0.2s1.3-0.2,1.8-0.3c0.8-0.3,1.4-0.7,1.8-1.3c0.4-0.6,0.6-1.5,0.6-2.5
		V40c0-1-0.2-1.8-0.6-2.7c-0.4-0.8-1-1.5-1.7-2c-0.5-0.3-1.2-0.6-1.9-0.7c-0.7-0.2-1.5-0.3-2.4-0.3v-2.8l13.9-0.9l0.6,0.6v5.9h0.2
		c0.7-0.7,1.5-1.5,2.5-2.4c1-0.9,2-1.7,2.9-2.3c1-0.7,2.3-1.2,3.7-1.7c1.4-0.5,3.1-0.7,4.9-0.7c4,0,7,1.3,8.9,3.8
		c1.9,2.5,2.9,5.8,2.9,10v21.8c0,1,0.2,1.8,0.5,2.4s0.9,1.1,1.7,1.4c0.7,0.3,1.3,0.5,1.8,0.6c0.5,0.1,1.2,0.2,2.1,0.3V73z"/>
	<path class="st1" d="M540.9,45.3c1.3,1.4,2.2,3,2.8,4.7s0.9,3.6,0.9,5.9c0,5.3-2,9.7-5.9,13.2c-3.9,3.5-8.8,5.2-14.7,5.2
		c-2.7,0-5.4-0.4-8.1-1.3s-5-1.8-7-3l-1.8,3.1h-3.4l-0.6-20.6h3.4c0.7,2.5,1.5,4.9,2.5,6.9c0.9,2.1,2.2,4,3.8,5.8
		c1.5,1.7,3.2,3,5.2,4c2,1,4.3,1.5,6.9,1.5c2,0,3.7-0.3,5.1-0.8c1.5-0.5,2.6-1.2,3.5-2.2c0.9-0.9,1.6-2,2-3.3
		c0.4-1.3,0.7-2.7,0.7-4.4c0-2.4-0.7-4.7-2-6.7s-3.4-3.7-6.1-4.7c-1.8-0.7-4-1.5-6.3-2.4c-2.4-0.9-4.4-1.7-6.2-2.5
		c-3.4-1.5-6-3.5-7.9-6c-1.9-2.5-2.8-5.7-2.8-9.7c0-2.3,0.5-4.4,1.4-6.4c0.9-2,2.3-3.8,4-5.3c1.6-1.5,3.6-2.6,5.8-3.5s4.6-1.3,7-1.3
		c2.8,0,5.3,0.4,7.5,1.3c2.2,0.8,4.2,1.8,6,3l1.7-2.9h3.4l0.3,20h-3.4c-0.6-2.3-1.3-4.5-2.1-6.6c-0.8-2.1-1.8-4-3-5.7
		c-1.2-1.6-2.7-3-4.5-3.9c-1.8-1-3.9-1.5-6.5-1.5c-2.7,0-5,0.9-6.9,2.6s-2.8,3.8-2.8,6.3c0,2.6,0.6,4.8,1.8,6.5
		c1.2,1.7,3,3.1,5.3,4.2c2.1,1,4.1,1.8,6.1,2.6c2,0.7,3.9,1.5,5.8,2.3c1.7,0.7,3.3,1.6,4.9,2.5C538.4,43,539.7,44.1,540.9,45.3z"/>
	<path class="st1" d="M592,51.6c0,2.9-0.5,5.8-1.4,8.7c-0.9,2.8-2.3,5.3-4,7.2c-2,2.3-4.2,4-6.8,5.1c-2.6,1.1-5.5,1.7-8.7,1.7
		c-2.7,0-5.2-0.5-7.6-1.5c-2.4-1-4.5-2.5-6.4-4.4c-1.8-1.9-3.3-4.2-4.4-6.9c-1.1-2.7-1.6-5.8-1.6-9.2c0-6.5,1.9-11.9,5.7-16.1
		c3.8-4.2,8.8-6.2,15-6.2c5.9,0,10.7,2,14.5,5.9C590.1,39.8,592,45,592,51.6z M583.2,51.7c0-2.1-0.2-4.4-0.6-6.7
		c-0.4-2.4-1.1-4.4-1.9-6c-0.9-1.8-2.1-3.2-3.6-4.2c-1.5-1.1-3.3-1.6-5.4-1.6c-2.2,0-4,0.5-5.6,1.6c-1.5,1.1-2.8,2.5-3.8,4.4
		c-0.9,1.7-1.5,3.7-1.9,5.9s-0.6,4.3-0.6,6.4c0,2.7,0.2,5.2,0.7,7.5c0.4,2.3,1.1,4.4,2.1,6.2c1,1.8,2.2,3.2,3.6,4.3
		c1.5,1,3.3,1.6,5.4,1.6c3.5,0,6.4-1.7,8.4-5.1C582.1,62.4,583.2,57.7,583.2,51.7z"/>
	<path class="st1" d="M617.6,73h-20.4v-2.8c0.7-0.1,1.3-0.1,2.1-0.2c0.7-0.1,1.3-0.2,1.8-0.3c0.8-0.3,1.4-0.7,1.8-1.3
		c0.4-0.6,0.6-1.5,0.6-2.5V17.3c0-1-0.2-2-0.7-2.9s-1-1.6-1.7-2.1c-0.5-0.3-1.4-0.7-2.8-0.9c-1.4-0.3-2.4-0.5-3.3-0.5V8.1l15.8-0.9
		l0.6,0.6v57.5c0,1,0.2,1.8,0.6,2.4c0.4,0.6,1,1.1,1.8,1.5c0.6,0.3,1.2,0.5,1.8,0.6c0.6,0.1,1.3,0.2,2.1,0.3V73z"/>
	<path class="st1" d="M667.8,72.2l-13.7,0.9l-0.6-0.6v-5.3h-0.3c-0.7,0.7-1.4,1.5-2.3,2.3c-0.8,0.8-1.8,1.5-2.9,2.2
		c-1.3,0.8-2.5,1.3-3.7,1.7s-2.9,0.6-5,0.6c-3.7,0-6.5-1.2-8.5-3.6c-1.9-2.4-2.9-5.9-2.9-10.5v-20c0-1-0.2-1.9-0.6-2.6
		c-0.4-0.7-0.9-1.3-1.7-1.8c-0.5-0.3-1.2-0.6-1.9-0.7c-0.8-0.2-1.6-0.3-2.4-0.3v-2.8l14-1l0.6,0.6v29.1c0,3,0.7,5.3,2,6.8
		s3,2.3,4.9,2.3c1.6,0,2.9-0.2,4.2-0.7s2.2-1,3.1-1.7c0.8-0.6,1.4-1.2,2-1.9c0.6-0.7,1-1.3,1.3-1.8V39.5c0-0.9-0.2-1.8-0.6-2.5
		c-0.4-0.7-0.9-1.3-1.7-1.8c-0.5-0.3-1.3-0.5-2.3-0.6s-2.1-0.1-3.4-0.2v-2.8l15.2-1l0.6,0.6v33.2c0,1,0.2,1.8,0.6,2.5
		c0.4,0.7,0.9,1.3,1.7,1.7c0.5,0.3,1.1,0.5,1.8,0.6s1.5,0.2,2.3,0.2V72.2z"/>
	<path class="st1" d="M698.8,71.1c-1.8,0.8-3.6,1.4-5.2,1.9c-1.6,0.5-3.7,0.8-6,0.8c-3.5,0-6-0.9-7.4-2.7s-2.1-4.3-2.1-7.5V35.3
		h-7.6v-4.1h7.7v-13h7.7v13h12v4.1H686v23.4c0,1.8,0.1,3.2,0.2,4.4c0.1,1.2,0.4,2.2,0.9,3.1c0.5,0.8,1.1,1.4,2,1.9
		c0.9,0.4,2.1,0.6,3.7,0.6c0.7,0,1.7-0.1,3.1-0.2c1.4-0.1,2.3-0.3,2.9-0.5V71.1z"/>
	<path class="st1" d="M723.3,73h-20.2v-2.8c0.7-0.1,1.3-0.1,2-0.2s1.3-0.2,1.8-0.3c0.8-0.3,1.4-0.7,1.8-1.3c0.4-0.6,0.6-1.5,0.6-2.5
		V40c0-0.9-0.2-1.7-0.6-2.5c-0.4-0.7-1-1.4-1.7-1.9c-0.5-0.3-1.3-0.6-2.3-0.9s-2-0.4-2.8-0.4v-2.8l14.8-0.9l0.6,0.6v34.2
		c0,1,0.2,1.8,0.6,2.5c0.4,0.7,1,1.1,1.8,1.4c0.6,0.3,1.2,0.5,1.8,0.6s1.3,0.3,2,0.3V73z M718,14c0,1.6-0.5,3-1.6,4.2
		c-1.1,1.2-2.4,1.8-3.9,1.8c-1.4,0-2.7-0.6-3.8-1.7c-1.1-1.1-1.6-2.5-1.6-3.9c0-1.6,0.5-2.9,1.6-4.1c1.1-1.2,2.3-1.7,3.8-1.7
		c1.6,0,2.9,0.5,4,1.6C717.4,11.3,718,12.6,718,14z"/>
	<path class="st1" d="M769.3,51.6c0,2.9-0.5,5.8-1.4,8.7c-0.9,2.8-2.3,5.3-4,7.2c-2,2.3-4.2,4-6.8,5.1c-2.6,1.1-5.5,1.7-8.7,1.7
		c-2.7,0-5.2-0.5-7.6-1.5c-2.4-1-4.5-2.5-6.4-4.4c-1.8-1.9-3.3-4.2-4.4-6.9c-1.1-2.7-1.6-5.8-1.6-9.2c0-6.5,1.9-11.9,5.7-16.1
		c3.8-4.2,8.8-6.2,15-6.2c5.9,0,10.7,2,14.5,5.9C767.4,39.8,769.3,45,769.3,51.6z M760.5,51.7c0-2.1-0.2-4.4-0.6-6.7
		c-0.4-2.4-1.1-4.4-1.9-6c-0.9-1.8-2.1-3.2-3.6-4.2c-1.5-1.1-3.3-1.6-5.4-1.6c-2.2,0-4,0.5-5.6,1.6c-1.5,1.1-2.8,2.5-3.8,4.4
		c-0.9,1.7-1.5,3.7-1.9,5.9s-0.6,4.3-0.6,6.4c0,2.7,0.2,5.2,0.7,7.5c0.4,2.3,1.1,4.4,2.1,6.2c1,1.8,2.2,3.2,3.6,4.3
		c1.5,1,3.3,1.6,5.4,1.6c3.5,0,6.4-1.7,8.4-5.1C759.5,62.4,760.5,57.7,760.5,51.7z"/>
	<path class="st1" d="M821.6,73h-20.5v-2.8c0.7-0.1,1.4-0.1,2.1-0.2s1.4-0.2,1.9-0.3c0.8-0.3,1.4-0.7,1.8-1.3
		c0.4-0.6,0.6-1.5,0.6-2.5V44.3c0-3-0.7-5.3-2.1-6.9c-1.4-1.6-3.1-2.4-5.1-2.4c-1.5,0-2.9,0.2-4.1,0.7c-1.2,0.5-2.4,1-3.3,1.7
		c-0.9,0.7-1.7,1.4-2.2,2.1s-1,1.4-1.2,1.8v24.1c0,1,0.2,1.8,0.6,2.4c0.4,0.6,1,1.1,1.8,1.4c0.6,0.3,1.2,0.5,1.9,0.6
		c0.7,0.1,1.4,0.2,2.1,0.3V73h-20.5v-2.8c0.7-0.1,1.3-0.1,2-0.2s1.3-0.2,1.8-0.3c0.8-0.3,1.4-0.7,1.8-1.3c0.4-0.6,0.6-1.5,0.6-2.5
		V40c0-1-0.2-1.8-0.6-2.7c-0.4-0.8-1-1.5-1.7-2c-0.5-0.3-1.2-0.6-1.9-0.7c-0.7-0.2-1.5-0.3-2.4-0.3v-2.8l13.9-0.9l0.6,0.6v5.9h0.2
		c0.7-0.7,1.5-1.5,2.5-2.4c1-0.9,2-1.7,2.9-2.3c1-0.7,2.3-1.2,3.7-1.7c1.4-0.5,3.1-0.7,4.9-0.7c4,0,7,1.3,8.9,3.8
		c1.9,2.5,2.9,5.8,2.9,10v21.8c0,1,0.2,1.8,0.5,2.4s0.9,1.1,1.7,1.4c0.7,0.3,1.3,0.5,1.8,0.6c0.5,0.1,1.2,0.2,2.1,0.3V73z"/>
</g>
</svg>
