<?xml version="1.0" encoding="utf-8"?>
<!-- Generator: Adobe Illustrator 26.5.0, SVG Export Plug-In . SVG Version: 6.00 Build 0)  -->
<svg version="1.1" id="레이어_1" xmlns="http://www.w3.org/2000/svg" xmlns:xlink="http://www.w3.org/1999/xlink" x="0px"
	 y="0px" viewBox="0 0 874.8 81.4" style="enable-background:new 0 0 874.8 81.4;" xml:space="preserve">
<style type="text/css">
	.st0{enable-background:new    ;}
	.st1{fill:#183182;}
	.st2{fill:#003174;}
	.st3{fill:#082AB7;}
</style>
<g>
	<g class="st0">
		<path class="st3" d="M80.1,73.9H53.5v-3c1,0,2.2-0.1,3.7-0.3c1.5-0.2,2.6-0.4,3.1-0.7c0.9-0.5,1.5-1.2,1.9-1.8
			c0.4-0.7,0.6-1.6,0.6-2.6V21.5h-0.6L41.7,72.9h-2.1L20,20.5h-0.6v36c0,3.5,0.2,6.1,0.7,7.9c0.4,1.8,1.1,3.1,2,3.9
			c0.6,0.6,1.9,1.2,3.9,1.7s3.2,0.8,3.8,0.8v3H5.5v-3c1.3-0.1,2.6-0.3,4-0.6c1.4-0.3,2.5-0.8,3.2-1.4c1-0.8,1.7-2,2-3.7
			c0.4-1.6,0.6-4.4,0.6-8.2V26.1c0-1.8-0.2-3.2-0.6-4.4s-1-2.1-1.8-2.8c-0.9-0.8-2-1.3-3.2-1.7c-1.3-0.4-2.5-0.6-3.8-0.6v-3h20.6
			l17.3,45.2L58.4,21c0.5-1.4,1-2.8,1.4-4.4c0.4-1.5,0.6-2.5,0.6-3h19.7v3c-0.8,0-1.8,0.2-3,0.4c-1.2,0.2-2.1,0.4-2.7,0.6
			c-1,0.3-1.6,0.9-2,1.7s-0.5,1.7-0.5,2.6v43.5c0,1,0.2,1.8,0.5,2.5s1,1.3,2,1.8c0.5,0.3,1.4,0.5,2.7,0.8c1.3,0.2,2.3,0.4,3.1,0.4
			V73.9z"/>
		<path class="st3" d="M124.4,64c-1.8,3.3-4.1,6-7.1,8c-2.9,2-6.3,3-10.2,3c-3.4,0-6.3-0.6-8.9-1.8c-2.5-1.2-4.6-2.8-6.3-4.8
			c-1.6-2-2.9-4.4-3.7-7.1c-0.8-2.7-1.2-5.6-1.2-8.6c0-2.7,0.4-5.4,1.3-8c0.9-2.6,2.1-5,3.8-7.1c1.6-2,3.6-3.6,6-4.9
			c2.4-1.2,5.1-1.8,8.1-1.8c3.1,0,5.7,0.5,7.9,1.4c2.2,1,4,2.3,5.3,4c1.3,1.6,2.3,3.5,2.9,5.6c0.6,2.2,1,4.5,1,7v2.8H95.6
			c0,2.8,0.3,5.3,0.8,7.5s1.4,4.2,2.5,5.9c1.1,1.6,2.5,2.9,4.3,3.9c1.8,1,3.9,1.4,6.4,1.4c2.5,0,4.7-0.6,6.5-1.8
			c1.8-1.2,3.6-3.3,5.3-6.4L124.4,64z M115,48c0-1.6-0.1-3.3-0.4-5.1s-0.7-3.3-1.3-4.5c-0.7-1.3-1.5-2.4-2.7-3.2
			c-1.1-0.8-2.6-1.2-4.4-1.2c-3,0-5.4,1.2-7.4,3.7c-2,2.5-3,5.9-3.2,10.3H115z"/>
		<path class="st3" d="M155.1,72c-1.8,0.8-3.6,1.4-5.2,1.9c-1.6,0.5-3.7,0.8-6,0.8c-3.5,0-6-0.9-7.4-2.7s-2.1-4.3-2.1-7.5V36.2h-7.6
			v-4.1h7.7v-13h7.7v13h12v4.1h-11.9v23.4c0,1.8,0.1,3.2,0.2,4.4c0.1,1.2,0.4,2.2,0.9,3.1c0.5,0.8,1.1,1.4,2,1.9
			c0.9,0.4,2.1,0.6,3.7,0.6c0.7,0,1.7-0.1,3.1-0.2c1.4-0.1,2.3-0.3,2.9-0.5V72z"/>
		<path class="st3" d="M198.9,73.1c-1.3,0.5-2.5,0.9-3.5,1.2c-1,0.3-2.1,0.4-3.4,0.4c-2.2,0-4-0.5-5.3-1.6c-1.3-1-2.2-2.5-2.5-4.5
			h-0.3c-1.8,2-3.8,3.6-5.9,4.7c-2.1,1.1-4.7,1.6-7.6,1.6c-3.1,0-5.7-1-7.8-2.9c-2-1.9-3-4.4-3-7.6c0-1.6,0.2-3.1,0.7-4.3
			c0.5-1.3,1.1-2.4,2-3.4c0.7-0.8,1.6-1.6,2.8-2.3c1.2-0.7,2.3-1.2,3.3-1.6c1.3-0.5,3.9-1.4,7.8-2.7s6.5-2.3,7.9-3.1v-4.2
			c0-0.4-0.1-1.1-0.2-2.1s-0.5-2-1-3c-0.6-1-1.4-2-2.4-2.7s-2.5-1.2-4.4-1.2c-1.3,0-2.5,0.2-3.6,0.7c-1.1,0.4-1.9,0.9-2.4,1.4
			c0,0.6,0.1,1.4,0.4,2.5c0.3,1.1,0.4,2.1,0.4,3.1c0,1-0.4,1.9-1.3,2.7c-0.9,0.8-2.1,1.2-3.7,1.2c-1.4,0-2.5-0.5-3.1-1.5
			c-0.7-1-1-2.1-1-3.4c0-1.3,0.5-2.5,1.4-3.7c0.9-1.2,2.1-2.3,3.6-3.2c1.3-0.8,2.8-1.5,4.6-2c1.8-0.6,3.6-0.8,5.3-0.8
			c2.4,0,4.5,0.2,6.2,0.5c1.8,0.3,3.4,1,4.8,2.1c1.4,1,2.5,2.5,3.3,4.3c0.8,1.8,1.1,4.1,1.1,6.9c0,4.1,0,7.6-0.1,10.8
			s-0.1,6.5-0.1,10.3c0,1.1,0.2,2,0.6,2.6c0.4,0.7,1,1.2,1.8,1.7c0.4,0.3,1.1,0.4,2,0.4s1.9,0,2.8,0V73.1z M184.1,50.7
			c-2.4,0.7-4.5,1.4-6.3,2.1c-1.8,0.7-3.5,1.5-5.1,2.6c-1.4,1-2.5,2.1-3.4,3.4c-0.8,1.3-1.2,2.9-1.2,4.7c0,2.4,0.6,4.1,1.8,5.2
			c1.2,1.1,2.8,1.7,4.7,1.7c2,0,3.8-0.5,5.3-1.5s2.8-2.1,3.9-3.5L184.1,50.7z"/>
		<path class="st3" d="M254.9,56.1l-1.1,17.8h-50v-3c0.8-0.1,2-0.2,3.4-0.4c1.4-0.2,2.3-0.4,2.8-0.6c0.9-0.4,1.5-1,1.9-1.7
			s0.5-1.5,0.5-2.6V22.3c0-0.9-0.2-1.8-0.5-2.5c-0.3-0.7-1-1.3-2-1.8c-0.8-0.4-1.8-0.7-3.1-1c-1.3-0.3-2.3-0.5-3.1-0.5v-3h46.6v14.5
			h-3.2c-0.6-2.2-1.8-4.4-3.7-6.9c-1.9-2.4-3.7-3.7-5.4-4c-0.9-0.1-1.9-0.2-3.1-0.3c-1.2-0.1-2.6-0.1-4.2-0.1h-9.5v24h6.8
			c2.2,0,3.8-0.2,4.8-0.6c1-0.4,1.9-1.1,2.7-2.1c0.6-0.8,1.2-1.9,1.6-3.3c0.4-1.4,0.7-2.7,0.9-3.9h3.2v23.6H238
			c-0.1-1.4-0.4-2.8-0.9-4.3c-0.5-1.5-1-2.6-1.6-3.3c-0.9-1.1-1.9-1.8-3-2.2s-2.6-0.5-4.4-0.5h-6.8v18.1c0,1.8,0.1,3.2,0.4,4.3
			s0.8,1.8,1.5,2.4c0.7,0.5,1.7,0.9,3,1s3.1,0.2,5.4,0.2c0.9,0,2.2,0,3.7,0s2.8-0.1,3.9-0.2c1.1-0.1,2.2-0.3,3.3-0.6
			c1.1-0.3,2-0.7,2.4-1.2c1.3-1.4,2.7-3.4,4.1-6.2c1.4-2.8,2.3-4.8,2.7-6.1H254.9z"/>
		<path class="st3" d="M279.3,75c-6.1,0-10.8-2-14.2-6c-3.4-4-5.1-9.4-5.1-16.2c0-2.9,0.5-5.7,1.4-8.3c0.9-2.6,2.3-4.9,4-7
			c1.7-2,3.8-3.6,6.3-4.9c2.5-1.2,5.3-1.8,8.2-1.8c4.1,0,7.4,1,10,3c2.6,2,3.9,4.7,3.9,8.1c0,1.4-0.3,2.7-1,3.8
			c-0.7,1.1-1.8,1.6-3.4,1.6c-1.7,0-3-0.4-3.9-1.3c-0.9-0.8-1.4-1.8-1.4-2.8c0-1.3,0.2-2.6,0.5-3.9s0.5-2.3,0.6-2.9
			c-0.5-0.9-1.3-1.5-2.3-1.8c-1-0.3-2.1-0.4-3.2-0.4c-1.4,0-2.6,0.3-3.9,0.9s-2.4,1.6-3.6,3.2c-1,1.4-1.9,3.3-2.5,5.7
			c-0.6,2.4-1,5.3-1,8.6c0,5.3,1.2,9.6,3.5,12.9c2.3,3.3,5.4,5,9.2,5c2.7,0,5-0.7,6.9-2c1.9-1.3,3.6-3.3,5.2-6l2.7,1.8
			c-1.9,3.3-4.3,6-7.4,7.9C285.7,74,282.5,75,279.3,75z"/>
		<path class="st3" d="M340.3,52.5c0,2.9-0.5,5.8-1.4,8.7c-0.9,2.8-2.3,5.3-4,7.2c-2,2.3-4.2,4-6.8,5.1c-2.6,1.1-5.5,1.7-8.7,1.7
			c-2.7,0-5.2-0.5-7.6-1.5c-2.4-1-4.5-2.5-6.4-4.4c-1.8-1.9-3.3-4.2-4.4-6.9c-1.1-2.7-1.6-5.8-1.6-9.2c0-6.5,1.9-11.9,5.7-16.1
			c3.8-4.2,8.8-6.2,15-6.2c5.9,0,10.7,2,14.5,5.9C338.4,40.7,340.3,45.9,340.3,52.5z M331.5,52.6c0-2.1-0.2-4.4-0.6-6.7
			c-0.4-2.4-1.1-4.4-1.9-6c-0.9-1.8-2.1-3.2-3.6-4.2c-1.5-1.1-3.3-1.6-5.4-1.6c-2.2,0-4,0.5-5.6,1.6c-1.5,1.1-2.8,2.5-3.8,4.4
			c-0.9,1.7-1.5,3.7-1.9,5.9s-0.6,4.3-0.6,6.4c0,2.7,0.2,5.2,0.7,7.5c0.4,2.3,1.1,4.4,2.1,6.2s2.2,3.2,3.6,4.3
			c1.5,1,3.3,1.6,5.4,1.6c3.5,0,6.4-1.7,8.4-5.1C330.5,63.4,331.5,58.6,331.5,52.6z"/>
		<path class="st3" d="M426.9,46.2c1.3,1.4,2.2,3,2.8,4.7s0.9,3.6,0.9,5.9c0,5.3-2,9.7-5.9,13.2c-3.9,3.5-8.8,5.2-14.7,5.2
			c-2.7,0-5.4-0.4-8.1-1.3s-5-1.8-7-3l-1.8,3.1h-3.4l-0.6-20.6h3.4c0.7,2.5,1.5,4.9,2.5,6.9c0.9,2.1,2.2,4,3.8,5.8
			c1.5,1.7,3.2,3,5.2,4c2,1,4.3,1.5,6.9,1.5c2,0,3.7-0.3,5.1-0.8c1.5-0.5,2.6-1.2,3.5-2.2c0.9-0.9,1.6-2,2-3.3
			c0.4-1.3,0.7-2.7,0.7-4.4c0-2.4-0.7-4.7-2-6.7s-3.4-3.7-6.1-4.7c-1.8-0.7-4-1.5-6.3-2.4c-2.4-0.9-4.4-1.7-6.2-2.5
			c-3.4-1.5-6-3.5-7.9-6c-1.9-2.5-2.8-5.7-2.8-9.7c0-2.3,0.5-4.4,1.4-6.4c0.9-2,2.3-3.8,4-5.3c1.6-1.5,3.6-2.6,5.8-3.5
			s4.6-1.3,7-1.3c2.8,0,5.3,0.4,7.5,1.3c2.2,0.8,4.2,1.8,6,3l1.7-2.9h3.4l0.3,20h-3.4c-0.6-2.3-1.3-4.5-2.1-6.6
			c-0.8-2.1-1.8-4-3-5.7c-1.2-1.6-2.7-3-4.5-3.9c-1.8-1-3.9-1.5-6.5-1.5c-2.7,0-5,0.9-6.9,2.6s-2.8,3.8-2.8,6.3
			c0,2.6,0.6,4.8,1.8,6.5c1.2,1.7,3,3.1,5.3,4.2c2.1,1,4.1,1.8,6.1,2.6c2,0.7,3.9,1.5,5.8,2.3c1.7,0.7,3.3,1.6,4.9,2.5
			C424.4,43.9,425.7,45,426.9,46.2z"/>
		<path class="st3" d="M478,52.5c0,2.9-0.5,5.8-1.4,8.7c-0.9,2.8-2.3,5.3-4,7.2c-2,2.3-4.2,4-6.8,5.1c-2.6,1.1-5.5,1.7-8.7,1.7
			c-2.7,0-5.2-0.5-7.6-1.5c-2.4-1-4.5-2.5-6.4-4.4c-1.8-1.9-3.3-4.2-4.4-6.9c-1.1-2.7-1.6-5.8-1.6-9.2c0-6.5,1.9-11.9,5.7-16.1
			c3.8-4.2,8.8-6.2,15-6.2c5.9,0,10.7,2,14.5,5.9C476.1,40.7,478,45.9,478,52.5z M469.2,52.6c0-2.1-0.2-4.4-0.6-6.7
			c-0.4-2.4-1.1-4.4-1.9-6c-0.9-1.8-2.1-3.2-3.6-4.2c-1.5-1.1-3.3-1.6-5.4-1.6c-2.2,0-4,0.5-5.6,1.6c-1.5,1.1-2.8,2.5-3.8,4.4
			c-0.9,1.7-1.5,3.7-1.9,5.9s-0.6,4.3-0.6,6.4c0,2.7,0.2,5.2,0.7,7.5c0.4,2.3,1.1,4.4,2.1,6.2s2.2,3.2,3.6,4.3
			c1.5,1,3.3,1.6,5.4,1.6c3.5,0,6.4-1.7,8.4-5.1C468.1,63.4,469.2,58.6,469.2,52.6z"/>
		<path class="st3" d="M511.6,75.3c-3.6,0-7-0.7-10.3-2.1c-3.3-1.4-6.2-3.5-8.8-6.1c-2.5-2.7-4.5-5.9-6-9.8s-2.2-8.2-2.2-13
			c0-4.8,0.7-9.2,2.2-13.1c1.5-3.9,3.5-7.3,6.1-10.1c2.6-2.8,5.6-5,9.1-6.5c3.5-1.5,7.3-2.3,11.2-2.3c3,0,5.7,0.4,8.1,1.1
			c2.4,0.7,4.7,1.8,6.9,3.1l1.7-2.9h3.4l0.4,21.5h-3.5c-0.5-2.1-1.1-4.4-2-6.8c-0.9-2.4-2-4.5-3.2-6.2c-1.4-1.9-3-3.4-4.8-4.5
			c-1.9-1.1-4-1.6-6.4-1.6c-2.7,0-5.3,0.6-7.7,1.8s-4.4,3-6.1,5.4c-1.6,2.3-2.9,5.2-3.9,8.8c-0.9,3.5-1.4,7.5-1.4,11.9
			c0,3.9,0.5,7.4,1.5,10.6s2.4,6,4.2,8.5c1.8,2.4,4,4.3,6.4,5.7c2.5,1.4,5.2,2,8.3,2c2.3,0,4.4-0.4,6.3-1.1c1.9-0.7,3.6-1.7,5-2.9
			c1.4-1.2,2.7-2.7,3.7-4.2s2-3.3,2.6-5.2l3.2,1.5c-2.4,6-5.7,10.2-9.7,12.8C522,74,517.2,75.3,511.6,75.3z"/>
	</g>
	<g class="st0">
		<path class="st3" d="M583.2,46.3c-7-2-12.1-4.5-15.3-7.4c-3.2-2.9-4.8-6.5-4.8-10.9c0-4.9,1.9-8.9,5.8-12.1
			c3.9-3.2,9-4.8,15.2-4.8c4.2,0,8,0.8,11.4,2.5c3.3,1.6,5.9,3.9,7.7,6.8c1.8,2.9,2.7,6,2.7,9.5h-8.2c0-3.8-1.2-6.7-3.6-8.8
			c-2.4-2.1-5.7-3.2-10.1-3.2c-4,0-7.2,0.9-9.4,2.7c-2.3,1.8-3.4,4.2-3.4,7.4c0,2.5,1.1,4.7,3.2,6.4c2.1,1.7,5.8,3.3,10.9,4.8
			c5.1,1.4,9.2,3,12.1,4.8c2.9,1.7,5.1,3.8,6.5,6.1c1.4,2.3,2.1,5.1,2.1,8.2c0,5-2,9-5.9,12c-3.9,3-9.1,4.5-15.7,4.5
			c-4.2,0-8.2-0.8-11.9-2.4c-3.7-1.6-6.5-3.9-8.5-6.7c-2-2.8-3-6-3-9.6h8.2c0,3.7,1.4,6.7,4.1,8.9c2.8,2.2,6.4,3.2,11.1,3.2
			c4.3,0,7.6-0.9,9.9-2.6c2.3-1.8,3.4-4.1,3.4-7.2s-1.1-5.4-3.2-7C592.6,49.6,588.8,47.9,583.2,46.3z"/>
		<path class="st3" d="M613.3,50.5c0-4.5,0.9-8.6,2.7-12.2c1.8-3.6,4.2-6.4,7.4-8.3c3.2-2,6.8-2.9,10.8-2.9c6.3,0,11.3,2.2,15.2,6.5
			c3.9,4.3,5.8,10.1,5.8,17.3v0.6c0,4.5-0.9,8.5-2.6,12c-1.7,3.6-4.2,6.3-7.3,8.3c-3.2,2-6.8,3-11,3c-6.2,0-11.3-2.2-15.1-6.5
			c-3.9-4.3-5.8-10.1-5.8-17.2V50.5z M621.2,51.4c0,5.1,1.2,9.2,3.5,12.3c2.4,3.1,5.5,4.6,9.5,4.6c4,0,7.2-1.6,9.5-4.7
			c2.4-3.1,3.5-7.5,3.5-13.1c0-5-1.2-9.1-3.6-12.3c-2.4-3.1-5.6-4.7-9.5-4.7c-3.9,0-7,1.5-9.4,4.6C622.4,41.2,621.2,45.7,621.2,51.4
			z"/>
		<path class="st3" d="M673.5,73.9h-7.9V8.6h7.9V73.9z"/>
		<path class="st3" d="M714.5,69.3c-3.1,3.6-7.5,5.4-13.5,5.4c-4.9,0-8.6-1.4-11.2-4.3c-2.6-2.8-3.9-7.1-3.9-12.6V27.9h7.9v29.7
			c0,7,2.8,10.4,8.5,10.4c6,0,10-2.2,12-6.7V27.9h7.9v46h-7.5L714.5,69.3z"/>
		<path class="st3" d="M744.7,16.8v11.1h8.6V34h-8.6v28.5c0,1.8,0.4,3.2,1.1,4.1c0.8,0.9,2.1,1.4,3.9,1.4c0.9,0,2.2-0.2,3.7-0.5v6.3
			c-2.1,0.6-4.1,0.8-6,0.8c-3.5,0-6.2-1.1-7.9-3.2c-1.8-2.1-2.7-5.1-2.7-9V34h-8.4v-6.1h8.4V16.8H744.7z"/>
		<path class="st3" d="M762.5,15.7c0-1.3,0.4-2.3,1.2-3.2c0.8-0.9,1.9-1.3,3.5-1.3s2.7,0.4,3.5,1.3c0.8,0.9,1.2,2,1.2,3.2
			c0,1.3-0.4,2.3-1.2,3.2c-0.8,0.8-2,1.3-3.5,1.3s-2.7-0.4-3.5-1.3C762.9,18.1,762.5,17,762.5,15.7z M771,73.9h-7.9v-46h7.9V73.9z"
			/>
		<path class="st3" d="M781.5,50.5c0-4.5,0.9-8.6,2.7-12.2c1.8-3.6,4.2-6.4,7.4-8.3c3.2-2,6.8-2.9,10.8-2.9c6.3,0,11.3,2.2,15.2,6.5
			c3.9,4.3,5.8,10.1,5.8,17.3v0.6c0,4.5-0.9,8.5-2.6,12c-1.7,3.6-4.2,6.3-7.3,8.3c-3.2,2-6.8,3-11,3c-6.2,0-11.3-2.2-15.1-6.5
			c-3.9-4.3-5.8-10.1-5.8-17.2V50.5z M789.4,51.4c0,5.1,1.2,9.2,3.5,12.3c2.4,3.1,5.5,4.6,9.5,4.6c4,0,7.2-1.6,9.5-4.7
			c2.4-3.1,3.5-7.5,3.5-13.1c0-5-1.2-9.1-3.6-12.3c-2.4-3.1-5.6-4.7-9.5-4.7c-3.9,0-7,1.5-9.4,4.6C790.6,41.2,789.4,45.7,789.4,51.4
			z"/>
		<path class="st3" d="M840.6,27.9l0.3,5.8c3.5-4.4,8.1-6.6,13.8-6.6c9.7,0,14.6,5.5,14.7,16.4v30.4h-7.9V43.5
			c0-3.3-0.8-5.8-2.3-7.3c-1.5-1.6-3.8-2.4-6.9-2.4c-2.5,0-4.8,0.7-6.7,2s-3.4,3.1-4.5,5.4v32.8h-7.9v-46H840.6z"/>
	</g>
	<g class="st0">
		<path class="st3" d="M353.6,9.1h-5.4v14.8h-3.7V9.1h-5.4v-3h14.5V9.1z"/>
		<path class="st3" d="M360.5,6.1l4.6,12.9l4.5-12.9h4.8v17.8h-3.7V19l0.4-8.4l-4.8,13.2h-2.5L359,10.6l0.4,8.4v4.9h-3.7V6.1H360.5z
			"/>
	</g>
</g>
</svg>
