<?xml version="1.0" encoding="utf-8"?>
<!-- Generator: Adobe Illustrator 26.5.0, SVG Export Plug-In . SVG Version: 6.00 Build 0)  -->
<svg version="1.1" id="레이어_1" xmlns="http://www.w3.org/2000/svg" xmlns:xlink="http://www.w3.org/1999/xlink" x="0px"
	 y="0px" viewBox="0 0 874.8 81.4" style="enable-background:new 0 0 874.8 81.4;" xml:space="preserve">
<style type="text/css">
	.st0{enable-background:new    ;}
	.st1{fill:#183182;}
	.st2{fill:#003174;}
	.st3{fill:#082AB7;}
</style>
<g>
	<g class="st0">
		<path d="M112.2,72.7H85.5v-3c1,0,2.2-0.1,3.7-0.3c1.5-0.2,2.6-0.4,3.1-0.7c0.9-0.5,1.5-1.2,1.9-1.8c0.4-0.7,0.6-1.6,0.6-2.6V20.4
			h-0.6L73.7,71.7h-2.1L52,19.3h-0.6v36c0,3.5,0.2,6.1,0.7,7.9c0.4,1.8,1.1,3.1,2,3.9c0.6,0.6,1.9,1.2,3.9,1.7s3.2,0.8,3.8,0.8v3
			H37.5v-3c1.3-0.1,2.6-0.3,4-0.6c1.4-0.3,2.5-0.8,3.2-1.4c1-0.8,1.7-2,2-3.7c0.4-1.6,0.6-4.4,0.6-8.2V24.9c0-1.8-0.2-3.2-0.6-4.4
			s-1-2.1-1.8-2.8c-0.9-0.8-2-1.3-3.2-1.7c-1.3-0.4-2.5-0.6-3.8-0.6v-3h20.6l17.3,45.2l14.7-37.9c0.5-1.4,1-2.8,1.4-4.4
			c0.4-1.5,0.6-2.5,0.6-3h19.7v3c-0.8,0-1.8,0.2-3,0.4c-1.2,0.2-2.1,0.4-2.7,0.6c-1,0.3-1.6,0.9-2,1.7s-0.5,1.7-0.5,2.6v43.5
			c0,1,0.2,1.8,0.5,2.5s1,1.3,2,1.8c0.5,0.3,1.4,0.5,2.7,0.8c1.3,0.2,2.3,0.4,3.1,0.4V72.7z"/>
		<path d="M156.4,62.8c-1.8,3.3-4.1,6-7.1,8c-2.9,2-6.3,3-10.2,3c-3.4,0-6.3-0.6-8.9-1.8c-2.5-1.2-4.6-2.8-6.3-4.8
			c-1.6-2-2.9-4.4-3.7-7.1c-0.8-2.7-1.2-5.6-1.2-8.6c0-2.7,0.4-5.4,1.3-8c0.9-2.6,2.1-5,3.8-7.1c1.6-2,3.6-3.6,6-4.9
			c2.4-1.2,5.1-1.8,8.1-1.8c3.1,0,5.7,0.5,7.9,1.4c2.2,1,4,2.3,5.3,4c1.3,1.6,2.3,3.5,2.9,5.6c0.6,2.2,1,4.5,1,7v2.8h-27.7
			c0,2.8,0.3,5.3,0.8,7.5s1.4,4.2,2.5,5.9c1.1,1.6,2.5,2.9,4.3,3.9c1.8,1,3.9,1.4,6.4,1.4c2.5,0,4.7-0.6,6.5-1.8
			c1.8-1.2,3.6-3.3,5.3-6.4L156.4,62.8z M147,46.9c0-1.6-0.1-3.3-0.4-5.1s-0.7-3.3-1.3-4.5c-0.7-1.3-1.5-2.4-2.7-3.2
			c-1.1-0.8-2.6-1.2-4.4-1.2c-3,0-5.4,1.2-7.4,3.7c-2,2.5-3,5.9-3.2,10.3H147z"/>
		<path d="M187.1,70.9c-1.8,0.8-3.6,1.4-5.2,1.9c-1.6,0.5-3.7,0.8-6,0.8c-3.5,0-6-0.9-7.4-2.7s-2.1-4.3-2.1-7.5V35.1h-7.6V31h7.7
			v-13h7.7v13h12v4.1h-11.9v23.4c0,1.8,0.1,3.2,0.2,4.4c0.1,1.2,0.4,2.2,0.9,3.1c0.5,0.8,1.1,1.4,2,1.9c0.9,0.4,2.1,0.6,3.7,0.6
			c0.7,0,1.7-0.1,3.1-0.2c1.4-0.1,2.3-0.3,2.9-0.5V70.9z"/>
		<path d="M230.9,71.9c-1.3,0.5-2.5,0.9-3.5,1.2c-1,0.3-2.1,0.4-3.4,0.4c-2.2,0-4-0.5-5.3-1.6c-1.3-1-2.2-2.5-2.5-4.5H216
			c-1.8,2-3.8,3.6-5.9,4.7c-2.1,1.1-4.7,1.6-7.6,1.6c-3.1,0-5.7-1-7.8-2.9c-2-1.9-3-4.4-3-7.6c0-1.6,0.2-3.1,0.7-4.3
			c0.5-1.3,1.1-2.4,2-3.4c0.7-0.8,1.6-1.6,2.8-2.3c1.2-0.7,2.3-1.2,3.3-1.6c1.3-0.5,3.9-1.4,7.8-2.7s6.5-2.3,7.9-3.1v-4.2
			c0-0.4-0.1-1.1-0.2-2.1s-0.5-2-1-3c-0.6-1-1.4-2-2.4-2.7s-2.5-1.2-4.4-1.2c-1.3,0-2.5,0.2-3.6,0.7c-1.1,0.4-1.9,0.9-2.4,1.4
			c0,0.6,0.1,1.4,0.4,2.5c0.3,1.1,0.4,2.1,0.4,3.1c0,1-0.4,1.9-1.3,2.7c-0.9,0.8-2.1,1.2-3.7,1.2c-1.4,0-2.5-0.5-3.1-1.5
			c-0.7-1-1-2.1-1-3.4c0-1.3,0.5-2.5,1.4-3.7c0.9-1.2,2.1-2.3,3.6-3.2c1.3-0.8,2.8-1.5,4.6-2c1.8-0.6,3.6-0.8,5.3-0.8
			c2.4,0,4.5,0.2,6.2,0.5c1.8,0.3,3.4,1,4.8,2.1c1.4,1,2.5,2.5,3.3,4.3c0.8,1.8,1.1,4.1,1.1,6.9c0,4.1,0,7.6-0.1,10.8
			s-0.1,6.5-0.1,10.3c0,1.1,0.2,2,0.6,2.6c0.4,0.7,1,1.2,1.8,1.7c0.4,0.3,1.1,0.4,2,0.4s1.9,0,2.8,0V71.9z M216.1,49.5
			c-2.4,0.7-4.5,1.4-6.3,2.1c-1.8,0.7-3.5,1.5-5.1,2.6c-1.4,1-2.5,2.1-3.4,3.4c-0.8,1.3-1.2,2.9-1.2,4.7c0,2.4,0.6,4.1,1.8,5.2
			c1.2,1.1,2.8,1.7,4.7,1.7c2,0,3.8-0.5,5.3-1.5s2.8-2.1,3.9-3.5L216.1,49.5z"/>
		<path d="M286.9,54.9l-1.1,17.8h-50v-3c0.8-0.1,2-0.2,3.4-0.4c1.4-0.2,2.3-0.4,2.8-0.6c0.9-0.4,1.5-1,1.9-1.7s0.5-1.5,0.5-2.6V21.2
			c0-0.9-0.2-1.8-0.5-2.5c-0.3-0.7-1-1.3-2-1.8c-0.8-0.4-1.8-0.7-3.1-1c-1.3-0.3-2.3-0.5-3.1-0.5v-3h46.6v14.5h-3.2
			c-0.6-2.2-1.8-4.4-3.7-6.9c-1.9-2.4-3.7-3.7-5.4-4c-0.9-0.1-1.9-0.2-3.1-0.3c-1.2-0.1-2.6-0.1-4.2-0.1h-9.5v24h6.8
			c2.2,0,3.8-0.2,4.8-0.6c1-0.4,1.9-1.1,2.7-2.1c0.6-0.8,1.2-1.9,1.6-3.3c0.4-1.4,0.7-2.7,0.9-3.9h3.2v23.6H270
			c-0.1-1.4-0.4-2.8-0.9-4.3c-0.5-1.5-1-2.6-1.6-3.3c-0.9-1.1-1.9-1.8-3-2.2s-2.6-0.5-4.4-0.5h-6.8v18.1c0,1.8,0.1,3.2,0.4,4.3
			s0.8,1.8,1.5,2.4c0.7,0.5,1.7,0.9,3,1s3.1,0.2,5.4,0.2c0.9,0,2.2,0,3.7,0s2.8-0.1,3.9-0.2c1.1-0.1,2.2-0.3,3.3-0.6
			c1.1-0.3,2-0.7,2.4-1.2c1.3-1.4,2.7-3.4,4.1-6.2c1.4-2.8,2.3-4.8,2.7-6.1H286.9z"/>
		<path d="M311.3,73.8c-6.1,0-10.8-2-14.2-6c-3.4-4-5.1-9.4-5.1-16.2c0-2.9,0.5-5.7,1.4-8.3c0.9-2.6,2.3-4.9,4-7
			c1.7-2,3.8-3.6,6.3-4.9c2.5-1.2,5.3-1.8,8.2-1.8c4.1,0,7.4,1,10,3c2.6,2,3.9,4.7,3.9,8.1c0,1.4-0.3,2.7-1,3.8
			c-0.7,1.1-1.8,1.6-3.4,1.6c-1.7,0-3-0.4-3.9-1.3c-0.9-0.8-1.4-1.8-1.4-2.8c0-1.3,0.2-2.6,0.5-3.9s0.5-2.3,0.6-2.9
			c-0.5-0.9-1.3-1.5-2.3-1.8c-1-0.3-2.1-0.4-3.2-0.4c-1.4,0-2.6,0.3-3.9,0.9c-1.2,0.6-2.4,1.6-3.6,3.2c-1,1.4-1.9,3.3-2.5,5.7
			c-0.7,2.4-1,5.3-1,8.6c0,5.3,1.2,9.6,3.5,12.9c2.3,3.3,5.4,5,9.2,5c2.7,0,5-0.7,6.9-2c1.9-1.3,3.6-3.3,5.2-6l2.7,1.8
			c-1.9,3.3-4.3,6-7.4,7.9C317.7,72.8,314.6,73.8,311.3,73.8z"/>
		<path d="M372.3,51.3c0,2.9-0.5,5.8-1.4,8.7c-0.9,2.8-2.3,5.3-4,7.2c-2,2.3-4.2,4-6.8,5.1c-2.6,1.1-5.5,1.7-8.7,1.7
			c-2.7,0-5.2-0.5-7.6-1.5c-2.4-1-4.5-2.5-6.4-4.4c-1.8-1.9-3.3-4.2-4.4-6.9c-1.1-2.7-1.6-5.8-1.6-9.2c0-6.5,1.9-11.9,5.7-16.1
			c3.8-4.2,8.8-6.2,15-6.2c5.9,0,10.7,2,14.5,5.9C370.4,39.5,372.3,44.8,372.3,51.3z M363.5,51.4c0-2.1-0.2-4.4-0.6-6.7
			c-0.4-2.4-1.1-4.4-1.9-6c-0.9-1.8-2.1-3.2-3.6-4.2c-1.5-1.1-3.3-1.6-5.4-1.6c-2.2,0-4,0.5-5.6,1.6c-1.5,1.1-2.8,2.5-3.8,4.4
			c-0.9,1.7-1.5,3.7-1.9,5.9s-0.6,4.3-0.6,6.4c0,2.7,0.2,5.2,0.7,7.5c0.4,2.3,1.1,4.4,2.1,6.2c1,1.8,2.2,3.2,3.6,4.3
			c1.5,1,3.3,1.6,5.4,1.6c3.5,0,6.4-1.7,8.4-5.1C362.5,62.2,363.5,57.4,363.5,51.4z"/>
		<path d="M447.8,72.7h-27.1v-3c0.8-0.1,1.9-0.1,3.3-0.3c1.4-0.1,2.5-0.3,3.1-0.5c0.9-0.4,1.6-0.9,2-1.5c0.4-0.6,0.6-1.5,0.6-2.7
			V21.1c0-1-0.2-1.8-0.5-2.5c-0.3-0.7-1-1.2-2.2-1.7c-0.8-0.3-1.9-0.7-3.2-1c-1.3-0.3-2.3-0.5-3.2-0.5v-3h27.1v3
			c-0.9,0-1.9,0.1-3.1,0.3c-1.2,0.2-2.3,0.4-3.2,0.7c-1.1,0.3-1.8,0.9-2.2,1.7c-0.4,0.8-0.6,1.6-0.6,2.5v43.6c0,0.9,0.2,1.8,0.6,2.5
			c0.4,0.7,1.1,1.3,2.1,1.7c0.6,0.2,1.6,0.5,2.9,0.7s2.5,0.4,3.4,0.4V72.7z"/>
		<path d="M501.5,27.3c0,3.1-0.6,5.9-1.8,8.3c-1.2,2.4-2.9,4.4-5.1,6c-2.2,1.6-4.5,2.7-7.1,3.5c-2.6,0.7-5.3,1.1-8.2,1.1h-6.8v18.3
			c0,1,0.2,1.9,0.5,2.6c0.3,0.8,1,1.3,2,1.7c0.5,0.2,1.4,0.4,2.7,0.6s2.5,0.3,3.5,0.3v3h-25.9v-3c0.7-0.1,1.7-0.2,3-0.3
			s2.2-0.3,2.7-0.6c0.8-0.4,1.5-0.9,1.8-1.6c0.4-0.7,0.6-1.6,0.6-2.7V21c0-1-0.1-1.9-0.4-2.7s-0.9-1.4-2-1.8
			c-1.1-0.4-2.1-0.6-3.2-0.8c-1.1-0.2-2-0.3-2.7-0.3v-3h27.5c5.6,0,10.2,1.4,13.7,4.1C499.7,19.2,501.5,22.8,501.5,27.3z
			 M488.5,37.6c1-1.4,1.6-2.8,1.9-4.2c0.3-1.5,0.5-2.8,0.5-3.9c0-1.6-0.2-3.3-0.6-4.9c-0.4-1.7-1-3.1-2-4.4c-1-1.3-2.3-2.4-3.9-3.1
			s-3.6-1.1-6-1.1h-6v26.6h4.3c3.1,0,5.5-0.5,7.5-1.4C486.1,40.2,487.6,39,488.5,37.6z"/>
	</g>
	<g class="st0">
		<path d="M551.2,45.1c-7-2-12.1-4.5-15.3-7.4c-3.2-2.9-4.8-6.5-4.8-10.9c0-4.9,1.9-8.9,5.8-12.1c3.9-3.2,9-4.8,15.2-4.8
			c4.2,0,8,0.8,11.4,2.5s5.9,3.9,7.7,6.8c1.8,2.9,2.7,6,2.7,9.5h-8.2c0-3.8-1.2-6.7-3.6-8.8c-2.4-2.1-5.7-3.2-10.1-3.2
			c-4,0-7.2,0.9-9.4,2.7c-2.2,1.8-3.4,4.2-3.4,7.4c0,2.5,1.1,4.7,3.2,6.4c2.1,1.7,5.8,3.3,10.9,4.8c5.1,1.4,9.2,3,12.1,4.8
			c2.9,1.7,5.1,3.8,6.5,6.1s2.1,5.1,2.1,8.2c0,5-2,9-5.9,12c-3.9,3-9.1,4.5-15.7,4.5c-4.2,0-8.2-0.8-11.9-2.4
			c-3.7-1.6-6.5-3.9-8.5-6.7c-2-2.8-3-6-3-9.6h8.2c0,3.7,1.4,6.7,4.1,8.9c2.8,2.2,6.4,3.2,11.1,3.2c4.3,0,7.6-0.9,9.9-2.6
			c2.3-1.8,3.4-4.1,3.4-7.2s-1.1-5.4-3.2-7C560.6,48.4,556.7,46.7,551.2,45.1z"/>
		<path d="M581.2,49.3c0-4.5,0.9-8.6,2.7-12.2c1.8-3.6,4.2-6.4,7.4-8.3c3.2-2,6.8-2.9,10.8-2.9c6.3,0,11.3,2.2,15.2,6.5
			c3.9,4.3,5.8,10.1,5.8,17.3v0.6c0,4.5-0.9,8.5-2.6,12c-1.7,3.6-4.2,6.3-7.3,8.3c-3.2,2-6.8,3-11,3c-6.2,0-11.3-2.2-15.1-6.5
			c-3.9-4.3-5.8-10.1-5.8-17.2V49.3z M589.1,50.2c0,5.1,1.2,9.2,3.5,12.3c2.4,3.1,5.5,4.6,9.5,4.6c4,0,7.2-1.6,9.5-4.7
			c2.4-3.1,3.5-7.5,3.5-13.1c0-5-1.2-9.1-3.6-12.3c-2.4-3.1-5.6-4.7-9.5-4.7c-3.9,0-7,1.5-9.4,4.6C590.3,40.1,589.1,44.5,589.1,50.2
			z"/>
		<path d="M641.5,72.7h-7.9V7.4h7.9V72.7z"/>
		<path d="M682.4,68.2c-3.1,3.6-7.5,5.4-13.5,5.4c-4.9,0-8.6-1.4-11.2-4.3c-2.6-2.8-3.9-7.1-3.9-12.6V26.7h7.9v29.7
			c0,7,2.8,10.4,8.5,10.4c6,0,10-2.2,12-6.7V26.7h7.9v46h-7.5L682.4,68.2z"/>
		<path d="M712.7,15.6v11.1h8.6v6.1h-8.6v28.5c0,1.8,0.4,3.2,1.1,4.1c0.8,0.9,2.1,1.4,3.9,1.4c0.9,0,2.2-0.2,3.7-0.5v6.3
			c-2.1,0.6-4.1,0.8-6,0.8c-3.5,0-6.2-1.1-7.9-3.2c-1.8-2.1-2.7-5.1-2.7-9V32.8h-8.4v-6.1h8.4V15.6H712.7z"/>
		<path d="M730.5,14.5c0-1.3,0.4-2.3,1.2-3.2c0.8-0.9,1.9-1.3,3.5-1.3s2.7,0.4,3.5,1.3c0.8,0.9,1.2,2,1.2,3.2c0,1.3-0.4,2.3-1.2,3.2
			c-0.8,0.8-2,1.3-3.5,1.3s-2.7-0.4-3.5-1.3C730.9,16.9,730.5,15.8,730.5,14.5z M739,72.7h-7.9v-46h7.9V72.7z"/>
		<path d="M749.5,49.3c0-4.5,0.9-8.6,2.7-12.2c1.8-3.6,4.2-6.4,7.4-8.3c3.2-2,6.8-2.9,10.8-2.9c6.3,0,11.3,2.2,15.2,6.5
			c3.9,4.3,5.8,10.1,5.8,17.3v0.6c0,4.5-0.9,8.5-2.6,12c-1.7,3.6-4.2,6.3-7.3,8.3c-3.2,2-6.8,3-11,3c-6.2,0-11.3-2.2-15.1-6.5
			c-3.9-4.3-5.8-10.1-5.8-17.2V49.3z M757.4,50.2c0,5.1,1.2,9.2,3.5,12.3c2.4,3.1,5.5,4.6,9.5,4.6c4,0,7.2-1.6,9.5-4.7
			c2.4-3.1,3.5-7.5,3.5-13.1c0-5-1.2-9.1-3.6-12.3c-2.4-3.1-5.6-4.7-9.5-4.7c-3.9,0-7,1.5-9.4,4.6C758.6,40.1,757.4,44.5,757.4,50.2
			z"/>
		<path d="M808.6,26.7l0.3,5.8c3.5-4.4,8.1-6.6,13.8-6.6c9.7,0,14.6,5.5,14.7,16.4v30.4h-7.9V42.3c0-3.3-0.8-5.8-2.3-7.3
			c-1.5-1.6-3.8-2.4-6.9-2.4c-2.5,0-4.8,0.7-6.7,2s-3.4,3.1-4.5,5.4v32.8h-7.9v-46H808.6z"/>
	</g>
	<g class="st0">
		<path d="M385.7,10.9h-5.4v14.8h-3.7V10.9h-5.4v-3h14.5V10.9z"/>
		<path d="M392.6,7.9l4.6,12.9l4.5-12.9h4.8v17.8h-3.7v-4.9l0.4-8.4l-4.8,13.2h-2.5l-4.8-13.2l0.4,8.4v4.9h-3.7V7.9H392.6z"/>
	</g>
</g>
</svg>
