<?xml version="1.0" encoding="utf-8"?>
<!-- Generator: Adobe Illustrator 26.5.0, SVG Export Plug-In . SVG Version: 6.00 Build 0)  -->
<svg version="1.1" id="레이어_1" xmlns="http://www.w3.org/2000/svg" xmlns:xlink="http://www.w3.org/1999/xlink" x="0px"
	 y="0px" viewBox="0 0 874.8 81.4" style="enable-background:new 0 0 874.8 81.4;" xml:space="preserve">
<style type="text/css">
	.st0{enable-background:new    ;}
	.st1{fill:#183182;}
	.st2{fill:#003174;}
	.st3{fill:#082AB7;}
</style>
<g>
	<path class="st2" d="M49.8,24.6v-8.7h17.5v-5.6H25.1v5.6H43v8.9c0,13.7-9.2,27-20.4,33.6l4.4,5c9-6.3,17-15.7,19.5-24.9
		c3,9,12.3,18.7,19.5,23.4l4.1-5.2C59.5,50.9,49.8,38.8,49.8,24.6z"/>
	<polygon class="st2" points="79.1,29.7 63.2,29.7 63.2,35.4 79.1,35.4 79.1,78.4 85.8,78.4 85.8,2.3 79.1,2.3 	"/>
	<polygon class="st2" points="118,52.5 111.4,52.5 111.4,75.9 162.7,75.9 162.7,70.3 118,70.3 	"/>
	<path class="st2" d="M121.5,30.4c3.1,6.9,11.2,14.1,18.4,17.1l3.7-5.3c-8.7-2.9-18.1-11.6-18.7-21.3c-0.1-1.1-0.1-2.7-0.1-6.2H142
		V9h-40.9v5.6h17.1c0,3.4,0,5-0.1,6.1c-0.3,10-9.9,19.7-19.5,23.4l3.8,5.1C110.6,45.7,119.4,37.4,121.5,30.4z"/>
	<polygon class="st2" points="139.3,29 154.4,29 154.4,58 161,58 161,2.3 154.4,2.3 154.4,23.5 139.3,23.5 	"/>
	<polygon class="st2" points="184.9,58.9 229.7,58.9 229.7,79.1 236.3,79.1 236.3,53.4 184.9,53.4 	"/>
	<polygon class="st2" points="229.7,13.8 215.7,13.8 215.7,19.3 229.7,19.3 229.7,29.6 215.7,29.6 215.7,35 229.7,35 229.7,49.2 
		236.3,49.2 236.3,2.3 229.7,2.3 	"/>
	<path class="st2" d="M214.9,44.6l-0.6-5.2c-7.3,1.3-17.9,1.6-28.2,1.6h-2.6V28.5h27.2V6.8h-33.8v5.5h27.2v10.9h-27.2v23.2h9
		C194.7,46.4,207.6,45.8,214.9,44.6z"/>
	<path class="st2" d="M322.8,67.8c-1-0.7-1.7-1.3-2.3-2c-0.5-0.7-1-1.6-1.4-2.7l-20.1-52h-3.4c-2.9,7.4-6.1,15.8-9.8,25.2
		s-7,17.9-10,25.5c-0.6,1.5-1.2,2.6-1.8,3.5c-0.6,0.8-1.5,1.6-2.6,2.4c-0.7,0.5-1.6,0.8-2.7,1.1c-1.1,0.3-2,0.4-2.8,0.5v3h22.7v-3
		c-2.2-0.1-4.2-0.5-6-1.1c-1.8-0.6-2.7-1.5-2.7-2.6c0-0.5,0.1-1.1,0.2-1.9c0.1-0.8,0.4-1.8,0.8-3c0.4-1.2,0.8-2.6,1.3-4.1
		c0.5-1.5,1.1-3.2,1.9-5.2h21.2l5,13.5c0.1,0.3,0.2,0.6,0.3,1c0.1,0.4,0.1,0.7,0.1,0.9c0,0.6-0.7,1.1-2.2,1.6
		c-1.5,0.4-3.3,0.7-5.5,0.8v3H328v-3c-0.7,0-1.6-0.2-2.6-0.4C324.3,68.6,323.5,68.2,322.8,67.8z M285.6,47.7l9-23.4l9.1,23.4H285.6z
		"/>
	<path class="st2" d="M367.7,44.6c-1.2-1.2-2.5-2.3-4.1-3.3c-1.6-0.9-3.2-1.8-4.9-2.5c-1.9-0.8-3.8-1.6-5.8-2.3
		c-2-0.7-4-1.6-6.1-2.6c-2.3-1.1-4.1-2.5-5.3-4.2c-1.2-1.7-1.8-3.9-1.8-6.5c0-2.5,0.9-4.6,2.8-6.3c1.9-1.7,4.2-2.6,6.9-2.6
		c2.5,0,4.7,0.5,6.5,1.5c1.8,1,3.2,2.3,4.5,3.9c1.2,1.7,2.3,3.6,3,5.7c0.8,2.1,1.5,4.3,2.1,6.6h3.4l-0.3-20h-3.4l-1.7,2.9
		c-1.8-1.1-3.8-2.1-6-3c-2.2-0.8-4.7-1.3-7.5-1.3c-2.4,0-4.8,0.4-7,1.3c-2.2,0.8-4.2,2-5.8,3.5c-1.7,1.6-3.1,3.3-4,5.3
		c-0.9,2-1.4,4.1-1.4,6.4c0,4,0.9,7.2,2.8,9.7c1.9,2.5,4.5,4.5,7.9,6c1.7,0.8,3.8,1.6,6.2,2.5c2.4,0.9,4.5,1.7,6.3,2.4
		c2.7,1.1,4.7,2.7,6.1,4.7s2,4.3,2,6.7c0,1.6-0.2,3.1-0.7,4.4c-0.4,1.3-1.1,2.4-2,3.3c-0.9,0.9-2.1,1.7-3.5,2.2
		c-1.5,0.5-3.2,0.8-5.1,0.8c-2.6,0-4.9-0.5-6.9-1.5c-2-1-3.7-2.3-5.2-4c-1.6-1.8-2.8-3.7-3.8-5.8c-0.9-2.1-1.8-4.4-2.5-6.9H330
		l0.6,20.6h3.4l1.8-3.1c2,1.2,4.3,2.2,7,3c2.7,0.8,5.4,1.3,8.1,1.3c5.8,0,10.7-1.7,14.7-5.2c3.9-3.5,5.9-7.8,5.9-13.2
		c0-2.2-0.3-4.2-0.9-5.9S369,46.1,367.7,44.6z"/>
	<path class="st2" d="M416.5,44.6c-1.2-1.2-2.5-2.3-4.1-3.3c-1.6-0.9-3.2-1.8-4.9-2.5c-1.9-0.8-3.8-1.6-5.8-2.3
		c-2-0.7-4-1.6-6.1-2.6c-2.3-1.1-4.1-2.5-5.3-4.2c-1.2-1.7-1.8-3.9-1.8-6.5c0-2.5,0.9-4.6,2.8-6.3c1.9-1.7,4.2-2.6,6.9-2.6
		c2.5,0,4.7,0.5,6.5,1.5c1.8,1,3.2,2.3,4.5,3.9c1.2,1.7,2.3,3.6,3,5.7c0.8,2.1,1.5,4.3,2.1,6.6h3.4l-0.3-20h-3.4l-1.7,2.9
		c-1.8-1.1-3.8-2.1-6-3c-2.2-0.8-4.7-1.3-7.5-1.3c-2.4,0-4.8,0.4-7,1.3c-2.2,0.8-4.2,2-5.8,3.5c-1.7,1.6-3.1,3.3-4,5.3
		c-0.9,2-1.4,4.1-1.4,6.4c0,4,0.9,7.2,2.8,9.7c1.9,2.5,4.5,4.5,7.9,6c1.7,0.8,3.8,1.6,6.2,2.5c2.4,0.9,4.5,1.7,6.3,2.4
		c2.7,1.1,4.7,2.7,6.1,4.7s2,4.3,2,6.7c0,1.6-0.2,3.1-0.7,4.4c-0.4,1.3-1.1,2.4-2,3.3c-0.9,0.9-2.1,1.7-3.5,2.2
		c-1.5,0.5-3.2,0.8-5.1,0.8c-2.6,0-4.9-0.5-6.9-1.5c-2-1-3.7-2.3-5.2-4c-1.6-1.8-2.8-3.7-3.8-5.8c-0.9-2.1-1.8-4.4-2.5-6.9h-3.4
		l0.6,20.6h3.4l1.8-3.1c2,1.2,4.3,2.2,7,3c2.7,0.8,5.4,1.3,8.1,1.3c5.8,0,10.7-1.7,14.7-5.2c3.9-3.5,5.9-7.8,5.9-13.2
		c0-2.2-0.3-4.2-0.9-5.9C418.7,47.6,417.8,46.1,416.5,44.6z"/>
	<path class="st2" d="M468.7,16.1c-3.5-2.7-8.1-4.1-13.7-4.1h-27.5v3c0.8,0.1,1.7,0.2,2.7,0.3c1.1,0.2,2.1,0.4,3.2,0.8
		c1,0.4,1.7,1,2,1.8c0.3,0.8,0.4,1.7,0.4,2.7v43.5c0,1.1-0.2,2-0.6,2.7c-0.4,0.7-1,1.2-1.8,1.6c-0.5,0.2-1.4,0.4-2.7,0.6
		c-1.3,0.1-2.3,0.2-3,0.3v3h25.9v-3c-1.1,0-2.3-0.1-3.5-0.3c-1.3-0.2-2.2-0.4-2.7-0.6c-1-0.4-1.7-1-2-1.7c-0.3-0.8-0.5-1.6-0.5-2.6
		V45.8h6.8c2.9,0,5.6-0.4,8.2-1.1c2.6-0.7,4.9-1.9,7.1-3.5c2.2-1.6,3.9-3.6,5.1-6c1.2-2.4,1.8-5.2,1.8-8.3
		C473.9,22.4,472.2,18.8,468.7,16.1z M462.9,32.9c-0.3,1.5-0.9,2.9-1.9,4.2c-1,1.4-2.4,2.6-4.3,3.5c-1.9,0.9-4.4,1.4-7.5,1.4h-4.3
		V15.5h6c2.4,0,4.4,0.4,6,1.1c1.6,0.7,2.9,1.8,3.9,3.1c0.9,1.2,1.6,2.7,2,4.4c0.4,1.7,0.6,3.3,0.6,4.9
		C463.4,30.2,463.2,31.5,462.9,32.9z"/>
	<polygon class="st2" points="558.6,32.3 548.7,32.3 548.7,4.2 542.1,4.2 542.1,74.6 548.7,74.6 548.7,37.8 558.6,37.8 558.6,78.4 
		565.1,78.4 565.1,2.3 558.6,2.3 	"/>
	<path class="st2" d="M503.3,16.9h23.5c-0.7,15.5-10,31.7-26.1,40.8l4.4,4.9c18-10.9,28.4-28.6,28.6-51.2h-30.5V16.9z"/>
	<polygon class="st2" points="634.7,2.3 628.1,2.3 628.1,41.7 634.7,41.7 634.7,25 646.3,25 646.3,19.4 634.7,19.4 	"/>
	<polygon class="st2" points="592.8,64 634.7,64 634.7,46 586.1,46 586.1,51.4 628.1,51.4 628.1,58.9 586.1,58.9 586.1,77.9 
		637.5,77.9 637.5,72.4 592.8,72.4 	"/>
	<path class="st2" d="M614.4,5.3h-6.7v11.1h-22.2V5.3h-6.6v33.8h35.5V5.3z M607.7,33.6h-22.2V21.9h22.2V33.6z"/>
	<polygon class="st2" points="676,72.3 686.7,72.3 686.7,46.1 711.6,46.1 711.6,37.5 686.7,37.5 686.7,19.1 715.3,19.1 715.3,10.4 
		676,10.4 	"/>
	<rect x="723.4" y="7" class="st2" width="10.3" height="65.2"/>
	<path class="st2" d="M779.5,31.5c-3.9-4-8.9-6-15.1-6c-4.2,0-7.9,1-11.1,2.9s-5.7,4.7-7.5,8.3c-1.8,3.6-2.7,7.7-2.7,12.2v0.5
		c0,7.2,1.9,12.9,5.8,17.3c3.9,4.3,9.1,6.5,15.6,6.5c4.2,0,8-1,11.2-2.9c3.2-2,5.7-4.7,7.5-8.3c1.7-3.6,2.6-7.6,2.6-12.1l0-2.4
		C785.5,40.8,783.4,35.5,779.5,31.5z M772.6,60.8c-1.9,2.7-4.7,4.1-8.1,4.1s-6.2-1.3-8.2-4c-2-2.7-2.9-6.4-2.9-11.1
		c0-5.3,1-9.3,3-12c2-2.7,4.7-4,8-4c3.4,0,6.1,1.4,8.1,4.1s3,6.4,3,11C775.5,54.1,774.6,58.1,772.6,60.8z"/>
	<polygon class="st2" points="842.2,26.3 834.9,58.1 825.4,26.3 817.6,26.3 808.2,57.7 800.7,26.3 790.7,26.3 803.2,72.3 
		811.7,72.3 821.4,40.7 831.3,72.3 839.8,72.3 852.3,26.3 	"/>
</g>
</svg>
