<?xml version="1.0" encoding="utf-8"?>
<!-- Generator: Adobe Illustrator 26.5.0, SVG Export Plug-In . SVG Version: 6.00 Build 0)  -->
<svg version="1.1" id="레이어_1" xmlns="http://www.w3.org/2000/svg" xmlns:xlink="http://www.w3.org/1999/xlink" x="0px"
	 y="0px" viewBox="0 0 999.3 81.4" style="enable-background:new 0 0 999.3 81.4;" xml:space="preserve">
<style type="text/css">
	.st0{enable-background:new    ;}
	.st1{fill:#082AB7;}
</style>
<g class="st0">
	<path class="st1" d="M59.4,29.1h-2.9c-0.3-1-0.7-2.2-1.4-3.6c-0.7-1.4-1.4-2.7-2.2-3.9c-0.8-1.3-1.8-2.4-2.8-3.4
		c-1-1-2-1.5-2.9-1.7c-0.9-0.1-2-0.2-3.3-0.3c-1.3-0.1-2.6-0.1-3.7-0.1h-2.5V64c0,0.9,0.2,1.8,0.6,2.6c0.4,0.8,1.1,1.4,2.1,1.8
		c0.5,0.2,1.6,0.5,3.2,0.8c1.6,0.3,2.9,0.5,3.8,0.5v3H19.2v-3c0.8-0.1,2-0.2,3.6-0.3c1.6-0.2,2.7-0.4,3.4-0.6c0.9-0.4,1.6-0.9,2-1.6
		c0.4-0.7,0.7-1.6,0.7-2.8V16.2h-2.4c-0.9,0-2,0-3.2,0.1c-1.3,0-2.5,0.1-3.7,0.3c-0.9,0.1-1.9,0.7-2.9,1.7c-1,1-1.9,2.1-2.8,3.4
		c-0.8,1.3-1.6,2.6-2.2,4c-0.6,1.4-1.1,2.6-1.3,3.5h-3V12.9h52.2V29.1z"/>
	<path class="st1" d="M103.6,51.5c0,2.9-0.5,5.8-1.4,8.6c-0.9,2.8-2.3,5.2-4,7.2c-1.9,2.2-4.2,3.9-6.8,5c-2.6,1.1-5.4,1.6-8.6,1.6
		c-2.6,0-5.2-0.5-7.6-1.5c-2.4-1-4.5-2.5-6.4-4.4c-1.8-1.9-3.3-4.2-4.4-6.9c-1.1-2.7-1.6-5.8-1.6-9.1c0-6.5,1.9-11.8,5.7-15.9
		c3.8-4.1,8.7-6.2,14.9-6.2c5.8,0,10.6,2,14.4,5.9C101.7,39.8,103.6,45,103.6,51.5z M94.9,51.6c0-2.1-0.2-4.3-0.6-6.7
		c-0.4-2.3-1.1-4.3-1.9-6c-0.9-1.7-2.1-3.1-3.5-4.2c-1.5-1.1-3.3-1.6-5.4-1.6c-2.2,0-4,0.5-5.6,1.6c-1.5,1.1-2.8,2.5-3.7,4.4
		c-0.9,1.7-1.5,3.7-1.9,5.9c-0.4,2.2-0.5,4.3-0.5,6.4c0,2.7,0.2,5.2,0.7,7.5c0.4,2.3,1.1,4.3,2.1,6.1c1,1.8,2.2,3.2,3.6,4.2
		c1.5,1,3.2,1.5,5.4,1.5c3.5,0,6.3-1.7,8.4-5.1C93.9,62.3,94.9,57.6,94.9,51.6z"/>
	<path class="st1" d="M135.3,70.9c-1.8,0.8-3.6,1.4-5.2,1.9c-1.6,0.5-3.6,0.8-6,0.8c-3.5,0-5.9-0.9-7.4-2.6
		c-1.4-1.8-2.1-4.2-2.1-7.4V35.3h-7.5v-4h7.7V18.4h7.7v12.9h11.9v4h-11.8v23.2c0,1.7,0.1,3.2,0.2,4.4c0.1,1.2,0.4,2.2,0.9,3.1
		c0.4,0.8,1.1,1.4,2,1.9c0.9,0.4,2.1,0.6,3.6,0.6c0.7,0,1.7-0.1,3.1-0.2c1.4-0.1,2.3-0.3,2.9-0.5V70.9z"/>
	<path class="st1" d="M178.8,71.9c-1.3,0.5-2.5,0.9-3.5,1.2c-1,0.3-2.1,0.4-3.4,0.4c-2.2,0-3.9-0.5-5.2-1.5c-1.3-1-2.1-2.5-2.5-4.5
		h-0.3c-1.8,2-3.8,3.6-5.9,4.6c-2.1,1.1-4.6,1.6-7.6,1.6c-3.1,0-5.7-1-7.7-2.9c-2-1.9-3-4.4-3-7.5c0-1.6,0.2-3,0.7-4.3
		c0.4-1.3,1.1-2.4,2-3.4c0.7-0.8,1.6-1.6,2.8-2.3c1.2-0.7,2.2-1.2,3.2-1.6c1.3-0.5,3.8-1.4,7.7-2.7c3.9-1.3,6.5-2.3,7.8-3V42
		c0-0.4-0.1-1.1-0.2-2.1c-0.2-1-0.5-2-1-3c-0.6-1-1.4-1.9-2.4-2.7c-1-0.8-2.5-1.2-4.4-1.2c-1.3,0-2.5,0.2-3.6,0.7
		c-1.1,0.4-1.9,0.9-2.3,1.4c0,0.6,0.1,1.4,0.4,2.5c0.3,1.1,0.4,2.1,0.4,3c0,1-0.4,1.9-1.3,2.7c-0.9,0.8-2.1,1.2-3.7,1.2
		c-1.4,0-2.4-0.5-3.1-1.5c-0.7-1-1-2.1-1-3.4c0-1.3,0.5-2.5,1.4-3.7c0.9-1.2,2.1-2.2,3.6-3.2c1.3-0.8,2.8-1.5,4.6-2
		c1.8-0.5,3.6-0.8,5.3-0.8c2.4,0,4.4,0.2,6.2,0.5c1.8,0.3,3.4,1,4.8,2.1c1.4,1,2.5,2.5,3.3,4.2c0.7,1.8,1.1,4.1,1.1,6.9
		c0,4,0,7.6-0.1,10.7c-0.1,3.1-0.1,6.5-0.1,10.2c0,1.1,0.2,2,0.6,2.6c0.4,0.6,1,1.2,1.7,1.6c0.4,0.3,1.1,0.4,2,0.4
		c0.9,0,1.8,0,2.8,0V71.9z M164.1,49.7c-2.4,0.7-4.5,1.4-6.3,2.1c-1.8,0.7-3.5,1.5-5,2.5c-1.4,1-2.5,2.1-3.3,3.4
		c-0.8,1.3-1.2,2.9-1.2,4.7c0,2.3,0.6,4.1,1.8,5.2c1.2,1.1,2.8,1.6,4.7,1.6c2,0,3.8-0.5,5.3-1.5c1.5-1,2.8-2.1,3.8-3.4L164.1,49.7z"
		/>
	<path class="st1" d="M202.4,72.7h-20.3v-2.8c0.6-0.1,1.3-0.1,2.1-0.2c0.7-0.1,1.3-0.2,1.8-0.3c0.8-0.3,1.4-0.7,1.8-1.3
		c0.4-0.6,0.6-1.5,0.6-2.5V17.4c0-1-0.2-2-0.7-2.8c-0.4-0.9-1-1.6-1.7-2.1c-0.5-0.3-1.4-0.6-2.8-0.9c-1.3-0.3-2.4-0.4-3.2-0.5V8.4
		l15.6-0.9l0.6,0.6v57.1c0,1,0.2,1.8,0.5,2.4c0.4,0.6,1,1.1,1.8,1.5c0.6,0.3,1.2,0.5,1.8,0.6c0.6,0.1,1.3,0.2,2,0.3V72.7z"/>
	<path class="st1" d="M275.4,27.6c0,3.1-0.6,5.9-1.8,8.3c-1.2,2.4-2.9,4.4-5.1,6c-2.1,1.6-4.5,2.7-7,3.5c-2.6,0.7-5.3,1.1-8.1,1.1
		h-6.7v18.1c0,1,0.2,1.8,0.5,2.6c0.3,0.7,1,1.3,2,1.7c0.5,0.2,1.4,0.4,2.7,0.5c1.3,0.2,2.5,0.3,3.5,0.3v3h-25.7v-3
		c0.7-0.1,1.7-0.2,2.9-0.3c1.3-0.1,2.2-0.3,2.7-0.5c0.8-0.4,1.5-0.9,1.8-1.6c0.4-0.7,0.6-1.6,0.6-2.7V21.4c0-1-0.1-1.9-0.4-2.7
		c-0.3-0.8-0.9-1.4-2-1.8c-1.1-0.4-2.1-0.6-3.2-0.8c-1.1-0.2-2-0.3-2.7-0.3v-3h27.3c5.6,0,10.1,1.3,13.6,4
		C273.6,19.6,275.4,23.2,275.4,27.6z M262.5,37.8c1-1.3,1.6-2.7,1.9-4.2c0.3-1.4,0.5-2.7,0.5-3.9c0-1.6-0.2-3.2-0.6-4.9
		c-0.4-1.7-1-3.1-2-4.3c-1-1.3-2.3-2.3-3.9-3.1c-1.6-0.7-3.6-1.1-6-1.1h-5.9v26.4h4.3c3,0,5.5-0.5,7.4-1.4
		C260.2,40.4,261.6,39.2,262.5,37.8z"/>
	<path class="st1" d="M313,36.5c0,1.4-0.4,2.7-1.1,3.8c-0.7,1.1-1.8,1.7-3.2,1.7c-1.6,0-2.8-0.4-3.6-1.2c-0.8-0.8-1.2-1.7-1.2-2.7
		c0-0.6,0-1.2,0.1-1.7c0.1-0.5,0.2-1,0.3-1.5c-1.3,0-2.9,0.5-4.6,1.6c-1.8,1.1-3.3,2.6-4.5,4.6v24.2c0,1,0.2,1.8,0.6,2.4
		c0.4,0.6,1,1.1,1.8,1.4c0.7,0.3,1.6,0.5,2.7,0.6c1.1,0.1,2.1,0.2,2.9,0.3v2.8h-21.9v-2.8c0.6-0.1,1.3-0.1,2-0.2
		c0.7-0.1,1.3-0.2,1.8-0.3c0.8-0.3,1.4-0.7,1.7-1.3c0.4-0.6,0.6-1.5,0.6-2.5V40c0-0.9-0.2-1.7-0.6-2.6c-0.4-0.8-1-1.5-1.7-2
		c-0.5-0.3-1.2-0.6-1.9-0.7c-0.7-0.2-1.5-0.3-2.4-0.3v-2.8l13.8-0.9l0.6,0.6v5.9h0.2c1.7-2.3,3.7-4,5.8-5.2c2.1-1.2,4.1-1.8,5.9-1.8
		s3.2,0.6,4.3,1.7C312.4,33,313,34.5,313,36.5z"/>
	<path class="st1" d="M357.1,51.5c0,2.9-0.5,5.8-1.4,8.6c-0.9,2.8-2.3,5.2-4,7.2c-1.9,2.2-4.2,3.9-6.8,5c-2.6,1.1-5.4,1.6-8.6,1.6
		c-2.6,0-5.2-0.5-7.6-1.5c-2.4-1-4.5-2.5-6.4-4.4c-1.8-1.9-3.3-4.2-4.4-6.9c-1.1-2.7-1.6-5.8-1.6-9.1c0-6.5,1.9-11.8,5.7-15.9
		c3.8-4.1,8.7-6.2,14.9-6.2c5.8,0,10.6,2,14.4,5.9C355.2,39.8,357.1,45,357.1,51.5z M348.4,51.6c0-2.1-0.2-4.3-0.6-6.7
		c-0.4-2.3-1.1-4.3-1.9-6c-0.9-1.7-2.1-3.1-3.5-4.2c-1.5-1.1-3.3-1.6-5.4-1.6c-2.2,0-4,0.5-5.6,1.6c-1.5,1.1-2.8,2.5-3.7,4.4
		c-0.9,1.7-1.5,3.7-1.9,5.9c-0.4,2.2-0.5,4.3-0.5,6.4c0,2.7,0.2,5.2,0.7,7.5c0.4,2.3,1.1,4.3,2.1,6.1c1,1.8,2.2,3.2,3.6,4.2
		c1.5,1,3.2,1.5,5.4,1.5c3.5,0,6.3-1.7,8.4-5.1C347.3,62.3,348.4,57.6,348.4,51.6z"/>
	<path class="st1" d="M408.6,71.9l-14.5,0.9l-0.6-0.6v-3.9l-0.3-0.1c-1.5,1.6-3.3,3-5.4,4c-2.1,1-4.4,1.6-6.6,1.6
		c-2.4,0-4.6-0.5-6.8-1.6c-2.2-1.1-4.1-2.5-5.7-4.4c-1.7-1.9-3-4.3-3.9-7c-1-2.7-1.5-5.7-1.5-9c0-3,0.5-5.9,1.6-8.6
		c1-2.7,2.5-5.1,4.3-7.1c1.7-1.9,3.8-3.4,6.3-4.5c2.5-1.1,5-1.7,7.6-1.7c1.9,0,3.8,0.2,5.7,0.7c1.9,0.5,3.5,1.1,4.8,1.9V18.1
		c0-1.2-0.2-2.3-0.6-3.2c-0.4-1-0.9-1.7-1.6-2.2c-0.8-0.5-1.8-0.9-3.2-1.2c-1.3-0.2-2.8-0.4-4.3-0.5V8.4l17-0.9l0.6,0.6v56
		c0,1,0.2,1.8,0.6,2.5c0.4,0.7,0.9,1.3,1.7,1.7c0.5,0.3,1.3,0.5,2.3,0.6c1,0.1,1.9,0.1,2.8,0.2V71.9z M393.4,64.7V40.3
		c-0.2-0.7-0.6-1.5-1.1-2.4c-0.5-0.8-1.1-1.6-1.9-2.3c-0.8-0.7-1.8-1.3-2.9-1.7s-2.4-0.7-3.8-0.7c-1.7,0-3.2,0.4-4.7,1.3
		c-1.4,0.9-2.7,2.1-3.8,3.8c-1,1.6-1.9,3.6-2.5,6c-0.6,2.4-0.9,5.1-0.9,8.1c0,2.4,0.2,4.5,0.7,6.4c0.4,1.9,1.2,3.7,2.3,5.4
		c1,1.6,2.2,2.8,3.8,3.8c1.5,1,3.3,1.4,5.5,1.4c2.2,0,4.1-0.5,5.6-1.5C391.1,66.9,392.3,65.8,393.4,64.7z"/>
	<path class="st1" d="M457.2,71.9l-13.6,0.9l-0.6-0.6V67h-0.3c-0.7,0.7-1.4,1.5-2.3,2.3c-0.8,0.8-1.8,1.5-2.9,2.2
		c-1.3,0.8-2.5,1.3-3.7,1.7c-1.2,0.4-2.8,0.6-5,0.6c-3.7,0-6.5-1.2-8.4-3.6c-1.9-2.4-2.9-5.9-2.9-10.5V39.8c0-1-0.2-1.9-0.6-2.5
		c-0.4-0.7-0.9-1.3-1.7-1.8c-0.5-0.3-1.1-0.6-1.9-0.7c-0.8-0.2-1.6-0.3-2.4-0.3v-2.8l13.9-1l0.6,0.6v28.9c0,3,0.7,5.3,2,6.8
		c1.3,1.5,3,2.3,4.8,2.3c1.5,0,2.9-0.2,4.1-0.7c1.2-0.5,2.2-1,3-1.7c0.8-0.6,1.4-1.2,2-1.9c0.6-0.7,1-1.3,1.3-1.8V39.5
		c0-0.9-0.2-1.7-0.6-2.5c-0.4-0.7-0.9-1.3-1.6-1.8c-0.5-0.3-1.3-0.5-2.3-0.6c-1-0.1-2.1-0.1-3.4-0.2v-2.8l15.1-1l0.6,0.6v33
		c0,1,0.2,1.8,0.6,2.4c0.4,0.7,0.9,1.2,1.6,1.7c0.5,0.3,1.1,0.5,1.8,0.6c0.7,0.1,1.5,0.2,2.3,0.2V71.9z"/>
	<path class="st1" d="M481.6,73.8c-6,0-10.7-2-14.1-6c-3.4-4-5.1-9.3-5.1-16.1c0-2.9,0.5-5.7,1.4-8.2c0.9-2.5,2.2-4.9,4-6.9
		c1.7-2,3.7-3.6,6.2-4.8c2.5-1.2,5.2-1.8,8.2-1.8c4.1,0,7.4,1,10,2.9c2.6,2,3.8,4.6,3.8,8c0,1.4-0.3,2.7-1,3.7
		c-0.7,1.1-1.8,1.6-3.3,1.6c-1.7,0-2.9-0.4-3.9-1.3c-0.9-0.8-1.4-1.8-1.4-2.8c0-1.3,0.2-2.6,0.5-3.9c0.3-1.3,0.5-2.3,0.6-2.9
		c-0.5-0.9-1.3-1.4-2.2-1.7c-1-0.3-2.1-0.4-3.2-0.4c-1.3,0-2.6,0.3-3.8,0.9c-1.2,0.6-2.4,1.6-3.6,3.2c-1,1.4-1.9,3.3-2.5,5.7
		c-0.6,2.4-1,5.2-1,8.6c0,5.2,1.2,9.5,3.5,12.8c2.3,3.3,5.4,5,9.1,5c2.7,0,5-0.7,6.8-2c1.8-1.3,3.5-3.3,5.1-6l2.7,1.8
		c-1.9,3.3-4.3,5.9-7.3,7.9C487.9,72.8,484.8,73.8,481.6,73.8z"/>
	<path class="st1" d="M527.2,70.9c-1.8,0.8-3.6,1.4-5.2,1.9c-1.6,0.5-3.6,0.8-6,0.8c-3.5,0-5.9-0.9-7.4-2.6
		c-1.4-1.8-2.1-4.2-2.1-7.4V35.3h-7.5v-4h7.7V18.4h7.7v12.9h11.9v4h-11.8v23.2c0,1.7,0.1,3.2,0.2,4.4c0.1,1.2,0.4,2.2,0.9,3.1
		c0.4,0.8,1.1,1.4,2,1.9c0.9,0.4,2.1,0.6,3.6,0.6c0.7,0,1.7-0.1,3.1-0.2c1.4-0.1,2.3-0.3,2.9-0.5V70.9z"/>
	<path class="st1" d="M551.5,72.7h-20.1v-2.8c0.6-0.1,1.3-0.1,2-0.2c0.7-0.1,1.3-0.2,1.8-0.3c0.8-0.3,1.4-0.7,1.7-1.3
		c0.4-0.6,0.6-1.5,0.6-2.5V40c0-0.9-0.2-1.7-0.6-2.5c-0.4-0.7-1-1.4-1.7-1.9c-0.5-0.3-1.3-0.6-2.3-0.9c-1-0.2-1.9-0.4-2.8-0.4v-2.8
		l14.7-0.9l0.6,0.6v33.9c0,1,0.2,1.8,0.6,2.4c0.4,0.6,1,1.1,1.8,1.4c0.6,0.3,1.2,0.5,1.8,0.6c0.6,0.2,1.2,0.3,2,0.3V72.7z
		 M546.2,14.2c0,1.6-0.5,3-1.6,4.2c-1.1,1.2-2.4,1.8-3.9,1.8c-1.4,0-2.7-0.6-3.7-1.7c-1.1-1.1-1.6-2.4-1.6-3.9c0-1.5,0.5-2.9,1.6-4
		c1.1-1.2,2.3-1.7,3.7-1.7c1.6,0,2.9,0.5,3.9,1.6C545.7,11.5,546.2,12.8,546.2,14.2z"/>
	<path class="st1" d="M597.2,51.5c0,2.9-0.5,5.8-1.4,8.6s-2.3,5.2-4,7.2c-1.9,2.2-4.2,3.9-6.8,5c-2.6,1.1-5.4,1.6-8.6,1.6
		c-2.6,0-5.2-0.5-7.6-1.5c-2.4-1-4.5-2.5-6.4-4.4c-1.8-1.9-3.3-4.2-4.4-6.9c-1.1-2.7-1.6-5.8-1.6-9.1c0-6.5,1.9-11.8,5.7-15.9
		c3.8-4.1,8.7-6.2,14.9-6.2c5.8,0,10.6,2,14.4,5.9S597.2,45,597.2,51.5z M588.5,51.6c0-2.1-0.2-4.3-0.6-6.7c-0.4-2.3-1.1-4.3-1.9-6
		c-0.9-1.7-2.1-3.1-3.5-4.2c-1.5-1.1-3.3-1.6-5.4-1.6c-2.2,0-4,0.5-5.6,1.6c-1.5,1.1-2.8,2.5-3.7,4.4c-0.9,1.7-1.5,3.7-1.9,5.9
		c-0.4,2.2-0.5,4.3-0.5,6.4c0,2.7,0.2,5.2,0.7,7.5c0.4,2.3,1.1,4.3,2.1,6.1c1,1.8,2.2,3.2,3.6,4.2c1.5,1,3.2,1.5,5.4,1.5
		c3.5,0,6.3-1.7,8.4-5.1C587.5,62.3,588.5,57.6,588.5,51.6z"/>
	<path class="st1" d="M649.1,72.7h-20.3v-2.8c0.6-0.1,1.4-0.1,2.1-0.2c0.8-0.1,1.4-0.2,1.9-0.3c0.8-0.3,1.4-0.7,1.7-1.3
		c0.4-0.6,0.6-1.5,0.6-2.5V44.2c0-3-0.7-5.2-2.1-6.8c-1.4-1.6-3.1-2.4-5.1-2.4c-1.5,0-2.9,0.2-4.1,0.7c-1.2,0.5-2.3,1-3.3,1.7
		c-0.9,0.6-1.7,1.3-2.2,2.1c-0.5,0.7-1,1.3-1.2,1.8v23.9c0,1,0.2,1.7,0.6,2.4c0.4,0.6,1,1.1,1.8,1.4c0.6,0.3,1.2,0.5,1.9,0.6
		c0.7,0.1,1.4,0.2,2.1,0.3v2.8h-20.4v-2.8c0.6-0.1,1.3-0.1,2-0.2c0.7-0.1,1.3-0.2,1.8-0.3c0.8-0.3,1.4-0.7,1.7-1.3
		c0.4-0.6,0.6-1.5,0.6-2.5V40c0-1-0.2-1.8-0.6-2.6c-0.4-0.8-1-1.5-1.7-2c-0.5-0.3-1.2-0.6-1.9-0.7c-0.7-0.2-1.5-0.3-2.4-0.3v-2.8
		l13.8-0.9l0.6,0.6v5.9h0.2c0.7-0.7,1.5-1.5,2.5-2.4c1-0.9,2-1.7,2.9-2.3c1-0.7,2.3-1.2,3.7-1.7c1.4-0.4,3-0.7,4.8-0.7
		c4,0,7,1.2,8.9,3.7c1.9,2.5,2.9,5.8,2.9,9.9v21.6c0,1,0.2,1.8,0.5,2.4c0.3,0.6,0.9,1.1,1.7,1.4c0.7,0.3,1.3,0.5,1.7,0.6
		c0.5,0.1,1.2,0.2,2,0.3V72.7z"/>
	<path class="st1" d="M713.4,45.3c1.3,1.4,2.2,2.9,2.8,4.6c0.6,1.7,0.9,3.6,0.9,5.8c0,5.3-2,9.6-5.9,13.1c-3.9,3.4-8.8,5.1-14.5,5.1
		c-2.7,0-5.3-0.4-8-1.2c-2.7-0.8-5-1.8-6.9-3l-1.8,3.1h-3.4L676,52.3h3.4c0.7,2.5,1.5,4.8,2.5,6.9c0.9,2,2.2,3.9,3.7,5.7
		c1.5,1.7,3.2,3,5.1,4c2,1,4.2,1.5,6.8,1.5c1.9,0,3.6-0.3,5.1-0.8c1.4-0.5,2.6-1.2,3.5-2.2c0.9-0.9,1.6-2,2-3.3
		c0.4-1.3,0.7-2.7,0.7-4.3c0-2.4-0.7-4.6-2-6.7c-1.3-2.1-3.4-3.6-6-4.7c-1.8-0.7-3.9-1.5-6.3-2.4c-2.4-0.9-4.4-1.7-6.1-2.5
		c-3.4-1.5-6-3.5-7.9-6c-1.9-2.5-2.8-5.7-2.8-9.6c0-2.3,0.5-4.4,1.4-6.4c0.9-2,2.2-3.7,4-5.3c1.6-1.5,3.6-2.6,5.8-3.4
		c2.2-0.8,4.5-1.2,7-1.2c2.8,0,5.2,0.4,7.4,1.3c2.2,0.8,4.2,1.8,6,3l1.7-2.9h3.4l0.3,19.9h-3.4c-0.6-2.3-1.3-4.5-2.1-6.5
		c-0.8-2.1-1.8-4-3-5.7c-1.2-1.6-2.7-2.9-4.4-3.9c-1.7-1-3.9-1.5-6.4-1.5c-2.7,0-4.9,0.9-6.8,2.6c-1.9,1.7-2.8,3.8-2.8,6.3
		c0,2.6,0.6,4.7,1.8,6.4c1.2,1.7,3,3.1,5.3,4.2c2.1,1,4.1,1.8,6.1,2.6c2,0.7,3.9,1.5,5.8,2.3c1.7,0.7,3.3,1.6,4.9,2.5
		C710.9,42.9,712.2,44,713.4,45.3z"/>
	<path class="st1" d="M764.1,51.5c0,2.9-0.5,5.8-1.4,8.6c-0.9,2.8-2.3,5.2-4,7.2c-1.9,2.2-4.2,3.9-6.8,5c-2.6,1.1-5.4,1.6-8.6,1.6
		c-2.6,0-5.2-0.5-7.6-1.5s-4.5-2.5-6.4-4.4c-1.8-1.9-3.3-4.2-4.4-6.9c-1.1-2.7-1.6-5.8-1.6-9.1c0-6.5,1.9-11.8,5.7-15.9
		c3.8-4.1,8.7-6.2,14.9-6.2c5.8,0,10.6,2,14.4,5.9C762.2,39.8,764.1,45,764.1,51.5z M755.4,51.6c0-2.1-0.2-4.3-0.6-6.7
		c-0.4-2.3-1.1-4.3-1.9-6c-0.9-1.7-2.1-3.1-3.5-4.2c-1.5-1.1-3.3-1.6-5.4-1.6c-2.2,0-4,0.5-5.6,1.6c-1.5,1.1-2.8,2.5-3.7,4.4
		c-0.9,1.7-1.5,3.7-1.9,5.9c-0.4,2.2-0.5,4.3-0.5,6.4c0,2.7,0.2,5.2,0.7,7.5c0.4,2.3,1.1,4.3,2.1,6.1c1,1.8,2.2,3.2,3.6,4.2
		c1.5,1,3.2,1.5,5.4,1.5c3.5,0,6.3-1.7,8.4-5.1C754.3,62.3,755.4,57.6,755.4,51.6z"/>
	<path class="st1" d="M789.6,72.7h-20.3v-2.8c0.6-0.1,1.3-0.1,2.1-0.2c0.7-0.1,1.3-0.2,1.8-0.3c0.8-0.3,1.4-0.7,1.8-1.3
		c0.4-0.6,0.6-1.5,0.6-2.5V17.4c0-1-0.2-2-0.7-2.8c-0.4-0.9-1-1.6-1.7-2.1c-0.5-0.3-1.4-0.6-2.8-0.9c-1.3-0.3-2.4-0.4-3.2-0.5V8.4
		l15.6-0.9l0.6,0.6v57.1c0,1,0.2,1.8,0.5,2.4c0.4,0.6,1,1.1,1.8,1.5c0.6,0.3,1.2,0.5,1.8,0.6c0.6,0.1,1.3,0.2,2,0.3V72.7z"/>
	<path class="st1" d="M839.4,71.9l-13.6,0.9l-0.6-0.6V67h-0.3c-0.7,0.7-1.4,1.5-2.3,2.3s-1.8,1.5-2.9,2.2c-1.3,0.8-2.5,1.3-3.7,1.7
		c-1.2,0.4-2.8,0.6-5,0.6c-3.7,0-6.5-1.2-8.4-3.6c-1.9-2.4-2.9-5.9-2.9-10.5V39.8c0-1-0.2-1.9-0.6-2.5c-0.4-0.7-0.9-1.3-1.7-1.8
		c-0.5-0.3-1.1-0.6-1.9-0.7c-0.8-0.2-1.6-0.3-2.4-0.3v-2.8l13.9-1l0.6,0.6v28.9c0,3,0.7,5.3,2,6.8c1.3,1.5,3,2.3,4.8,2.3
		c1.5,0,2.9-0.2,4.1-0.7c1.2-0.5,2.2-1,3-1.7c0.8-0.6,1.4-1.2,2-1.9c0.6-0.7,1-1.3,1.3-1.8V39.5c0-0.9-0.2-1.7-0.6-2.5
		c-0.4-0.7-0.9-1.3-1.6-1.8c-0.5-0.3-1.3-0.5-2.3-0.6c-1-0.1-2.1-0.1-3.4-0.2v-2.8l15.1-1l0.6,0.6v33c0,1,0.2,1.8,0.6,2.4
		c0.4,0.7,0.9,1.2,1.6,1.7c0.5,0.3,1.1,0.5,1.8,0.6c0.7,0.1,1.5,0.2,2.3,0.2V71.9z"/>
	<path class="st1" d="M870.1,70.9c-1.8,0.8-3.6,1.4-5.2,1.9c-1.6,0.5-3.6,0.8-6,0.8c-3.5,0-5.9-0.9-7.4-2.6
		c-1.4-1.8-2.1-4.2-2.1-7.4V35.3H842v-4h7.7V18.4h7.7v12.9h11.9v4h-11.8v23.2c0,1.7,0.1,3.2,0.2,4.4c0.1,1.2,0.4,2.2,0.9,3.1
		c0.4,0.8,1.1,1.4,2,1.9c0.9,0.4,2.1,0.6,3.6,0.6c0.7,0,1.7-0.1,3.1-0.2c1.4-0.1,2.3-0.3,2.9-0.5V70.9z"/>
	<path class="st1" d="M894.4,72.7h-20.1v-2.8c0.6-0.1,1.3-0.1,2-0.2c0.7-0.1,1.3-0.2,1.8-0.3c0.8-0.3,1.4-0.7,1.7-1.3
		c0.4-0.6,0.6-1.5,0.6-2.5V40c0-0.9-0.2-1.7-0.6-2.5c-0.4-0.7-1-1.4-1.7-1.9c-0.5-0.3-1.3-0.6-2.3-0.9c-1-0.2-1.9-0.4-2.8-0.4v-2.8
		l14.7-0.9l0.6,0.6v33.9c0,1,0.2,1.8,0.6,2.4c0.4,0.6,1,1.1,1.8,1.4c0.6,0.3,1.2,0.5,1.8,0.6c0.6,0.2,1.2,0.3,2,0.3V72.7z
		 M889.2,14.2c0,1.6-0.5,3-1.6,4.2c-1.1,1.2-2.4,1.8-3.9,1.8c-1.4,0-2.7-0.6-3.7-1.7c-1.1-1.1-1.6-2.4-1.6-3.9c0-1.5,0.5-2.9,1.6-4
		c1.1-1.2,2.3-1.7,3.7-1.7c1.6,0,2.9,0.5,3.9,1.6C888.6,11.5,889.2,12.8,889.2,14.2z"/>
	<path class="st1" d="M940.1,51.5c0,2.9-0.5,5.8-1.4,8.6s-2.3,5.2-4,7.2c-1.9,2.2-4.2,3.9-6.8,5c-2.6,1.1-5.4,1.6-8.6,1.6
		c-2.6,0-5.2-0.5-7.6-1.5c-2.4-1-4.5-2.5-6.4-4.4c-1.8-1.9-3.3-4.2-4.4-6.9c-1.1-2.7-1.6-5.8-1.6-9.1c0-6.5,1.9-11.8,5.7-15.9
		c3.8-4.1,8.7-6.2,14.9-6.2c5.8,0,10.6,2,14.4,5.9S940.1,45,940.1,51.5z M931.4,51.6c0-2.1-0.2-4.3-0.6-6.7c-0.4-2.3-1.1-4.3-1.9-6
		c-0.9-1.7-2.1-3.1-3.5-4.2c-1.5-1.1-3.3-1.6-5.4-1.6c-2.2,0-4,0.5-5.6,1.6c-1.5,1.1-2.8,2.5-3.7,4.4c-0.9,1.7-1.5,3.7-1.9,5.9
		c-0.4,2.2-0.5,4.3-0.5,6.4c0,2.7,0.2,5.2,0.7,7.5c0.4,2.3,1.1,4.3,2.1,6.1c1,1.8,2.2,3.2,3.6,4.2c1.5,1,3.2,1.5,5.4,1.5
		c3.5,0,6.3-1.7,8.4-5.1C930.4,62.3,931.4,57.6,931.4,51.6z"/>
	<path class="st1" d="M992,72.7h-20.3v-2.8c0.6-0.1,1.4-0.1,2.1-0.2c0.8-0.1,1.4-0.2,1.9-0.3c0.8-0.3,1.4-0.7,1.7-1.3
		c0.4-0.6,0.6-1.5,0.6-2.5V44.2c0-3-0.7-5.2-2.1-6.8c-1.4-1.6-3.1-2.4-5.1-2.4c-1.5,0-2.9,0.2-4.1,0.7c-1.2,0.5-2.3,1-3.3,1.7
		c-0.9,0.6-1.7,1.3-2.2,2.1c-0.5,0.7-1,1.3-1.2,1.8v23.9c0,1,0.2,1.7,0.6,2.4c0.4,0.6,1,1.1,1.8,1.4c0.6,0.3,1.2,0.5,1.9,0.6
		c0.7,0.1,1.4,0.2,2.1,0.3v2.8h-20.4v-2.8c0.6-0.1,1.3-0.1,2-0.2c0.7-0.1,1.3-0.2,1.8-0.3c0.8-0.3,1.4-0.7,1.7-1.3
		c0.4-0.6,0.6-1.5,0.6-2.5V40c0-1-0.2-1.8-0.6-2.6c-0.4-0.8-1-1.5-1.7-2c-0.5-0.3-1.2-0.6-1.9-0.7c-0.7-0.2-1.5-0.3-2.4-0.3v-2.8
		l13.8-0.9l0.6,0.6v5.9h0.2c0.7-0.7,1.5-1.5,2.5-2.4c1-0.9,2-1.7,2.9-2.3c1-0.7,2.3-1.2,3.7-1.7c1.4-0.4,3-0.7,4.8-0.7
		c4,0,7,1.2,8.9,3.7c1.9,2.5,2.9,5.8,2.9,9.9v21.6c0,1,0.2,1.8,0.5,2.4c0.3,0.6,0.9,1.1,1.7,1.4c0.7,0.3,1.3,0.5,1.7,0.6
		c0.5,0.1,1.2,0.2,2,0.3V72.7z"/>
</g>
</svg>
