<?xml version="1.0" encoding="utf-8"?>
<!-- Generator: Adobe Illustrator 26.5.0, SVG Export Plug-In . SVG Version: 6.00 Build 0)  -->
<svg version="1.1" id="레이어_1" xmlns="http://www.w3.org/2000/svg" xmlns:xlink="http://www.w3.org/1999/xlink" x="0px"
	 y="0px" viewBox="0 0 874.8 81.4" style="enable-background:new 0 0 874.8 81.4;" xml:space="preserve">
<style type="text/css">
	.st0{enable-background:new    ;}
	.st1{fill:#082AB7;}
</style>
<g>
	<g class="st0">
		<path class="st1" d="M111.7,72.1H85.3v-3c1,0,2.2-0.1,3.7-0.3c1.5-0.2,2.5-0.4,3.1-0.7c0.9-0.5,1.5-1.1,1.9-1.8
			c0.4-0.7,0.6-1.6,0.6-2.6V20H94L73.5,71.1h-2.1L51.9,19h-0.5v35.8c0,3.5,0.2,6.1,0.7,7.9c0.4,1.8,1.1,3.1,2,3.9
			c0.6,0.6,1.9,1.2,3.8,1.7c1.9,0.5,3.2,0.8,3.8,0.8v3H37.5v-3c1.3-0.1,2.6-0.3,4-0.6c1.4-0.3,2.5-0.8,3.2-1.4c1-0.8,1.7-2,2-3.6
			c0.4-1.6,0.5-4.4,0.5-8.2V24.6c0-1.8-0.2-3.2-0.6-4.3c-0.4-1.1-1-2-1.8-2.7c-0.9-0.8-1.9-1.3-3.2-1.7c-1.3-0.4-2.5-0.6-3.8-0.6v-3
			h20.4l17.2,45l14.7-37.6c0.5-1.4,1-2.8,1.4-4.3c0.4-1.5,0.6-2.5,0.6-3h19.5v3c-0.8,0-1.8,0.2-3,0.4c-1.2,0.2-2.1,0.4-2.7,0.6
			c-1,0.3-1.6,0.9-1.9,1.7c-0.3,0.8-0.5,1.6-0.5,2.6v43.2c0,1,0.2,1.8,0.5,2.5c0.3,0.7,1,1.3,1.9,1.8c0.5,0.3,1.4,0.5,2.7,0.8
			c1.3,0.2,2.3,0.4,3.1,0.4V72.1z"/>
		<path class="st1" d="M155.7,62.3c-1.7,3.3-4.1,6-7,7.9c-2.9,2-6.3,3-10.1,3c-3.4,0-6.3-0.6-8.8-1.8c-2.5-1.2-4.6-2.8-6.2-4.8
			c-1.6-2-2.9-4.4-3.7-7.1c-0.8-2.7-1.2-5.6-1.2-8.6c0-2.7,0.4-5.4,1.3-8c0.9-2.6,2.1-4.9,3.8-7c1.6-2,3.6-3.6,6-4.8
			c2.4-1.2,5-1.8,8-1.8c3,0,5.6,0.5,7.8,1.4c2.2,1,3.9,2.3,5.3,3.9c1.3,1.6,2.3,3.4,2.9,5.6c0.6,2.1,1,4.5,1,7v2.8h-27.6
			c0,2.7,0.3,5.2,0.8,7.4c0.5,2.2,1.3,4.2,2.5,5.9c1.1,1.6,2.5,2.9,4.3,3.9c1.8,0.9,3.9,1.4,6.3,1.4c2.5,0,4.7-0.6,6.5-1.8
			c1.8-1.2,3.6-3.3,5.3-6.3L155.7,62.3z M146.4,46.4c0-1.6-0.1-3.3-0.4-5.1c-0.3-1.8-0.7-3.3-1.3-4.5c-0.6-1.3-1.5-2.3-2.7-3.2
			c-1.1-0.8-2.6-1.2-4.3-1.2c-3,0-5.4,1.2-7.4,3.7c-2,2.5-3,5.9-3.2,10.3H146.4z"/>
		<path class="st1" d="M186.2,70.2c-1.8,0.8-3.6,1.4-5.2,1.9c-1.6,0.5-3.6,0.8-6,0.8c-3.5,0-5.9-0.9-7.4-2.6
			c-1.4-1.8-2.1-4.2-2.1-7.5V34.6H158v-4.1h7.7v-13h7.7v13h12v4.1h-11.9v23.3c0,1.7,0.1,3.2,0.2,4.4c0.1,1.2,0.4,2.2,0.9,3.1
			c0.5,0.8,1.1,1.4,2,1.9c0.9,0.4,2.1,0.6,3.6,0.6c0.7,0,1.7-0.1,3.1-0.2c1.4-0.1,2.3-0.3,2.9-0.5V70.2z"/>
		<path class="st1" d="M229.8,71.3c-1.3,0.5-2.5,0.9-3.5,1.2c-1,0.3-2.1,0.4-3.4,0.4c-2.2,0-3.9-0.5-5.3-1.5c-1.3-1-2.1-2.5-2.5-4.5
			h-0.3c-1.8,2-3.8,3.6-5.9,4.6c-2.1,1.1-4.6,1.6-7.6,1.6c-3.1,0-5.7-1-7.7-2.9c-2-1.9-3-4.4-3-7.5c0-1.6,0.2-3,0.7-4.3
			c0.5-1.3,1.1-2.4,2-3.4c0.7-0.8,1.6-1.6,2.8-2.3c1.2-0.7,2.2-1.2,3.3-1.6c1.3-0.5,3.8-1.4,7.7-2.7c3.9-1.3,6.5-2.3,7.8-3v-4.2
			c0-0.4-0.1-1.1-0.2-2.1c-0.2-1-0.5-2-1-3c-0.6-1-1.4-1.9-2.4-2.7c-1-0.8-2.5-1.2-4.4-1.2c-1.3,0-2.5,0.2-3.6,0.7
			c-1.1,0.4-1.9,0.9-2.3,1.4c0,0.6,0.1,1.4,0.4,2.5c0.3,1.1,0.4,2.1,0.4,3c0,1-0.4,1.9-1.3,2.7c-0.9,0.8-2.1,1.2-3.7,1.2
			c-1.4,0-2.4-0.5-3.1-1.5c-0.7-1-1-2.1-1-3.4c0-1.3,0.5-2.5,1.4-3.7c0.9-1.2,2.1-2.2,3.6-3.2c1.3-0.8,2.8-1.5,4.6-2
			c1.8-0.5,3.6-0.8,5.3-0.8c2.4,0,4.4,0.2,6.2,0.5c1.8,0.3,3.4,1,4.8,2.1c1.4,1,2.5,2.5,3.3,4.2c0.7,1.8,1.1,4.1,1.1,6.9
			c0,4,0,7.6-0.1,10.7c-0.1,3.1-0.1,6.5-0.1,10.2c0,1.1,0.2,2,0.6,2.6c0.4,0.6,1,1.2,1.8,1.6c0.4,0.3,1.1,0.4,2,0.4
			c0.9,0,1.9,0,2.8,0V71.3z M215.1,49c-2.4,0.7-4.5,1.4-6.3,2.1c-1.8,0.7-3.5,1.5-5,2.5c-1.4,1-2.5,2.1-3.3,3.4
			c-0.8,1.3-1.2,2.9-1.2,4.7c0,2.3,0.6,4.1,1.8,5.2c1.2,1.1,2.8,1.6,4.7,1.6c2,0,3.8-0.5,5.3-1.5c1.5-1,2.8-2.1,3.8-3.4L215.1,49z"
			/>
		<path class="st1" d="M285.4,54.4l-1.1,17.7h-49.7v-3c0.8-0.1,2-0.2,3.4-0.4c1.4-0.2,2.3-0.4,2.7-0.6c0.9-0.4,1.5-1,1.9-1.6
			c0.4-0.7,0.5-1.5,0.5-2.6V20.8c0-0.9-0.2-1.8-0.5-2.5c-0.3-0.7-1-1.3-1.9-1.8c-0.8-0.4-1.8-0.7-3.1-1c-1.3-0.3-2.3-0.4-3.1-0.5v-3
			h46.4v14.4h-3.2c-0.6-2.1-1.8-4.4-3.7-6.8c-1.9-2.4-3.7-3.7-5.3-3.9c-0.9-0.1-1.9-0.2-3.1-0.3c-1.2-0.1-2.6-0.1-4.1-0.1h-9.4v23.8
			h6.8c2.2,0,3.8-0.2,4.8-0.6c1-0.4,1.9-1.1,2.6-2c0.6-0.8,1.1-1.9,1.6-3.3c0.4-1.4,0.7-2.7,0.9-3.9h3.2V53h-3.2
			c-0.1-1.4-0.4-2.8-0.9-4.3c-0.5-1.5-1-2.6-1.5-3.3c-0.9-1.1-1.9-1.8-3-2.2c-1.1-0.3-2.6-0.5-4.4-0.5h-6.8v18
			c0,1.8,0.1,3.2,0.4,4.3c0.3,1,0.7,1.8,1.5,2.4c0.7,0.5,1.7,0.9,3,1c1.3,0.2,3.1,0.2,5.4,0.2c0.9,0,2.2,0,3.7,0s2.8-0.1,3.8-0.2
			c1.1-0.1,2.2-0.3,3.3-0.6c1.1-0.3,1.9-0.7,2.4-1.2c1.3-1.4,2.7-3.4,4.1-6.1c1.4-2.7,2.3-4.8,2.7-6.1H285.4z"/>
		<path class="st1" d="M309.7,73.2c-6,0-10.7-2-14.1-6c-3.4-4-5.1-9.4-5.1-16.1c0-2.9,0.5-5.7,1.4-8.2c0.9-2.5,2.2-4.9,4-6.9
			c1.7-2,3.7-3.6,6.2-4.8c2.5-1.2,5.2-1.8,8.2-1.8c4.1,0,7.4,1,10,2.9c2.6,2,3.8,4.6,3.8,8c0,1.4-0.3,2.7-1,3.7
			c-0.7,1.1-1.8,1.6-3.3,1.6c-1.7,0-2.9-0.4-3.9-1.3c-0.9-0.8-1.4-1.8-1.4-2.8c0-1.3,0.2-2.6,0.5-3.9c0.3-1.3,0.5-2.3,0.6-2.9
			c-0.5-0.9-1.3-1.5-2.3-1.7c-1-0.3-2.1-0.4-3.2-0.4c-1.3,0-2.6,0.3-3.9,0.9c-1.2,0.6-2.4,1.6-3.6,3.2c-1,1.4-1.9,3.3-2.5,5.7
			c-0.6,2.4-1,5.3-1,8.6c0,5.2,1.2,9.5,3.5,12.8c2.3,3.3,5.4,5,9.1,5c2.7,0,5-0.7,6.9-2c1.8-1.3,3.5-3.3,5.1-6l2.7,1.8
			c-1.9,3.3-4.3,6-7.3,7.9C316.1,72.2,312.9,73.2,309.7,73.2z"/>
		<path class="st1" d="M370.3,50.8c0,2.9-0.5,5.8-1.4,8.6c-0.9,2.8-2.3,5.2-4,7.2c-1.9,2.3-4.2,3.9-6.8,5s-5.4,1.6-8.6,1.6
			c-2.6,0-5.2-0.5-7.6-1.5c-2.4-1-4.5-2.5-6.4-4.4c-1.8-1.9-3.3-4.2-4.4-6.9c-1.1-2.7-1.6-5.8-1.6-9.1c0-6.5,1.9-11.8,5.7-16
			c3.8-4.1,8.8-6.2,14.9-6.2c5.8,0,10.6,2,14.4,5.9C368.4,39.1,370.3,44.3,370.3,50.8z M361.6,50.9c0-2.1-0.2-4.3-0.6-6.7
			c-0.4-2.3-1.1-4.3-1.9-6c-0.9-1.7-2.1-3.1-3.6-4.2c-1.5-1.1-3.3-1.6-5.4-1.6c-2.2,0-4,0.5-5.6,1.6c-1.5,1.1-2.8,2.5-3.7,4.4
			c-0.9,1.7-1.5,3.7-1.9,5.9c-0.4,2.2-0.5,4.3-0.5,6.4c0,2.7,0.2,5.2,0.7,7.5c0.4,2.3,1.1,4.3,2.1,6.1c1,1.8,2.2,3.2,3.6,4.2
			c1.5,1,3.2,1.5,5.4,1.5c3.5,0,6.3-1.7,8.4-5.1C360.6,61.6,361.6,56.9,361.6,50.9z"/>
		<path class="st1" d="M445.3,72.1h-27v-3c0.8-0.1,1.9-0.1,3.3-0.3c1.4-0.1,2.4-0.3,3-0.5c0.9-0.4,1.6-0.9,2-1.5
			c0.4-0.6,0.6-1.5,0.6-2.6V20.8c0-1-0.2-1.8-0.5-2.5c-0.3-0.7-1-1.2-2.2-1.7c-0.8-0.3-1.9-0.7-3.2-1c-1.3-0.3-2.3-0.5-3.1-0.5v-3
			h27v3c-0.9,0-1.9,0.1-3.1,0.3c-1.2,0.2-2.3,0.4-3.2,0.7c-1.1,0.3-1.8,0.9-2.2,1.6c-0.4,0.8-0.5,1.6-0.5,2.5v43.4
			c0,0.9,0.2,1.8,0.6,2.5c0.4,0.7,1.1,1.3,2.1,1.7c0.6,0.2,1.6,0.5,2.9,0.7c1.3,0.3,2.5,0.4,3.4,0.4V72.1z"/>
		<path class="st1" d="M498.7,26.9c0,3.1-0.6,5.9-1.8,8.3c-1.2,2.4-2.9,4.4-5.1,6c-2.1,1.6-4.5,2.7-7.1,3.5
			c-2.6,0.7-5.3,1.1-8.1,1.1h-6.7v18.2c0,1,0.2,1.9,0.5,2.6c0.3,0.7,1,1.3,2,1.7c0.5,0.2,1.4,0.4,2.7,0.5c1.3,0.2,2.5,0.3,3.5,0.3v3
			h-25.7v-3c0.7-0.1,1.7-0.2,2.9-0.3c1.3-0.1,2.2-0.3,2.7-0.5c0.8-0.4,1.5-0.9,1.8-1.6c0.4-0.7,0.6-1.6,0.6-2.7V20.7
			c0-1-0.1-1.9-0.4-2.7c-0.3-0.8-0.9-1.4-2-1.8c-1.1-0.4-2.1-0.6-3.2-0.8c-1.1-0.2-2-0.3-2.7-0.3v-3h27.4c5.6,0,10.1,1.3,13.6,4
			C497,18.9,498.7,22.4,498.7,26.9z M485.9,37.1c1-1.4,1.6-2.8,1.9-4.2c0.3-1.4,0.5-2.8,0.5-3.9c0-1.6-0.2-3.2-0.6-4.9
			c-0.4-1.7-1-3.1-2-4.3c-1-1.3-2.3-2.3-3.9-3.1c-1.6-0.7-3.6-1.1-6-1.1h-6v26.5h4.3c3,0,5.5-0.5,7.4-1.4
			C483.5,39.7,484.9,38.5,485.9,37.1z"/>
		<path class="st1" d="M563.7,44.6c1.3,1.4,2.2,2.9,2.8,4.6c0.6,1.7,0.9,3.6,0.9,5.8c0,5.3-2,9.7-5.9,13.1
			c-3.9,3.4-8.8,5.2-14.6,5.2c-2.7,0-5.3-0.4-8-1.2c-2.7-0.8-5-1.8-6.9-3l-1.8,3.1h-3.4l-0.6-20.5h3.4c0.7,2.5,1.5,4.8,2.5,6.9
			c0.9,2,2.2,3.9,3.7,5.7c1.5,1.7,3.2,3,5.1,4c2,1,4.2,1.5,6.8,1.5c1.9,0,3.6-0.3,5.1-0.8c1.4-0.5,2.6-1.2,3.5-2.2
			c0.9-0.9,1.6-2,2-3.3c0.4-1.3,0.7-2.7,0.7-4.3c0-2.4-0.7-4.6-2-6.7c-1.4-2.1-3.4-3.6-6-4.7c-1.8-0.7-3.9-1.5-6.3-2.4
			c-2.4-0.9-4.4-1.7-6.1-2.5c-3.4-1.5-6-3.5-7.9-6c-1.9-2.5-2.8-5.7-2.8-9.6c0-2.3,0.5-4.4,1.4-6.4c0.9-2,2.3-3.7,4-5.3
			c1.6-1.5,3.6-2.6,5.8-3.4c2.2-0.8,4.5-1.2,7-1.2c2.8,0,5.2,0.4,7.4,1.3c2.2,0.8,4.2,1.8,6,3l1.7-2.9h3.4l0.3,19.9h-3.4
			c-0.6-2.3-1.3-4.5-2.1-6.5c-0.8-2.1-1.8-4-3-5.7c-1.2-1.6-2.7-2.9-4.4-3.9c-1.7-1-3.9-1.5-6.4-1.5c-2.7,0-5,0.9-6.8,2.6
			c-1.9,1.7-2.8,3.8-2.8,6.3c0,2.6,0.6,4.7,1.8,6.4c1.2,1.7,3,3.1,5.3,4.2c2.1,1,4.1,1.8,6.1,2.6c2,0.7,3.9,1.5,5.8,2.3
			c1.7,0.7,3.3,1.6,4.9,2.5C561.2,42.2,562.6,43.3,563.7,44.6z"/>
		<path class="st1" d="M614.5,50.8c0,2.9-0.5,5.8-1.4,8.6c-0.9,2.8-2.3,5.2-4,7.2c-1.9,2.3-4.2,3.9-6.8,5c-2.6,1.1-5.4,1.6-8.6,1.6
			c-2.6,0-5.2-0.5-7.6-1.5c-2.4-1-4.5-2.5-6.4-4.4c-1.8-1.9-3.3-4.2-4.4-6.9c-1.1-2.7-1.6-5.8-1.6-9.1c0-6.5,1.9-11.8,5.7-16
			c3.8-4.1,8.8-6.2,14.9-6.2c5.8,0,10.6,2,14.4,5.9C612.6,39.1,614.5,44.3,614.5,50.8z M605.8,50.9c0-2.1-0.2-4.3-0.6-6.7
			c-0.4-2.3-1.1-4.3-1.9-6c-0.9-1.7-2.1-3.1-3.6-4.2c-1.5-1.1-3.3-1.6-5.4-1.6c-2.2,0-4,0.5-5.6,1.6c-1.5,1.1-2.8,2.5-3.7,4.4
			c-0.9,1.7-1.5,3.7-1.9,5.9c-0.4,2.2-0.5,4.3-0.5,6.4c0,2.7,0.2,5.2,0.7,7.5c0.4,2.3,1.1,4.3,2.1,6.1c1,1.8,2.2,3.2,3.6,4.2
			c1.5,1,3.2,1.5,5.4,1.5c3.5,0,6.3-1.7,8.4-5.1C604.7,61.6,605.8,56.9,605.8,50.9z"/>
		<path class="st1" d="M640,72.1h-20.3v-2.8c0.6-0.1,1.3-0.1,2.1-0.2c0.7-0.1,1.3-0.2,1.8-0.3c0.8-0.3,1.4-0.7,1.8-1.3
			c0.4-0.6,0.6-1.5,0.6-2.5V16.7c0-1-0.2-2-0.7-2.9c-0.4-0.9-1-1.6-1.7-2.1c-0.5-0.3-1.4-0.6-2.8-0.9c-1.4-0.3-2.4-0.4-3.3-0.5V7.6
			l15.7-0.9l0.6,0.6v57.1c0,1,0.2,1.8,0.5,2.4c0.4,0.6,1,1.1,1.8,1.5c0.6,0.3,1.2,0.5,1.8,0.6c0.6,0.1,1.3,0.2,2,0.3V72.1z"/>
		<path class="st1" d="M689.9,71.3l-13.6,0.9l-0.6-0.6v-5.3h-0.3c-0.7,0.7-1.4,1.5-2.3,2.3c-0.8,0.8-1.8,1.5-2.9,2.2
			c-1.3,0.8-2.5,1.3-3.7,1.7c-1.2,0.4-2.9,0.6-5,0.6c-3.7,0-6.5-1.2-8.4-3.6c-1.9-2.4-2.9-5.9-2.9-10.5V39.1c0-1-0.2-1.9-0.6-2.6
			c-0.4-0.7-0.9-1.3-1.7-1.8c-0.5-0.3-1.1-0.6-1.9-0.7c-0.8-0.2-1.6-0.3-2.4-0.3v-2.8l13.9-1l0.6,0.6v28.9c0,3,0.7,5.3,2,6.8
			c1.4,1.5,3,2.3,4.9,2.3c1.5,0,2.9-0.2,4.1-0.7c1.2-0.5,2.2-1,3-1.7c0.8-0.6,1.4-1.2,2-1.9c0.6-0.7,1-1.3,1.3-1.8V38.8
			c0-0.9-0.2-1.8-0.6-2.5c-0.4-0.7-0.9-1.3-1.6-1.8c-0.5-0.3-1.3-0.5-2.3-0.6c-1-0.1-2.1-0.1-3.4-0.2v-2.8l15.2-1l0.6,0.6v33
			c0,1,0.2,1.8,0.6,2.4c0.4,0.7,0.9,1.3,1.6,1.7c0.5,0.3,1.1,0.5,1.8,0.6c0.7,0.1,1.5,0.2,2.3,0.2V71.3z"/>
		<path class="st1" d="M720.7,70.2c-1.8,0.8-3.6,1.4-5.2,1.9c-1.6,0.5-3.6,0.8-6,0.8c-3.5,0-5.9-0.9-7.4-2.6
			c-1.4-1.8-2.1-4.2-2.1-7.5V34.6h-7.5v-4.1h7.7v-13h7.7v13h12v4.1h-11.9v23.3c0,1.7,0.1,3.2,0.2,4.4c0.1,1.2,0.4,2.2,0.9,3.1
			c0.4,0.8,1.1,1.4,2,1.9c0.9,0.4,2.1,0.6,3.6,0.6c0.7,0,1.7-0.1,3.1-0.2c1.4-0.1,2.3-0.3,2.9-0.5V70.2z"/>
		<path class="st1" d="M745,72.1h-20.1v-2.8c0.6-0.1,1.3-0.1,2-0.2c0.7-0.1,1.3-0.2,1.8-0.3c0.8-0.3,1.4-0.7,1.8-1.3
			c0.4-0.6,0.6-1.5,0.6-2.5V39.3c0-0.9-0.2-1.7-0.6-2.5c-0.4-0.7-1-1.4-1.7-1.9c-0.5-0.3-1.3-0.6-2.3-0.9c-1-0.2-1.9-0.4-2.8-0.4
			v-2.8l14.7-0.9l0.6,0.6v34c0,1,0.2,1.8,0.6,2.4c0.4,0.6,1,1.1,1.8,1.4c0.6,0.3,1.2,0.5,1.8,0.6c0.6,0.2,1.2,0.3,2,0.3V72.1z
			 M739.7,13.5c0,1.6-0.5,3-1.6,4.2c-1.1,1.2-2.4,1.8-3.9,1.8c-1.4,0-2.7-0.6-3.7-1.7c-1.1-1.1-1.6-2.4-1.6-3.9
			c0-1.5,0.5-2.9,1.6-4.1c1.1-1.2,2.3-1.7,3.7-1.7c1.6,0,2.9,0.5,3.9,1.6C739.2,10.8,739.7,12.1,739.7,13.5z"/>
		<path class="st1" d="M790.8,50.8c0,2.9-0.5,5.8-1.4,8.6c-0.9,2.8-2.3,5.2-4,7.2c-1.9,2.3-4.2,3.9-6.8,5c-2.6,1.1-5.4,1.6-8.6,1.6
			c-2.6,0-5.2-0.5-7.6-1.5s-4.5-2.5-6.4-4.4c-1.8-1.9-3.3-4.2-4.4-6.9c-1.1-2.7-1.6-5.8-1.6-9.1c0-6.5,1.9-11.8,5.7-16
			c3.8-4.1,8.8-6.2,14.9-6.2c5.8,0,10.6,2,14.4,5.9C788.9,39.1,790.8,44.3,790.8,50.8z M782,50.9c0-2.1-0.2-4.3-0.6-6.7
			c-0.4-2.3-1.1-4.3-1.9-6c-0.9-1.7-2.1-3.1-3.6-4.2c-1.5-1.1-3.3-1.6-5.4-1.6c-2.2,0-4,0.5-5.6,1.6c-1.5,1.1-2.8,2.5-3.7,4.4
			c-0.9,1.7-1.5,3.7-1.9,5.9c-0.4,2.2-0.5,4.3-0.5,6.4c0,2.7,0.2,5.2,0.7,7.5c0.4,2.3,1.1,4.3,2.1,6.1c1,1.8,2.2,3.2,3.6,4.2
			c1.5,1,3.2,1.5,5.4,1.5c3.5,0,6.3-1.7,8.4-5.1C781,61.6,782,56.9,782,50.9z"/>
		<path class="st1" d="M842.8,72.1h-20.4v-2.8c0.6-0.1,1.4-0.1,2.1-0.2c0.8-0.1,1.4-0.2,1.9-0.3c0.8-0.3,1.4-0.7,1.8-1.3
			c0.4-0.6,0.6-1.5,0.6-2.5V43.6c0-3-0.7-5.2-2.1-6.8c-1.4-1.6-3.1-2.4-5.1-2.4c-1.5,0-2.9,0.2-4.1,0.7c-1.2,0.5-2.3,1-3.3,1.7
			c-0.9,0.6-1.7,1.3-2.2,2.1c-0.6,0.7-1,1.3-1.2,1.8v23.9c0,1,0.2,1.7,0.6,2.4c0.4,0.6,1,1.1,1.8,1.4c0.6,0.3,1.2,0.5,1.9,0.6
			c0.7,0.1,1.4,0.2,2.1,0.3v2.8h-20.4v-2.8c0.6-0.1,1.3-0.1,2-0.2c0.7-0.1,1.3-0.2,1.8-0.3c0.8-0.3,1.4-0.7,1.8-1.3
			c0.4-0.6,0.6-1.5,0.6-2.5V39.3c0-1-0.2-1.8-0.6-2.6c-0.4-0.8-1-1.5-1.7-2c-0.5-0.3-1.2-0.6-1.9-0.7c-0.7-0.2-1.5-0.3-2.4-0.3v-2.8
			l13.9-0.9l0.6,0.6v5.9h0.2c0.7-0.7,1.5-1.5,2.5-2.4c1-0.9,2-1.7,2.9-2.3c1-0.7,2.3-1.2,3.7-1.7c1.4-0.4,3.1-0.7,4.9-0.7
			c4,0,7,1.2,8.9,3.7c1.9,2.5,2.9,5.8,2.9,9.9v21.7c0,1,0.2,1.8,0.5,2.4c0.3,0.6,0.9,1.1,1.7,1.4c0.7,0.3,1.3,0.5,1.8,0.6
			c0.5,0.1,1.2,0.2,2,0.3V72.1z"/>
	</g>
	<g class="st0">
		<path class="st1" d="M383.8,9.7h-6.1v16.5h-4.1V9.7h-6V6.4h16.1V9.7z"/>
		<path class="st1" d="M391.4,6.4l5.1,14.3l5-14.3h5.3v19.8h-4.1v-5.4l0.4-9.3l-5.3,14.7h-2.8l-5.3-14.7l0.4,9.3v5.4h-4.1V6.4H391.4
			z"/>
	</g>
</g>
</svg>
